<?xml version="1.0" encoding="utf-8"?>
<!-- Generator: Adobe Illustrator 17.1.0, SVG Export Plug-In . SVG Version: 6.00 Build 0)  -->
<!DOCTYPE svg PUBLIC "-//W3C//DTD SVG 1.1//EN" "http://www.w3.org/Graphics/SVG/1.1/DTD/svg11.dtd">
<svg version="1.1" id="Layer_1" xmlns="http://www.w3.org/2000/svg" xmlns:xlink="http://www.w3.org/1999/xlink" x="0px" y="0px"
	 viewBox="0 0 88 88" enable-background="new 0 0 88 88" xml:space="preserve">
<path fill="#4D5A67" d="M45.7,0c-0.6,0-1.1,0-1.7,0s-1.1,0-1.7,0C18.8,0.9,0,20.3,0,44s18.8,43.1,42.3,44c0.6,0,1.1,0,1.7,0
	s1.1,0,1.7,0C69.2,87.1,88,67.7,88,44S69.2,0.9,45.7,0z M79.8,40H63.9C63,26.6,57.6,15.9,53.1,9.2C67.3,12.9,78.1,25.1,79.8,40z
	 M44,10.2C47.9,15.3,54.7,26,55.8,40H32.2C33.3,26,40.1,15.3,44,10.2z M55.8,48C54.7,62,47.9,72.7,44,77.8
	C40.1,72.7,33.3,62,32.2,48H55.8z M34.9,9.2C30.4,15.9,25,26.6,24.1,40H8.2C9.9,25.1,20.7,12.9,34.9,9.2z M8.2,48h15.9
	c0.9,13.4,6.3,24.1,10.7,30.8C20.7,75.1,9.9,62.9,8.2,48z M53.1,78.8C57.6,72.1,63,61.4,63.9,48h15.9C78.1,62.9,67.3,75.1,53.1,78.8
	z"/>
</svg>
