<?xml version="1.0" encoding="utf-8"?>
<!-- Generator: Adobe Illustrator 17.1.0, SVG Export Plug-In . SVG Version: 6.00 Build 0)  -->
<!DOCTYPE svg PUBLIC "-//W3C//DTD SVG 1.1//EN" "http://www.w3.org/Graphics/SVG/1.1/DTD/svg11.dtd">
<svg version="1.1" id="Layer_1" xmlns="http://www.w3.org/2000/svg" xmlns:xlink="http://www.w3.org/1999/xlink" x="0px" y="0px"
	 viewBox="730.9 271.1 111 53" enable-background="new 730.9 271.1 111 53" xml:space="preserve">
<g id="layer1" transform="translate(-8.47922, -404.626)">
	<g id="g2058" transform="translate(7.08102, 7.08844)">
		<path id="path26" fill="#435465" d="M766.7,703.3h7v2.3h-3.3v16.1h-3.7V703.3"/>
		<path id="path28" fill="#435465" d="M777.9,714.8l0.6-9.2h0.2l0.6,9.2H777.9z M773.8,721.7h3.6l0.3-4.9h1.7l0.3,4.9h3.6l-1.9-18.3
			h-5.8L773.8,721.7"/>
		<path id="path30" fill="#435465" d="M788.6,715.3v3.5c0,0.5,0.4,0.6,0.6,0.6c0.3,0,0.6-0.3,0.6-0.6v-4.3c0-0.6-0.1-1.2-1.5-1.2
			h-1.5v-2h1.5c1,0,1.4-0.2,1.4-1.4v-3.6c0-0.3-0.2-0.6-0.6-0.6c-0.2,0-0.6,0.1-0.6,0.6v3H785v-2.6c0-1.3,0.2-3.3,2.7-3.3h3
			c2.6,0,2.7,2,2.7,3.3v2.9c0,2-1.4,2.5-2.5,2.5v0.2c2.5-0.1,2.5,1.8,2.5,2.5v3.7c0,1.3-0.2,3.3-2.7,3.3h-3c-2.6,0-2.7-2-2.7-3.3
			v-3.1H788.6"/>
		<path id="path32" fill="#435465" d="M795.9,703.3h8.5v18.3h-3.7v-16.1h-1.2v16.1h-3.7V703.3"/>
		<path id="path34" fill="#435465" d="M810.5,713.4v-7.8h0.5c0.4,0,0.7,0.3,0.7,0.9v6c0,0.6-0.3,0.9-0.7,0.9H810.5z M806.8,721.7
			h3.7v-6.2h2.1c2.6,0,2.7-2,2.7-3.3v-5.5c0-1.3-0.2-3.3-2.7-3.3h-5.8V721.7"/>
		<path id="path36" fill="#435465" d="M822.5,718.7c0,0.3-0.2,0.6-0.6,0.6c-0.2,0-0.6-0.1-0.6-0.6v-12.5c0-0.5,0.4-0.6,0.6-0.6
			c0.3,0,0.6,0.3,0.6,0.6V718.7z M817.7,718.4c0,1.3,0.2,3.3,2.7,3.3h3.1c2.6,0,2.7-2,2.7-3.3v-11.8c0-1.3-0.2-3.3-2.7-3.3h-3.1
			c-2.6,0-2.7,2-2.7,3.3V718.4"/>
		<path id="path38" fill="#435465" d="M838.1,703.3h4.8v18.3h-3.7v-11.5h-0.1l-1.9,11.5h-2.9l-1.9-11.5h-0.1v11.5h-3.7v-18.3h4.8
			l2.4,12.9L838.1,703.3"/>
		<path id="path40" fill="#435465" d="M762,678.2c-1.1-4.9-3.9-8.9-4.3-9.6c-0.6,0.9-2.9,4.5-4,8.4c-1.2,4.4-1.4,8.3-1,12.1
			c0.4,3.8,2,7.7,2,7.7c0.9,2,2.1,4.3,3,5.3c1.2-1.6,4-6.3,4.9-12.5C763.1,686.2,763.1,683.2,762,678.2z M757.6,701
			c-0.6-1-1.4-3-1.5-6.1c0-2.9,1.2-5.5,1.5-6c0.3,0.5,1.3,2.7,1.4,5.8C759.2,697.6,758.2,699.9,757.6,701z M761.6,686.6
			c0,1.9-0.3,3.9-0.6,5.1c0.1-2-0.1-4.9-0.6-7.2c-0.5-2.2-1.8-6-2.9-7.7c-1,1.7-2.2,4.9-2.8,7.7c-0.6,2.8-0.7,6.2-0.7,7.2
			c-0.2-0.9-0.6-3.9-0.5-7c0.1-2.5,0.7-5.2,1-6.4c1.2-4,2.7-6.6,2.9-7c0.3,0.4,2,3.6,3,6.9C761.5,681.5,761.7,684.7,761.6,686.6"/>
		<path id="path42" fill="#435465" d="M759.5,703.3H751v5.7c0,0,0,0,0,0c2-2,5.3-2,7.3,0c2,2,2,5.3,0,7.3c0,0,0,0,0,0l0,0
			c0,0,0,0,0,0c-2,2-4.6,3-7.3,3c-2.6,0-5.3-1-7.3-3c-3.5-3.5-4-9-1.3-13c0.4-0.5,0.8-1.1,1.3-1.5c2-2,4.6-3,7.3-3V685
			c-10.1,0-18.3,8.2-18.3,18.3c0,10.1,8.2,18.3,18.3,18.3c5.3,0,10-2.2,13.4-5.8v-12.5H759.5"/>
	</g>
</g>
</svg>
