<?xml version="1.0" encoding="utf-8"?>
<!-- Generator: Adobe Illustrator 17.1.0, SVG Export Plug-In . SVG Version: 6.00 Build 0)  -->
<!DOCTYPE svg PUBLIC "-//W3C//DTD SVG 1.1//EN" "http://www.w3.org/Graphics/SVG/1.1/DTD/svg11.dtd">
<svg version="1.1" id="Layer_1" xmlns="http://www.w3.org/2000/svg" xmlns:xlink="http://www.w3.org/1999/xlink" x="0px" y="0px"
	 viewBox="0 0 214 20" enable-background="new 0 0 214 20" xml:space="preserve">
<g>
	<path fill="#435465" d="M61.6,18h-3.1v-5.5h-5.3V18h-3v-13h3v5.1h5.3V4.9h3.1V18z"/>
	<path fill="#435465" d="M75.7,18h-3.1V7.4h-5.3V18h-3v-13h3l0,0h5.3l0,0h3.1V18z"/>
	<path fill="#435465" d="M85.8,4.9c1.3,0,1.9,0.2,2.3,0.6c0.7,0.7,1.3,1.9,1.3,5.9c0,4-0.5,5.2-1.3,5.9c-0.5,0.4-1.1,0.6-2.3,0.6h-4
		c-1.3,0-1.9-0.2-2.3-0.6c-0.7-0.7-1.3-1.9-1.3-5.9c0-4,0.5-5.2,1.3-5.9c0.5-0.4,1.1-0.6,2.3-0.6H85.8z M81.7,15.4
		c0.1,0.1,0.3,0.2,0.9,0.2H85c0.6,0,0.8-0.1,0.9-0.2c0.2-0.2,0.4-0.6,0.4-3.9c0-3.3-0.2-3.8-0.4-3.9c-0.1-0.1-0.3-0.2-0.9-0.2h-2.5
		c-0.6,0-0.8,0.1-0.9,0.2c-0.2,0.1-0.4,0.6-0.4,3.9S81.5,15.2,81.7,15.4z"/>
	<path fill="#435465" d="M103.6,12.4h-6.6v-2.3h6.6V12.4z"/>
	<path fill="#435465" d="M119.3,18h-3.1v-5.5H111V18h-3v-13h3v5.1h5.3V4.9h3.1V18z"/>
	<path fill="#435465" d="M131.2,18h-9.1v-13h9.1v2.4h-6v2.8h5.6v2.3h-5.6v3.1h6V18z"/>
	<path fill="#435465" d="M212.4,18h-11.9v-2.4h11.9V18z"/>
	<path fill="#435465" d="M142.4,13c-0.4,0.4-1.2,0.5-2.2,0.5h-3.8V18h-3v-13h6.8c1.1,0,1.8,0.1,2.2,0.5c0.6,0.5,1.1,1.4,1.1,3.8
		C143.6,11.6,143,12.5,142.4,13z M139,11.2c0.7,0,0.9,0,1-0.1c0.2-0.2,0.4-0.5,0.4-1.8c0-1.3-0.2-1.6-0.4-1.8
		c-0.1-0.1-0.3-0.2-1-0.2h-2.6v3.9H139z"/>
	<path fill="#435465" d="M148.5,18h-3v-13h8.2v2.4h-5.1V18z"/>
	<path fill="#435465" d="M162.3,4.9c1.3,0,1.9,0.2,2.3,0.6c0.7,0.7,1.3,1.9,1.3,5.9c0,4-0.5,5.2-1.3,5.9c-0.5,0.4-1.1,0.6-2.3,0.6
		h-4c-1.3,0-1.9-0.2-2.3-0.6c-0.7-0.7-1.3-1.9-1.3-5.9c0-4,0.5-5.2,1.3-5.9c0.5-0.4,1.1-0.6,2.3-0.6H162.3z M158.1,15.4
		c0.1,0.1,0.3,0.2,0.9,0.2h2.5c0.6,0,0.8-0.1,0.9-0.2c0.2-0.2,0.4-0.6,0.4-3.9c0-3.3-0.2-3.8-0.4-3.9c-0.1-0.1-0.3-0.2-0.9-0.2H159
		c-0.6,0-0.8,0.1-0.9,0.2c-0.2,0.1-0.4,0.6-0.4,3.9S158,15.2,158.1,15.4z"/>
	<path fill="#435465" d="M101.2,4.9c-2.1,0-3.7,0.3-4.8,0.6v2.4c0.5-0.1,2.2-0.6,4-0.6c1.5,0,2.9,0.4,2.9,4.1c0,3.3,3.1,4.6,3.1,0
		C106.5,7.1,104.4,5,101.2,4.9z"/>
	<path fill="#435465" d="M101.3,18c-2.6,0-3.8-0.3-4.9-0.6V15c0.5,0.1,2.2,0.6,4,0.6c2,0,2.9-1.1,2.9-4.1h3.1
		C106.5,16.2,104.6,18,101.3,18z"/>
	<path fill="#435465" d="M182.9,18h-2.9V8.5h-0.2l-2.7,8.8c-0.2,0.5-0.3,0.7-0.8,0.7h-1.3c-0.5,0-0.6-0.1-0.8-0.7l-2.7-8.9h-0.2V18
		h-2.9v-13h4.1c0.5,0,0.7,0.2,0.9,0.7l2.2,7.8h0.2l2.2-7.8c0.1-0.5,0.3-0.7,0.9-0.7h4.1V18z"/>
	<path fill="#435465" d="M193,14.7h-4.5l-1,3.2h-3l4-12.2c0.2-0.7,0.4-0.9,1.1-0.9h2.5c0.7,0,0.8,0.2,1.1,0.9l4,12.2H194L193,14.7z
		 M189.2,12.5h3.1l-1.5-4.8h-0.2L189.2,12.5z"/>
	<path fill="#435465" d="M198.9,18v-13h3.1v13H198.9z"/>
	<path fill="#435465" d="M204.9,18v-13h3.1v13H204.9z"/>
	<path fill="#435465" d="M210.9,18v-13h3.1v13H210.9z"/>
	<path fill="#435465" d="M0,16.8C16.5,8.1,36,2.2,53,1.4C30.3,0.1,7.8,10.2,0,15.7V16.8z"/>
	<g>
		<path fill="#435465" d="M0.3,11.3c6.1-3.4,13.1-7,28.2-9.1C23.3,0.8,16.7,0,9.4,0C6.1,0,2.9,0.2,0,0.5v11.1
			C0.2,11.4,0.3,11.3,0.3,11.3z"/>
		<path fill="#435465" d="M35.9,5.2C33,11.1,18,16.8,0,17.8v0.6c2.9,0.3,6.1,0.5,9.4,0.5c16.4,0,29.8-4.2,29.8-9.4
			C39.1,7.9,38,6.4,35.9,5.2z"/>
	</g>
</g>
</svg>
