<?xml version="1.0" encoding="utf-8"?>
<!-- Generator: Adobe Illustrator 17.1.0, SVG Export Plug-In . SVG Version: 6.00 Build 0)  -->
<!DOCTYPE svg PUBLIC "-//W3C//DTD SVG 1.1//EN" "http://www.w3.org/Graphics/SVG/1.1/DTD/svg11.dtd">
<svg version="1.1" id="Layer_1" xmlns="http://www.w3.org/2000/svg" xmlns:xlink="http://www.w3.org/1999/xlink" x="0px" y="0px"
	 viewBox="-10 2 178 40" enable-background="new -10 2 178 40" xml:space="preserve">
<g>
	<path fill="#445465" d="M-9.2,22c0-10.3,8.2-18.7,18.1-18.7c10,0,18.1,8.4,18.1,18.7S18.7,40.7,8.8,40.7C-1.2,40.7-9.2,32.3-9.2,22
		z M-10,22c0,10.7,8.4,19.5,18.8,19.5c10.3,0,18.8-8.7,18.8-19.5c0-10.7-8.4-19.5-18.8-19.5S-10,11.3-10,22z"/>
	<path fill="#445465" d="M20.8,20c-0.1,0.1-0.3,0.3-0.5,0.4c-1,0.9-2.6,1.5-4.9,2.1C10.6,23.8,7.2,24,3.3,25
		c-0.8,0.3-1.5,0.5-2.3,0.8c0.8,0.4,1.5,0.8,2.3,1c1.6-0.5,2.4-0.6,4.6-1.1c0.9-0.1,3.5-0.6,5.5-1C17,23.9,22.1,22.3,20.8,20
		L20.8,20z M18.5,15.5c-0.8-0.4-1.6-0.6-2.6-1c-0.5,0.4-1,0.6-1.8,1c1.3,0.3,2.1,0.6,3.3,0.9l0,0C17.5,16.5,18.4,15.6,18.5,15.5
		L18.5,15.5z M1.3,20.4c4.5-1.4,9.4-1.8,14.3-3.1c-1.9-0.5-2.9-0.8-4.9-0.5c-2.9,0.4-6.2,1-8.9,1.9c-1.1,0.4-6.8,2-5.1,4.3l0,0
		C-3.3,22.9-2.3,21.5,1.3,20.4L1.3,20.4z M-1.8,28.3c0,0.4,0.3,0.9,0.8,1.3c0.1-0.3,0.1-0.4,0.4-0.6l0,0
		C-1.1,28.8-1.5,28.5-1.8,28.3L-1.8,28.3z M0.3,28c0.4-0.3,0.8-0.4,1.3-0.6c-0.6-0.3-1.3-0.6-2-0.9c-0.3,0.3-0.6,0.4-0.8,0.6l0,0
		C-0.7,27.5-0.2,27.8,0.3,28L0.3,28z M18,18c-0.9,0.5-2.3,0.9-4.1,1.4c-1.5,0.4-5.4,1-9.4,1.9c-1.3,0.3-4.8,1.1-6.5,2.6
		c0.5,0.4,0.8,0.5,1.3,0.8c0.8-0.5,1.6-0.9,3.1-1.3c2.5-0.8,4.4-1,6.7-1.4c2.3-0.4,6.4-1.3,8.8-2.1c0.8-0.3,1.5-0.6,2-1
		C19.5,18.7,18,18,18,18L18,18z M19.2,17.1c0.5,0.3,0.9,0.4,1.3,0.8c0.3-0.6,0.1-0.9-0.5-1.5l0,0C19.9,16.7,19.6,17,19.2,17.1
		L19.2,17.1z M-2.1,25.8c-0.4-0.3-0.6-0.4-1-0.6C-3.2,25.5-3,26-2.6,26.3l0,0C-2.3,26-2.2,25.9-2.1,25.8L-2.1,25.8z M17.5,12.6
		c-0.1,0.4-0.4,0.8-0.6,1c0.6,0.3,1.4,0.5,2,0.8C18.7,13.7,18.1,13.1,17.5,12.6L17.5,12.6z M-4.1,16.7c4.8-3.3,10.2-5.1,19.1-3.5
		c0.5-0.3,0.8-0.6,0.9-1.1c-2.3-0.9-4.6-1.1-7.8-1.1c-2.9,0.1-7.9,1.1-10.7,2.9l0.9-1.1c1.9-1.1,6.9-2.6,10.5-2.8c2.6,0,4,0.1,7.2,1
		c-0.3-0.5-0.9-0.9-1.9-1.3c-3-1.4-8.7-1.5-13.3,0.6c0.6-0.4,1.1-0.8,1.9-1.1c1.5-0.8,4-1.4,7.2-1.4c2.5,0,5.4,0.9,7.3,2.8
		c0.3,0.4,0.5,0.8,0.5,1.1c1.4,0.8,2.3,1.5,2.8,2.3c0.1,0.4,0.3,0.9,0.1,1.4c0.6,0.4,0.9,0.6,1.1,1.1c0.3,0.4,0.4,0.8,0.4,1.1
		c0,0.5,0.1,1-0.4,1.6c0.5,0.3,0.9,1,0.9,1.3c0.3,1.1-0.5,2.3-1.4,3c-1,1-3.4,2.1-5.3,2.6c-3.8,1-7,1.4-9.7,1.9
		c1.1,0.3,2.8,0.6,5.4,0.6c5.6,0,10.5-2.8,10.5-2.8s-0.1,0.4-0.3,0.6c-3.5,2.3-9.3,3.1-11.7,3c-2.5-0.1-4.5-0.5-6.5-1.1
		c-0.6,0.1-1.3,0.4-1.9,0.6c3.1,1.5,5.4,1.8,8,2c2.6,0.3,7.2-0.5,10.9-1.9c-0.1,0.1-0.3,0.5-0.4,0.6c-1.9,1-6,2.1-8,2.1
		c-2,0.1-4.5,0-6.7-0.4c-1.9-0.4-3.4-1-4.9-1.8c-0.3,0.3-0.4,0.5-0.5,0.9c6.2,3.4,11.9,3.4,18.6,1.3l-0.6,0.6
		c-7.3,3-12.9,1.9-17.3-0.4C0.8,32,0.5,32,0.4,31.9c0.4,0.8,3.8,3.3,7.5,3.6c2.6,0.3,5.8-0.3,7.7-1l-1.1,0.6
		c-0.9,0.5-3.3,1.5-6.7,1.3c-4.5-0.3-7-2.4-8.2-3.4c-0.5-0.5-0.8-1.1-0.9-1.8c-1-0.5-1.6-1.1-2.1-2c-0.3-0.5-0.3-1-0.1-1.5
		c0-0.1,0-0.3,0.1-0.4c-0.5-0.4-1-0.8-1.1-1.1c-0.5-0.9-0.1-1.5,0.1-2.1c-0.3-0.3-0.5-0.6-0.6-1c-0.1-0.5-0.1-0.9-0.1-1.3
		c0.1-0.8,0.5-1.4,0.9-1.9c1-1.1,2.5-2,5.1-3c2.6-0.9,3.6-1,5.5-1.5c2.3-0.5,5-0.8,7.3-1.5c-6.3-1.1-12.9-0.1-18.3,3.8L-4.1,16.7z"
		/>
	<path fill="#445465" d="M51.3,18.6l0.8,5.1h-1.4L51.3,18.6z M45.6,30.5h3.9l0.5-2.9h2.6l0.5,2.9H57l-3.3-16.9h-4.9L45.6,30.5z"/>
	<path fill="#445465" d="M60.5,20.1c0.6,0,1.8-0.4,1.8-1.6c0-1.5-1.3-1.6-1.6-1.6c-0.5,0-1.3,0.1-2.1,0.5v-3.6
		c1.3-0.4,2.3-0.5,3.4-0.5c3.1,0,4.5,2.3,4.5,4.5c0,2.1-1.3,3.5-2.4,4v0.1c1.1,0.4,2.6,1.5,2.6,4c0,3.3-2.1,5-4.9,5
		c-1.5,0-2.5-0.3-3.6-0.9l0.1-3.5C59.4,27,60,27,60.8,27c1.3,0,1.8-0.9,1.8-1.6c0-1-0.6-1.6-1.9-1.6h-1.8v-3.6
		C58.9,20.1,60.5,20.1,60.5,20.1z"/>
	<polygon fill="#445465" points="68.5,13.5 78.9,13.5 78.9,30.5 75,30.5 75,17.6 72.2,17.6 72.2,30.5 68.5,30.5 	"/>
	<path fill="#445465" d="M84.8,17.2h0.9c0.9,0,1.4,0.5,1.4,1.9c0,1.9-0.9,2-1.4,2h-0.9V17.2z M81,30.5h3.8v-5.6H86
		c3.8,0,4.9-3.5,4.9-5.8s-1.4-5.6-4.9-5.6h-5.1v17.1H81z"/>
	<path fill="#445465" d="M98.1,26.5c-1.4,0-2-1.6-2-4.6c0-3,0.8-4.6,2-4.6c1.4,0,2,1.6,2,4.6C100.1,25,99.5,26.5,98.1,26.5z
		 M98.1,30.7c4.5,0,6-4.4,6-8.8s-1.5-8.8-6-8.8s-6,4.4-6,8.8C92.1,26.3,93.6,30.7,98.1,30.7z"/>
	<path fill="#445465" d="M124.4,27v-3.8h0.5c0.5,0,1.6,0,1.6,1.8s-1.3,2.1-1.6,2.1h-0.5V27z M120.8,30.5h4.5c1,0,5.1-0.4,5.1-5.5
		c0-4.4-3.1-5.1-5.3-5.1h-0.6v-2.3h5v-4h-8.8V30.5z"/>
	<polygon fill="#445465" points="144.1,13.5 147.9,13.5 147.9,19.6 150.6,19.6 150.6,13.5 154.3,13.5 154.3,30.5 150.6,30.5 
		150.6,23.6 147.9,23.6 147.9,30.5 144.1,30.5 	"/>
	<polygon fill="#445465" points="156.8,13.5 160.6,13.5 160.6,19.6 161.3,19.6 163.5,13.5 167.5,13.5 164.6,21.5 168,30.5 
		163.6,30.5 161.5,23.6 160.6,23.6 160.6,30.5 156.8,30.5 	"/>
	<polygon fill="#445465" points="38.2,13.5 46,13.5 46,17.7 42.1,17.7 42.1,30.5 38.2,30.5 	"/>
	<polygon fill="#445465" points="106,13.5 109.3,13.5 112.1,17.5 114.9,13.5 118.2,13.5 118.2,30.5 114.4,30.5 114.4,20.1 
		112.1,23.1 109.8,20.1 109.8,30.5 106,30.5 	"/>
	<path fill="#445465" d="M136.9,18.6l0.8,5.1h-1.5L136.9,18.6z M131.2,30.5h3.9l0.5-2.9h2.6l0.5,2.9h3.9l-3.4-17.1h-4.8L131.2,30.5z
		"/>
</g>
</svg>
