<?xml version="1.0" encoding="utf-8"?>
<!-- Generator: Adobe Illustrator 17.1.0, SVG Export Plug-In . SVG Version: 6.00 Build 0)  -->
<!DOCTYPE svg PUBLIC "-//W3C//DTD SVG 1.1//EN" "http://www.w3.org/Graphics/SVG/1.1/DTD/svg11.dtd">
<svg version="1.1" id="Layer_1" xmlns="http://www.w3.org/2000/svg" xmlns:xlink="http://www.w3.org/1999/xlink" x="0px" y="0px"
	 viewBox="0 0 40 40" enable-background="new 0 0 40 40" xml:space="preserve">
<path fill="#227bef" d="M36.4,8.9L21.6,0.5c-0.9-0.5-2.1-0.5-3.2,0L3.6,8.9C2.7,9.4,2,10.5,2,11.5v16.9c0,1.1,0.5,2.1,1.6,2.7
	l14.8,8.4c0.9,0.5,2.1,0.5,3.2,0l14.8-8.4c0.9-0.5,1.6-1.6,1.6-2.7V11.8C38,10.6,37.5,9.5,36.4,8.9z M25.5,13.5h-2
	c-1.5,0-1.9,0.7-1.9,1.7v2.3h3.6l-0.5,3.6h-3.2v9.1h-3.7v-9.1h-2.9v-3.6H18v-2.7c0-3.1,1.9-4.7,4.7-4.7c1.3,0,2.5,0.1,2.8,0.1
	C25.5,10.3,25.5,13.5,25.5,13.5z"/>
</svg>
