<?xml version="1.0" encoding="utf-8"?>
<!-- Generator: Adobe Illustrator 17.1.0, SVG Export Plug-In . SVG Version: 6.00 Build 0)  -->
<!DOCTYPE svg PUBLIC "-//W3C//DTD SVG 1.1//EN" "http://www.w3.org/Graphics/SVG/1.1/DTD/svg11.dtd">
<svg version="1.1" id="Layer_1" xmlns="http://www.w3.org/2000/svg" xmlns:xlink="http://www.w3.org/1999/xlink" x="0px" y="0px"
	 viewBox="403.9 280.6 34 34" enable-background="new 403.9 280.6 34 34" xml:space="preserve">
<g>
	<path fill="#FFFFFF" d="M436.6,297.6h-1.4c0,3.9-1.6,7.6-4.2,10.2c-2.6,2.6-6.3,4.2-10.2,4.2c-3.9,0-7.6-1.6-10.2-4.2
		c-2.6-2.6-4.2-6.3-4.2-10.2s1.6-7.6,4.2-10.2c2.6-2.6,6.3-4.2,10.2-4.2c3.9,0,7.6,1.6,10.2,4.2s4.2,6.3,4.2,10.2H436.6h1.4
		c0-9.4-7.6-17-17-17s-17,7.6-17,17s7.6,17,17,17s17-7.6,17-17H436.6z"/>
	<path fill="#FFFFFF" d="M422.2,305.5v-7.2h2.4l0.4-2.9h-2.9v-1.8c0-0.8,0.3-1.4,1.4-1.4h1.5v-2.4c-0.3,0-1.2-0.1-2.2-0.1
		c-2.2,0-3.7,1.4-3.7,3.7v2h-2.4v2.9h2.4v7.2L422.2,305.5L422.2,305.5z"/>
</g>
</svg>
