<?xml version="1.0" encoding="utf-8"?>
<!-- Generator: Adobe Illustrator 17.1.0, SVG Export Plug-In . SVG Version: 6.00 Build 0)  -->
<!DOCTYPE svg PUBLIC "-//W3C//DTD SVG 1.1//EN" "http://www.w3.org/Graphics/SVG/1.1/DTD/svg11.dtd">
<svg version="1.1" id="Layer_1" xmlns="http://www.w3.org/2000/svg" xmlns:xlink="http://www.w3.org/1999/xlink" x="0px" y="0px"
	 viewBox="144 8 24 28" enable-background="new 144 8 24 28" xml:space="preserve">
<g>
	<path fill="#76808E" d="M145.8,15l0.4,0.7l9.2-5.3c0.2-0.1,0.4-0.2,0.6-0.2s0.4,0,0.6,0.2l9.2,5.3c0.4,0.2,0.6,0.6,0.6,0.9v10.6
		c0,0.4-0.2,0.7-0.6,0.9l-9.2,5.3c-0.2,0.1-0.4,0.2-0.6,0.2s-0.4,0-0.6-0.2l-9.1-5.3c-0.4-0.2-0.6-0.6-0.6-0.9V16.7
		c0-0.4,0.2-0.7,0.6-0.9L145.8,15l-0.4-0.7c-0.9,0.5-1.4,1.5-1.4,2.5v10.6c0,1,0.6,2,1.4,2.5l9.2,5.3c0.4,0.2,0.9,0.4,1.4,0.4
		c0.5,0,1-0.1,1.4-0.4l9.2-5.3c0.9-0.5,1.4-1.5,1.4-2.5V16.7c0-1-0.6-2-1.4-2.5L157.4,9c-0.4-0.2-0.9-0.4-1.4-0.4
		c-0.5,0-1,0.1-1.4,0.4l-9.2,5.3L145.8,15z"/>
	<path fill="#76808E" d="M151.2,16.6v3.9c0.6-0.7,1.3-1.1,2.1-1.1c0.4,0,0.8,0.1,1.1,0.2c0.4,0.2,0.6,0.4,0.7,0.6s0.3,0.5,0.4,0.8
		s0.1,0.7,0.1,1.4v4.1h-1.8v-3.7c0-0.7,0-1.2-0.1-1.4c-0.1-0.2-0.2-0.4-0.4-0.5s-0.4-0.2-0.7-0.2c-0.3,0-0.6,0.1-0.8,0.2
		c-0.2,0.2-0.4,0.4-0.5,0.7c-0.1,0.3-0.2,0.7-0.2,1.3v3.5h-1.8v-10H151.2z"/>
	<path fill="#76808E" d="M158.4,16.6v3.9c0.6-0.7,1.3-1.1,2.1-1.1c0.4,0,0.8,0.1,1.1,0.2c0.4,0.2,0.6,0.4,0.7,0.6
		c0.2,0.2,0.3,0.5,0.4,0.8s0.1,0.7,0.1,1.4v4.1H161v-3.7c0-0.7,0-1.2-0.1-1.4c-0.1-0.2-0.2-0.4-0.4-0.5s-0.4-0.2-0.7-0.2
		c-0.3,0-0.6,0.1-0.8,0.2c-0.2,0.2-0.4,0.4-0.5,0.7c-0.1,0.3-0.2,0.7-0.2,1.3v3.5h-1.8v-10H158.4L158.4,16.6z"/>
</g>
</svg>
