<?xml version="1.0" encoding="utf-8"?>
<!-- Generator: Adobe Illustrator 17.1.0, SVG Export Plug-In . SVG Version: 6.00 Build 0)  -->
<!DOCTYPE svg PUBLIC "-//W3C//DTD SVG 1.1//EN" "http://www.w3.org/Graphics/SVG/1.1/DTD/svg11.dtd">
<svg version="1.1" id="Layer_1" xmlns="http://www.w3.org/2000/svg" xmlns:xlink="http://www.w3.org/1999/xlink" x="0px" y="0px"
	 viewBox="0 0 40 40" enable-background="new 0 0 40 40" xml:space="preserve">
<path fill="#76808E" d="M36.4,8.9L21.6,0.5c-0.9-0.5-2.1-0.5-3.2,0L3.6,8.9C2.7,9.4,2,10.5,2,11.5v16.9c0,1.1,0.5,2.1,1.6,2.7
	l14.8,8.4c0.9,0.5,2.1,0.5,3.2,0l14.8-8.4c0.9-0.5,1.6-1.6,1.6-2.7V11.8C38,10.6,37.5,9.5,36.4,8.9z M19.6,27.4h-2.9v-5.9
	c0-1.2,0-1.9-0.1-2.3c-0.1-0.3-0.3-0.5-0.5-0.8c-0.3-0.1-0.7-0.3-1.1-0.3c-0.5,0-0.9,0.1-1.3,0.4c-0.4,0.3-0.7,0.7-0.8,1.1
	c-0.1,0.5-0.3,1.2-0.3,2.1v5.6H9.6v-16h2.9v6.1c0.9-1.1,2-1.7,3.3-1.7c0.7,0,1.3,0.1,1.9,0.4c0.5,0.3,0.9,0.5,1.2,0.9
	s0.4,0.8,0.5,1.3s0.1,1.2,0.1,2.3C19.6,20.9,19.6,27.4,19.6,27.4z M31.2,27.4h-2.9v-5.9c0-1.2,0-1.9-0.1-2.3
	c-0.1-0.3-0.3-0.5-0.5-0.8c-0.3-0.1-0.7-0.3-1.1-0.3c-0.5,0-0.9,0.1-1.3,0.4c-0.4,0.3-0.7,0.5-0.8,1.1c-0.1,0.5-0.4,1.2-0.4,2.1v5.6
	h-2.9v-16H24l0,0v6.1c0.9-1.1,2-1.7,3.3-1.7c0.7,0,1.3,0.1,1.9,0.4c0.5,0.3,0.9,0.5,1.2,0.9c0.3,0.4,0.4,0.8,0.5,1.3
	s0.1,1.2,0.1,2.3C31.2,20.9,31.2,27.4,31.2,27.4z"/>
</svg>
