<svg version="1.1" xmlns="http://www.w3.org/2000/svg" xmlns:xlink="http://www.w3.org/1999/xlink" style="display:none">
	<defs>
	<symbol id="logo" viewBox="0 0 285 70">
		<g>
			<path class="color" d="M97.6,41.6h-4.2V52h-6.8V17.1h13.3c4.3,0,7.6,1.1,9.9,3.3c2.3,2.2,3.5,5.1,3.5,9c0,3-0.7,5.4-2.1,7.4
				c-1.4,2-3.4,3.3-6,4.1l8.4,10.5V52h-7.6L97.6,41.6z M93.4,35.2h6.2c2.3,0,4-0.4,5.1-1.4c1.1-1,1.7-2.4,1.7-4.4c0-2-0.6-3.4-1.7-4.4
				c-1.1-1-2.8-1.5-5.1-1.5h-6.2V35.2z"/>
			<path class="color" d="M138.6,27.4V52h-5.5l-0.7-3.5h-0.2c-0.6,1.3-1.7,2.3-3,3.1c-1.4,0.7-3,1.1-4.8,1.1c-2.9,0-5.1-0.9-6.8-2.7
				c-1.6-1.8-2.4-4.3-2.4-7.6v-15h6.4v13.4c0,3.9,1.8,5.9,5.1,5.9c1.8,0,3-0.5,4-1.6c1-1.1,1.5-2.5,1.5-4.4V27.4H138.6z"/>
			<path class="color" d="M162.1,28.5c1.8,1.1,3.3,2.7,4.3,4.6c1,2,1.5,4.2,1.5,6.6c0,2.4-0.5,4.6-1.5,6.6c-1,2-2.5,3.5-4.3,4.6
				c-1.8,1.1-3.8,1.7-6,1.7c-1.7,0-3.2-0.3-4.6-1c-1.4-0.7-2.5-1.9-3.1-3h-0.2l-0.7,3.4H142V17.2h6.4v13.7h0.2c0.7-1.3,1.7-2.3,3.1-3
				c1.3-0.7,2.9-1,4.5-1C158.4,26.9,160.3,27.4,162.1,28.5z M159.5,44.8c1.2-1.3,1.8-3,1.8-5c0-2-0.6-3.7-1.8-5c-1.2-1.3-2.9-2-4.8-2
				c-2,0-3.5,0.7-4.7,2c-1.2,1.3-1.8,3-1.8,5c0,2,0.6,3.7,1.8,5c1.2,1.3,2.8,1.9,4.7,1.9C156.7,46.7,158.4,46,159.5,44.8z"/>
			<path class="color" d="M205.9,46.7c-0.5,0-0.9,0-1.4,0c-1.6,0-2.7-0.3-3.4-1c-0.7-0.7-1-1.7-1-3.6v-8.7h5.8v-6H200v-6.1h-6.4v21.6
				c0,3.6,0.8,5.8,2.4,7.4c1.6,1.6,4,2.4,7.2,2.4c1,0,1.9-0.1,2.7-0.3V46.7z"/>
			<path class="color" d="M281.8,29.6c1.6,1.8,2.5,4.3,2.5,7.5V52h-6.4V38.8c0-2.3-0.5-3.4-1.4-4.4c-0.9-1-2.1-1.5-3.7-1.5
				c-1.8,0-3,0.5-4,1.6c-1,1.1-1.4,2.5-1.4,4.6V52h-6.5V17.2h6.4V31h0.2c0.7-1.2,1.6-2.3,3-3.1c1.4-0.7,2.8-1.1,4.6-1.1
				C277.9,26.9,280.1,27.8,281.8,29.6z"/>
			<polygon class="color" points="172.1,61.4 178.9,61.4 192.6,28 192.6,27.4 185.9,27.4 179.5,43.8 179.3,43.8 172.8,27.4 
				166.1,27.4 166.1,28 175.8,51.7 172.1,60.8"/>
			<path class="color" d="M225.4,44.6c-0.3,0.8-0.9,1.5-1.8,2c-1,0.6-2.3,0.9-3.8,0.9c-3.9,0-6.3-2.5-6.7-5.7h18.8
				c0.1-0.7,0.1-1.3,0.1-2c0-2.5-0.5-4.8-1.6-6.7c-1.1-1.9-2.7-3.5-4.5-4.5c-1.9-1.1-4.1-1.6-6.5-1.6c-2.5,0-4.7,0.6-6.6,1.7
				c-1.9,1.1-3.4,2.6-4.4,4.6c-1.1,2-1.6,4.2-1.6,6.7s0.5,4.7,1.6,6.6c1.1,1.9,2.6,3.5,4.5,4.6c2,1.1,4.2,1.7,6.8,1.7
				c3.2,0,5.8-0.8,7.9-2.4c2-1.5,3.3-3.4,3.9-5.7H225.4z M219.6,32c3.3,0,5.7,2.3,6,5.7h-12.3C213.9,33.9,216.2,32,219.6,32z"/>
			<path class="color" d="M252.4,42.8c-0.3,1.2-1,2.1-1.8,2.8c-1,0.8-2.2,1.3-3.7,1.3c-1.9,0-3.4-0.7-4.6-2c-1.2-1.3-1.7-3-1.7-5
				c0-2.1,0.5-3.9,1.6-5.1c1.1-1.3,2.7-2,4.6-2c1.5,0,2.7,0.5,3.8,1.3c0.9,0.7,1.6,1.7,1.9,2.8h6.4c-0.1-1.6-0.7-3.4-1.7-4.8
				c-1.1-1.6-2.6-2.8-4.4-3.7c-1.8-0.9-3.8-1.3-6-1.3c-2.5,0-4.8,0.6-6.7,1.7c-1.9,1.1-3.4,2.7-4.4,4.6c-1.1,2-1.6,4.1-1.6,6.6
				c0,2.4,0.5,4.6,1.6,6.5c1.1,2,2.6,3.5,4.5,4.6c1.9,1.1,4.2,1.7,6.7,1.7c2.2,0,4.2-0.4,6-1.3c1.8-0.9,3.2-2.1,4.3-3.7
				c1-1.4,1.6-3.2,1.7-4.9H252.4z"/>
			<g>
				<path opacity="0.55" fill="#FF4C00" d="M28.9,1.1L3.3,15.9c-1.6,0.9-2.5,1.9-2.5,4.4v29.5c0,1,0.2,1.8,0.5,2.4L31.6,0.4
					C30.7,0.4,29.7,0.6,28.9,1.1z"/>
				<path opacity="0.8" fill="#FF4C00" d="M59.5,15.9L33.9,1.1c-0.7-0.4-1.5-0.6-2.3-0.7L1.3,52.2c0,0,0,0.1,0.1,0.1l60.1-34.7
					C61,16.9,60.3,16.4,59.5,15.9z"/>
				<path fill="#FF4C00" d="M1.4,52.3c0.4,0.8,1.1,1.3,1.9,1.8l25.6,14.8c1.6,0.9,3.5,0.9,5,0l25.6-14.8c1.6-0.9,2.5-2.1,2.5-4.4V20.2
					c0-1.1-0.2-1.9-0.6-2.6L1.4,52.3z"/>
				<polygon fill="#FF4C00" points="61.4,17.6 1.3,52.3 1.4,52.3 61.4,17.6"/>
			</g>
		</g>
	</symbol>
	<symbol id="logoFooter" viewBox="40 7.5 128 29">
		<g>
	<path class="color" d="M52.4,30.1L47,23.3h-3v6.8h-4V7.8h8.4c2.7,0,4.8,0.7,6.3,2.1c1.5,1.4,2.2,3.2,2.2,5.7
		c0,1.9-0.5,3.4-1.4,4.7c-0.8,1.2-2.1,2.1-3.8,2.6l-0.3,0.1l5.6,6.9v0.2L52.4,30.1L52.4,30.1z M44,19.5h4.2c1.6,0,2.7-0.3,3.4-0.9
		c0.8-0.7,1.1-1.7,1.1-3s-0.4-2.3-1.1-3c-0.7-0.6-1.9-1-3.4-1H44V19.5z"/>
	<path class="color" d="M64.4,30.5c-1.8,0-3.2-0.6-4.3-1.7c-1-1.2-1.6-2.7-1.6-4.8v-9.5h3.8V23c0,2.6,1.2,4,3.5,4
		c1.2,0,2-0.3,2.7-1.1c0.7-0.7,1-1.8,1-3v-8.4h3.8v15.7h-3.2l-0.4-2.3h-0.4L69.2,28c-0.4,0.8-1,1.4-1.9,1.9
		C66.5,30.2,65.5,30.5,64.4,30.5z"/>
	<path class="color" d="M84.9,30.5c-1,0-2-0.2-2.9-0.6c-0.9-0.5-1.6-1.2-1.9-1.8l-0.1-0.1h-0.4l-0.5,2.2H76V7.8h3.8v8.9h0.5
		l0.1-0.1c0.5-0.8,1.1-1.4,1.9-1.8c0.8-0.5,1.8-0.6,2.9-0.6c1.4,0,2.6,0.4,3.7,1c1.2,0.8,2.1,1.8,2.7,2.9c0.6,1.2,1,2.7,1,4.2
		c0,1.5-0.3,2.9-1,4.2c-0.6,1.2-1.6,2.2-2.7,2.9S86.3,30.5,84.9,30.5z M84,17.6c-1.3,0-2.4,0.5-3.2,1.4c-0.8,0.9-1.2,2-1.2,3.4
		c0,1.4,0.4,2.5,1.2,3.4c0.8,0.8,1.9,1.3,3.2,1.3c1.4,0,2.5-0.5,3.2-1.3c0.8-0.8,1.2-2,1.2-3.4c0-1.4-0.4-2.5-1.2-3.4
		C86.5,18,85.4,17.6,84,17.6z"/>
	<path class="color" d="M115.5,30.5c-2,0-3.5-0.5-4.5-1.5c-1-1-1.5-2.5-1.5-4.7V10.5h3.8v4h3.8V18h-3.8v5.8c0,1.2,0.2,1.9,0.7,2.5
		c0.5,0.5,1.3,0.7,2.3,0.7c0.3,0,0.5,0,0.7,0v3.4C116.6,30.4,116,30.5,115.5,30.5z"/>
	<path class="color" d="M164.2,30.1v-8.4c0-1.4-0.3-2.2-1-3c-0.6-0.7-1.4-1-2.5-1c-1.2,0-2,0.3-2.7,1.1c-0.6,0.7-1,1.7-1,3.1v8.3
		h-3.8V7.8h3.8v9h0.5l0.1-0.1c0.5-0.8,1.1-1.5,1.9-1.9c0.8-0.5,1.8-0.7,2.9-0.7c1.8,0,3.2,0.6,4.3,1.7c1,1.2,1.6,2.7,1.6,4.7v9.5
		L164.2,30.1L164.2,30.1z"/>
	<polygon class="color" points="95.5,36.2 95.5,36 97.9,30.1 91.6,14.7 91.6,14.5 95.7,14.5 99.9,25.1 100.2,25.1 104.4,14.5 
		108.4,14.5 108.4,14.7 99.6,36.2 	"/>
	<path class="color" d="M126.3,30.5c-1.6,0-3.1-0.3-4.4-1c-1.2-0.7-2.2-1.7-2.9-2.9c-0.6-1.2-1-2.7-1-4.2s0.3-3,1-4.2
		c0.7-1.3,1.6-2.3,2.8-2.9c1.2-0.7,2.7-1,4.2-1c1.5,0,2.9,0.3,4.1,1c1.2,0.7,2.2,1.7,2.9,2.9c0.6,1.2,1,2.7,1,4.3c0,0.3,0,0.7,0,1.1
		h-12.3v0.2c0.3,2.3,2,3.9,4.5,3.9c1,0,1.9-0.2,2.5-0.6c0.5-0.3,1-0.7,1.2-1.2h3.6c-0.4,1.3-1.2,2.5-2.4,3.3
		C130,30,128.3,30.5,126.3,30.5z M126.2,17.1c-2.3,0-3.9,1.4-4.2,3.9v0.2h8.4V21C130,18.6,128.4,17.1,126.2,17.1z"/>
	<path class="color" d="M143.8,30.5c-1.6,0-3.1-0.4-4.3-1.1c-1.2-0.7-2.2-1.7-2.9-2.9s-1-2.7-1-4.2s0.3-2.9,1-4.2
		c0.7-1.3,1.6-2.3,2.8-2.9c1.2-0.7,2.7-1.1,4.3-1.1c1.4,0,2.7,0.3,3.8,0.8s2.1,1.4,2.8,2.3c0.6,0.8,0.9,1.8,1,2.8h-3.8
		c-0.2-0.6-0.6-1.3-1.3-1.8c-0.7-0.6-1.6-0.9-2.5-0.9c-1.2,0-2.3,0.5-3.1,1.4c-0.7,0.8-1.1,2-1.1,3.4c0,1.4,0.4,2.5,1.2,3.4
		c0.8,0.9,1.9,1.4,3.1,1.4c1,0,1.8-0.3,2.5-0.8c0.6-0.5,1-1,1.2-1.8h3.8c-0.1,1-0.5,2.1-1,2.9c-0.7,1-1.6,1.8-2.7,2.3
		C146.5,30.2,145.3,30.5,143.8,30.5z"/>
		</g>
	</symbol>
	<symbol id="menuToggle" viewBox="406.9 290.1 28 15">
		<rect x="407.3" y="290.1" width="27.3" height="2.7"/>
		<rect x="407.3" y="302.4" width="27.3" height="2.7"/>
	</symbol>
	<symbol id="menuClose" viewBox="412.4 289.1 17 17">
		<polygon points="429.4,304.2 422.8,297.6 429.4,291.1 427.3,289.1 420.9,295.6 414.4,289.1 412.4,291.1 418.9,297.6 
	412.4,304.2 414.4,306.1 420.9,299.5 427.3,306.1 "/>
	</symbol>
	<symbol id="arrowRight" viewBox="399.9 282.6 42 30">
		<polygon points="441.9,297.7 426.9,282.6 425,284.6 436.7,296.3 400,296.3 400,299 436.7,299 425,310.7 426.9,312.6 
	"/>
	</symbol>
	<symbol id="fbook" viewBox="0 0 62 70">
		<g>
			<path class="color" d="M57.9,15.3L34.6,1.9c-1.1-0.6-2.4-1-3.6-1c-1.3,0-2.5,0.3-3.6,1L4.1,15.3c-2.2,1.3-3.6,3.7-3.6,6.3v26.9
				c0,2.6,1.4,5,3.6,6.3l23.3,13.4c1.1,0.6,2.4,1,3.6,1c1.3,0,2.5-0.3,3.6-1l23.3-13.4c2.2-1.3,3.6-3.7,3.6-6.3V21.6
				C61.5,19,60.1,16.6,57.9,15.3z M57,48.4c0,1-0.5,1.9-1.4,2.4L32.4,64.3c-0.4,0.2-0.9,0.4-1.4,0.4c-0.5,0-0.9-0.1-1.4-0.4L6.4,50.8
				C5.5,50.3,5,49.4,5,48.4V21.6c0-1,0.5-1.9,1.4-2.4L29.6,5.7c0.4-0.2,0.9-0.4,1.4-0.4c0.5,0,0.9,0.1,1.4,0.4l23.3,13.4
				c0.9,0.5,1.4,1.4,1.4,2.4V48.4z"/>
			<path class="color" d="M27.5,26.6v4.2h-5v5.7h5v14.5h6V36.4h5l0.8-5.7h-5.8v-3.6c0-1.6,0.5-2.8,2.9-2.8l3.1,0v-5.1
				c-0.5-0.1-2.4-0.2-4.5-0.2C30.6,19.1,27.5,21.7,27.5,26.6z"/>
		</g>
	</symbol>
	<symbol id="headhunter" viewBox="0 0 62 70">
		<g>
			<path class="color" d="M5.2,17.2l1.1,1.9L29.6,5.7c0.4-0.2,0.9-0.4,1.4-0.4c0.5,0,0.9,0.1,1.4,0.4l23.3,13.4
				c0.9,0.5,1.4,1.4,1.4,2.4v26.9c0,1-0.5,1.9-1.4,2.4L32.4,64.3c-0.4,0.2-0.9,0.4-1.4,0.4c-0.5,0-0.9-0.1-1.4-0.4L6.4,50.8
				C5.5,50.3,5,49.4,5,48.4V21.6c0-1,0.5-1.9,1.4-2.4L5.2,17.2l-1.1-1.9c-2.2,1.3-3.6,3.7-3.6,6.3v26.9c0,2.6,1.4,5,3.6,6.3l23.3,13.4
				c1.1,0.6,2.4,1,3.6,1c1.3,0,2.5-0.3,3.6-1l23.3-13.4c2.2-1.3,3.6-3.7,3.6-6.3V21.6c0-2.6-1.4-5-3.6-6.3L34.6,1.9
				c-1.1-0.6-2.4-1-3.6-1c-1.3,0-2.5,0.3-3.6,1L4.1,15.3L5.2,17.2z"/>
			<path class="color" d="M18.8,21.2V31c1.5-1.8,3.3-2.7,5.3-2.7c1.1,0,2,0.2,2.9,0.6c0.9,0.4,1.5,0.9,1.9,1.5
				c0.4,0.6,0.7,1.3,0.9,2.1c0.2,0.8,0.2,1.9,0.2,3.5v10.5h-4.6v-9.4c0-1.9-0.1-3.1-0.3-3.6c-0.2-0.5-0.5-0.9-0.9-1.2
				c-0.4-0.3-1-0.4-1.7-0.4c-0.8,0-1.5,0.2-2.1,0.6c-0.6,0.4-1,1-1.3,1.7c-0.3,0.8-0.4,1.9-0.4,3.4l0,8.9h-4.6V21.2H18.8z"/>
			<path class="color" d="M37.1,21.2V31c1.5-1.8,3.3-2.7,5.3-2.7c1.1,0,2,0.2,2.9,0.6c0.9,0.4,1.5,0.9,1.9,1.5
				c0.4,0.6,0.7,1.3,0.9,2.1c0.2,0.8,0.2,1.9,0.2,3.5v10.5h-4.6v-9.4c0-1.9-0.1-3.1-0.3-3.6c-0.2-0.5-0.5-0.9-0.9-1.2
				c-0.4-0.3-1-0.4-1.7-0.4c-0.8,0-1.5,0.2-2.1,0.6c-0.6,0.4-1,1-1.3,1.7c-0.3,0.8-0.4,1.9-0.4,3.4v8.9h-4.6V21.2H37.1L37.1,21.2z"/>
		</g>
	</symbol>
	</defs>
</svg>
