<svg version="1.1" id="Layer_1" xmlns="http://www.w3.org/2000/svg" xmlns:xlink="http://www.w3.org/1999/xlink" x="0px" y="0px"
	 viewBox="403.9 280.6 34 34" enable-background="new 403.9 280.6 34 34" xml:space="preserve">
<g>
	<circle fill="#fff" cx="429.8" cy="288.8" r="2"/>
	<path fill="#fff" d="M428,297.6h-1.4c0,1.5-0.7,3-1.7,4.1c-1,1-2.4,1.7-4.1,1.7c-1.5,0-3-0.7-4.1-1.7c-1-1-1.7-2.4-1.7-4.1
		c0-1.5,0.7-3,1.7-4.1c1-1,2.4-1.7,4.1-1.7c1.5,0,3,0.7,4.1,1.7c1,1,1.7,2.4,1.7,4.1H428h1.4c0-4.6-3.8-8.4-8.4-8.4
		s-8.4,3.8-8.4,8.4c0,4.6,3.8,8.4,8.4,8.4s8.4-3.8,8.4-8.4H428z"/>
	<path fill="#fff" d="M420.9,282v-1.4c-2.1,0-3.2,0-4.2,0c-0.8,0-1.4,0-2.2,0.1c-1.8,0.1-3.1,0.4-4.2,0.8
		c-1.1,0.4-2.2,1.1-3.2,2.1c-1,1-1.7,2.1-2.1,3.2c-0.4,1.1-0.7,2.4-0.8,4.2c0,0.8,0,1.4-0.1,2.2c0,0.8,0,2.1,0,4.2s0,3.2,0,4.2
		c0,0.8,0,1.4,0.1,2.2c0.1,1.8,0.4,3.1,0.8,4.2c0.4,1.1,1.1,2.2,2.1,3.2s2.1,1.7,3.2,2.1c1.1,0.4,2.4,0.7,4.2,0.8
		c0.8,0,1.4,0,2.2,0.1c0.8,0,2.1,0,4.2,0s3.2,0,4.2,0c0.8,0,1.4,0,2.2-0.1c1.8-0.1,3.1-0.4,4.2-0.8c1.1-0.4,2.2-1.1,3.2-2.1
		c1-1,1.7-2.1,2.1-3.2c0.4-1.1,0.7-2.4,0.8-4.2c0-0.8,0-1.4,0.1-2.2c0-0.8,0-2.1,0-4.2s0-3.2,0-4.2c0-0.8,0-1.4-0.1-2.2
		c-0.1-1.8-0.4-3.1-0.8-4.2c-0.4-1.1-1.1-2.2-2.1-3.2s-2.1-1.7-3.2-2.1c-1.1-0.4-2.4-0.7-4.2-0.8c-0.8,0-1.4,0-2.2-0.1
		c-0.8,0-2.1,0-4.2,0V282v1.4c2.1,0,3.2,0,4.1,0s1.4,0,2.2,0.1c1.5,0.1,2.5,0.3,3.4,0.6s1.5,0.7,2.2,1.5c0.7,0.7,1.1,1.4,1.5,2.2
		c0.3,0.8,0.6,1.8,0.6,3.4c0,0.8,0,1.4,0.1,2.2c0,0.8,0,2,0,4.1c0,2.1,0,3.2,0,4.1c0,0.8,0,1.4-0.1,2.2c-0.1,1.5-0.3,2.5-0.6,3.4
		c-0.3,0.8-0.7,1.5-1.5,2.2c-0.7,0.7-1.4,1.1-2.2,1.5c-0.8,0.3-1.8,0.6-3.4,0.6c-0.8,0-1.4,0-2.2,0.1c-0.8,0-2,0-4.1,0s-3.2,0-4.1,0
		s-1.4,0-2.2-0.1c-1.5-0.1-2.5-0.3-3.4-0.6c-0.8-0.3-1.5-0.7-2.2-1.5c-0.7-0.7-1.1-1.4-1.5-2.2c-0.3-0.8-0.6-1.8-0.6-3.4
		c0-0.8,0-1.4-0.1-2.2c0-0.8,0-2,0-4.1c0-2.1,0-3.2,0-4.1c0-0.8,0-1.4,0.1-2.2c0.1-1.5,0.3-2.5,0.6-3.4c0.3-0.8,0.7-1.5,1.5-2.2
		c0.7-0.7,1.4-1.1,2.2-1.5c0.8-0.3,1.8-0.6,3.4-0.6c0.8,0,1.4,0,2.2-0.1c0.8,0,2,0,4.1,0V282z"/>
</g>
</svg>
