<?xml version="1.0" encoding="utf-8"?>
<!-- Generator: Adobe Illustrator 17.1.0, SVG Export Plug-In . SVG Version: 6.00 Build 0)  -->
<!DOCTYPE svg PUBLIC "-//W3C//DTD SVG 1.1//EN" "http://www.w3.org/Graphics/SVG/1.1/DTD/svg11.dtd">
<svg version="1.1" id="Layer_1" xmlns="http://www.w3.org/2000/svg" xmlns:xlink="http://www.w3.org/1999/xlink" x="0px" y="0px"
	 viewBox="0 0 88 88" enable-background="new 0 0 88 88" xml:space="preserve">
<path fill="#4D5A67" d="M44,0C19.7,0,0,19.7,0,44s19.7,44,44,44s44-19.7,44-44S68.3,0,44,0z M44,80C24.1,80,8,63.9,8,44S24.1,8,44,8
	s36,16.1,36,36S63.9,80,44,80z M44,16c-15.5,0-28,12.5-28,28s12.5,28,28,28s28-12.5,28-28S59.5,16,44,16z M44,64c-11,0-20-9-20-20
	s9-20,20-20s20,9,20,20S55,64,44,64z M44,32c-6.6,0-12,5.4-12,12s5.4,12,12,12s12-5.4,12-12S50.6,32,44,32z M44,48c-2.2,0-4-1.8-4-4
	s1.8-4,4-4s4,1.8,4,4S46.2,48,44,48z"/>
</svg>
