<?xml version="1.0" encoding="utf-8"?>
<!-- Generator: Adobe Illustrator 17.1.0, SVG Export Plug-In . SVG Version: 6.00 Build 0)  -->
<!DOCTYPE svg PUBLIC "-//W3C//DTD SVG 1.1//EN" "http://www.w3.org/Graphics/SVG/1.1/DTD/svg11.dtd">
<svg version="1.1" id="Layer_1" xmlns="http://www.w3.org/2000/svg" xmlns:xlink="http://www.w3.org/1999/xlink" x="0px" y="0px"
	 viewBox="0 0 200 70" enable-background="new 0 0 200 70" xml:space="preserve">
<g>
	<path fill="#83929F" d="M20.6,47.5L12.3,37H7.7v10.4H1.5V13.1h13c4.2,0,7.4,1.1,9.7,3.2c2.3,2.1,3.4,5,3.4,8.8
		c0,2.9-0.7,5.3-2.1,7.2c-1.3,1.9-3.2,3.2-5.9,4l-0.4,0.1l8.6,10.7v0.3H20.6z M7.7,31.2h6.4c2.5,0,4.1-0.5,5.2-1.4
		c1.2-1.1,1.7-2.6,1.7-4.6c0-2-0.6-3.5-1.7-4.6c-1.1-1-2.9-1.5-5.2-1.5H7.7V31.2z"/>
	<path fill="#83929F" d="M39,48.1c-2.8,0-5-0.9-6.6-2.6c-1.6-1.8-2.4-4.2-2.4-7.4V23.4h5.8v13.1c0,4,1.9,6.2,5.4,6.2
		c1.8,0,3.1-0.5,4.2-1.7c1.1-1.1,1.6-2.7,1.6-4.6v-13h5.8v24.1h-5L47.2,44h-0.6l-0.1,0.2c-0.6,1.3-1.6,2.2-2.9,2.9
		C42.3,47.7,40.7,48.1,39,48.1z"/>
	<path fill="#83929F" d="M70.7,48.1c-1.6,0-3.1-0.3-4.4-1c-1.4-0.7-2.5-1.9-2.9-2.8l-0.1-0.2h-0.6l-0.7,3.4h-5.1V13.2h5.8v13.7h0.7
		l0.1-0.1c0.7-1.2,1.7-2.2,3-2.8c1.3-0.7,2.8-1,4.4-1c2.1,0,4,0.6,5.7,1.6c1.8,1.2,3.2,2.7,4.2,4.5c1,1.9,1.5,4.1,1.5,6.4
		s-0.5,4.5-1.5,6.4c-1,1.8-2.4,3.4-4.2,4.5C74.8,47.5,72.8,48.1,70.7,48.1z M69.3,28.2c-2,0-3.7,0.7-4.9,2.1
		c-1.2,1.4-1.9,3.1-1.9,5.2c0,2.1,0.6,3.8,1.9,5.2c1.2,1.3,2.9,2,4.9,2c2.1,0,3.8-0.7,5-2c1.2-1.3,1.9-3.1,1.9-5.2
		c0-2.1-0.6-3.9-1.9-5.2C73.1,28.9,71.4,28.2,69.3,28.2z"/>
	<path fill="#83929F" d="M117.7,48.1c-3.1,0-5.4-0.8-7-2.3c-1.6-1.6-2.3-3.8-2.3-7.2V17.3h5.8v6.1h5.8v5.5h-5.8v8.9
		c0,1.9,0.3,3,1.1,3.8c0.7,0.7,2,1.1,3.6,1.1c0.4,0,0.7,0,1.1,0v5.2C119.4,48,118.6,48.1,117.7,48.1z"/>
	<path fill="#83929F" d="M192.7,47.5v-13c0-2.1-0.4-3.4-1.5-4.6c-0.9-1.1-2.2-1.6-3.9-1.6c-1.8,0-3.1,0.5-4.2,1.7
		c-1,1.1-1.5,2.6-1.5,4.8v12.8h-5.9V13.2h5.8V27h0.7l0.1-0.1c0.8-1.3,1.7-2.3,2.9-2.9c1.3-0.7,2.7-1.1,4.4-1.1c2.8,0,5,0.9,6.6,2.6
		c1.6,1.8,2.4,4.2,2.4,7.3v14.6H192.7z"/>
	<polygon fill="#83929F" points="87,56.9 87,56.6 90.7,47.4 80.9,23.7 80.9,23.4 87.2,23.4 93.7,39.8 94.2,39.8 100.7,23.4 
		106.9,23.4 106.9,23.7 93.3,56.9 	"/>
	<path fill="#83929F" d="M134.4,48.1c-2.5,0-4.8-0.5-6.7-1.6c-1.9-1.1-3.4-2.6-4.4-4.4c-1-1.9-1.6-4.1-1.6-6.5s0.5-4.6,1.6-6.5
		c1.1-2,2.5-3.5,4.3-4.5c1.9-1.1,4.1-1.6,6.5-1.6c2.3,0,4.5,0.5,6.3,1.6c1.9,1.1,3.4,2.6,4.4,4.4c1,1.9,1.6,4.1,1.6,6.6
		c0,0.5,0,1.1,0,1.7h-18.9l0,0.3c0.4,3.6,3.1,6,6.9,6c1.6,0,2.9-0.3,3.9-0.9c0.8-0.5,1.5-1.1,1.8-1.9h5.6c-0.6,2-1.8,3.8-3.7,5.1
		C140.1,47.3,137.5,48.1,134.4,48.1z M134.2,27.4c-3.6,0-6,2.2-6.5,6l0,0.3h12.9l0-0.3C140.1,29.8,137.6,27.4,134.2,27.4z"/>
	<path fill="#83929F" d="M161.4,48.1c-2.5,0-4.7-0.6-6.6-1.7c-1.9-1.1-3.4-2.6-4.4-4.5c-1-1.9-1.6-4.1-1.6-6.4s0.5-4.5,1.6-6.4
		c1.1-2,2.5-3.5,4.3-4.5c1.9-1.1,4.1-1.7,6.6-1.7c2.1,0,4.1,0.4,5.9,1.3c1.8,0.9,3.3,2.1,4.3,3.6c0.9,1.3,1.4,2.8,1.6,4.3h-5.9
		c-0.3-1-1-2-2-2.7c-1.1-0.9-2.5-1.4-3.9-1.4c-1.9,0-3.6,0.7-4.8,2.1c-1.1,1.3-1.7,3.1-1.7,5.3c0,2.1,0.6,3.9,1.8,5.2
		c1.3,1.4,2.9,2.1,4.8,2.1c1.5,0,2.8-0.4,3.9-1.3c0.9-0.7,1.6-1.6,1.9-2.7h5.9c-0.2,1.6-0.8,3.2-1.6,4.4c-1.1,1.5-2.5,2.7-4.2,3.6
		C165.5,47.7,163.6,48.1,161.4,48.1z"/>
</g>
</svg>
