<?xml version="1.0" encoding="utf-8"?>
<!-- Generator: Adobe Illustrator 17.1.0, SVG Export Plug-In . SVG Version: 6.00 Build 0)  -->
<!DOCTYPE svg PUBLIC "-//W3C//DTD SVG 1.1//EN" "http://www.w3.org/Graphics/SVG/1.1/DTD/svg11.dtd">
<svg version="1.1" id="Layer_1" xmlns="http://www.w3.org/2000/svg" xmlns:xlink="http://www.w3.org/1999/xlink" x="0px" y="0px"
	 viewBox="0 0 285 70" enable-background="new 0 0 285 70" xml:space="preserve">
<g>
	<path fill="#FFFFFF" d="M106.2,51.7l-8.3-10.4h-4.6v10.4H87V17.4h13c4.2,0,7.4,1.1,9.7,3.2c2.3,2.1,3.4,5,3.4,8.8
		c0,2.9-0.7,5.3-2.1,7.2c-1.3,1.9-3.2,3.2-5.9,4l-0.4,0.1l8.6,10.7v0.3H106.2z M93.3,35.5h6.4c2.5,0,4.1-0.5,5.2-1.4
		c1.2-1.1,1.7-2.6,1.7-4.6c0-2-0.6-3.5-1.7-4.6c-1.1-1-2.9-1.5-5.2-1.5h-6.4V35.5z"/>
	<path fill="#FFFFFF" d="M124.5,52.4c-2.8,0-5-0.9-6.6-2.6c-1.6-1.8-2.4-4.2-2.4-7.4V27.7h5.8v13.1c0,4,1.9,6.2,5.4,6.2
		c1.8,0,3.1-0.5,4.2-1.7c1.1-1.1,1.6-2.7,1.6-4.6v-13h5.8v24.1h-5l-0.7-3.5h-0.6l-0.1,0.2c-0.6,1.3-1.6,2.2-2.9,2.9
		C127.8,52,126.3,52.4,124.5,52.4z"/>
	<path fill="#FFFFFF" d="M156.2,52.4c-1.6,0-3.1-0.3-4.4-1c-1.4-0.7-2.5-1.9-2.9-2.8l-0.1-0.2h-0.6l-0.7,3.4h-5.1V17.5h5.8v13.7h0.7
		L149,31c0.7-1.2,1.7-2.2,3-2.8c1.3-0.7,2.8-1,4.4-1c2.1,0,4,0.6,5.7,1.6c1.8,1.2,3.2,2.7,4.2,4.5c1,1.9,1.5,4.1,1.5,6.4
		s-0.5,4.5-1.5,6.4c-1,1.8-2.4,3.4-4.2,4.5C160.3,51.8,158.4,52.4,156.2,52.4z M154.9,32.5c-2,0-3.7,0.7-4.9,2.1
		c-1.2,1.4-1.9,3.1-1.9,5.2c0,2.1,0.6,3.8,1.9,5.2c1.2,1.3,2.9,2,4.9,2c2.1,0,3.8-0.7,5-2c1.2-1.3,1.9-3.1,1.9-5.2
		c0-2.1-0.6-3.9-1.9-5.2C158.7,33.2,156.9,32.5,154.9,32.5z"/>
	<path fill="#FFFFFF" d="M203.3,52.4c-3.1,0-5.4-0.8-7-2.3c-1.6-1.6-2.3-3.8-2.3-7.2V21.5h5.8v6.1h5.8v5.5h-5.8v8.9
		c0,1.9,0.3,3,1.1,3.8c0.7,0.7,2,1.1,3.6,1.1c0.4,0,0.7,0,1.1,0v5.2C205,52.3,204.1,52.4,203.3,52.4z"/>
	<path fill="#FFFFFF" d="M278.3,51.7v-13c0-2.1-0.4-3.4-1.5-4.6c-0.9-1.1-2.2-1.6-3.9-1.6c-1.8,0-3.1,0.5-4.2,1.7
		c-1,1.1-1.5,2.6-1.5,4.8v12.8h-5.9V17.5h5.8v13.8h0.7l0.1-0.1c0.8-1.3,1.7-2.3,2.9-2.9c1.3-0.7,2.7-1.1,4.4-1.1
		c2.8,0,5,0.9,6.6,2.6c1.6,1.8,2.4,4.2,2.4,7.3v14.6H278.3z"/>
	<polygon fill="#FFFFFF" points="172.6,61.2 172.6,60.9 176.3,51.7 166.5,27.9 166.5,27.7 172.7,27.7 179.3,44.1 179.8,44.1 
		186.2,27.7 192.4,27.7 192.4,27.9 178.9,61.2 	"/>
	<path fill="#FFFFFF" d="M219.9,52.4c-2.5,0-4.8-0.5-6.7-1.6c-1.9-1.1-3.4-2.6-4.4-4.4c-1-1.9-1.6-4.1-1.6-6.5s0.5-4.6,1.6-6.5
		c1.1-2,2.5-3.5,4.3-4.5c1.9-1.1,4.1-1.6,6.5-1.6c2.3,0,4.5,0.5,6.3,1.6c1.9,1.1,3.4,2.6,4.4,4.4c1,1.9,1.6,4.1,1.6,6.6
		c0,0.5,0,1.1,0,1.7H213l0,0.3c0.4,3.6,3.1,6,6.9,6c1.6,0,2.9-0.3,3.9-0.9c0.8-0.5,1.5-1.1,1.8-1.9h5.6c-0.6,2-1.8,3.8-3.7,5.1
		C225.6,51.6,223,52.4,219.9,52.4z M219.7,31.7c-3.6,0-6,2.2-6.5,6l0,0.3h12.9l0-0.3C225.6,34,223.1,31.7,219.7,31.7z"/>
	<path fill="#FFFFFF" d="M247,52.4c-2.5,0-4.7-0.6-6.6-1.7c-1.9-1.1-3.4-2.6-4.4-4.5c-1-1.9-1.6-4.1-1.6-6.4s0.5-4.5,1.6-6.4
		c1.1-2,2.5-3.5,4.3-4.5c1.9-1.1,4.1-1.7,6.6-1.7c2.1,0,4.1,0.4,5.9,1.3c1.8,0.9,3.3,2.1,4.3,3.6c0.9,1.3,1.4,2.8,1.6,4.3h-5.9
		c-0.3-1-1-2-2-2.7c-1.1-0.9-2.5-1.4-3.9-1.4c-1.9,0-3.6,0.7-4.8,2.1c-1.1,1.3-1.7,3.1-1.7,5.3c0,2.1,0.6,3.9,1.8,5.2
		c1.3,1.4,2.9,2.1,4.8,2.1c1.5,0,2.8-0.4,3.9-1.3c0.9-0.7,1.6-1.6,1.9-2.7h5.9c-0.2,1.6-0.8,3.2-1.6,4.4c-1.1,1.5-2.5,2.7-4.2,3.6
		C251.1,51.9,249.1,52.4,247,52.4z"/>
	<g>
		<path opacity="0.55" fill="#FF4C00" d="M29,1.1L3.4,15.9c-1.6,0.9-2.5,1.9-2.5,4.4v29.5c0,1,0.2,1.8,0.5,2.4L31.8,0.4
			C30.8,0.4,29.9,0.6,29,1.1z"/>
		<path opacity="0.8" fill="#FF4C00" d="M59.6,15.9L34.1,1.1c-0.7-0.4-1.5-0.6-2.3-0.7L1.4,52.2c0,0,0,0.1,0.1,0.1l60.1-34.7
			C61.2,16.9,60.5,16.4,59.6,15.9z"/>
		<path fill="#FF4C00" d="M1.5,52.3c0.4,0.8,1.1,1.3,1.9,1.8L29,68.9c1.6,0.9,3.5,0.9,5,0l25.6-14.8c1.6-0.9,2.5-2.1,2.5-4.4V20.2
			c0-1.1-0.2-1.9-0.6-2.6L1.5,52.3z"/>
		<polygon fill="#FF4C00" points="61.6,17.6 1.5,52.3 1.5,52.3 61.6,17.6 		"/>
	</g>
</g>
</svg>
