<?xml version="1.0" encoding="utf-8"?>
<!-- Generator: Adobe Illustrator 17.1.0, SVG Export Plug-In . SVG Version: 6.00 Build 0)  -->
<!DOCTYPE svg PUBLIC "-//W3C//DTD SVG 1.1//EN" "http://www.w3.org/Graphics/SVG/1.1/DTD/svg11.dtd">
<svg version="1.1" id="Layer_1" xmlns="http://www.w3.org/2000/svg" xmlns:xlink="http://www.w3.org/1999/xlink" x="0px" y="0px"
	 viewBox="0 0 40 40" enable-background="new 0 0 40 40" xml:space="preserve">
<path fill="#76808E" d="M36.4,8.9L21.6,0.5c-0.9-0.5-2.1-0.5-3.2,0L3.6,8.9C2.7,9.4,2,10.5,2,11.5v16.9c0,1.1,0.5,2.1,1.6,2.7
	l14.8,8.4c0.9,0.5,2.1,0.5,3.2,0l14.8-8.4c0.9-0.5,1.6-1.6,1.6-2.7V11.8C38,10.6,37.5,9.5,36.4,8.9z M27.5,20.9L16,26.6
	c-0.5,0.3-1.1-0.1-1.1-0.7V14.3c0-0.5,0.5-0.8,1.1-0.7l11.5,5.7C28,19.8,28,20.6,27.5,20.9z"/>
</svg>
