<?xml version="1.0" encoding="utf-8"?>
<!-- Generator: Adobe Illustrator 17.1.0, SVG Export Plug-In . SVG Version: 6.00 Build 0)  -->
<!DOCTYPE svg PUBLIC "-//W3C//DTD SVG 1.1//EN" "http://www.w3.org/Graphics/SVG/1.1/DTD/svg11.dtd">
<svg version="1.1" id="Layer_1" xmlns="http://www.w3.org/2000/svg" xmlns:xlink="http://www.w3.org/1999/xlink" x="0px" y="0px"
	 viewBox="88 -5 80 54" enable-background="new 88 -5 80 54" xml:space="preserve">
<g>
	<path fill="#435465" d="M109.7,23.6c0.8,2.1,2.2,4.2,2.9,5.3c1.2-1.6,4-6.3,4.8-12.5c0.5-3.4,0.5-6.4-0.6-11.3
		c-1.1-4.8-3.9-8.8-4.2-9.5c-0.6,0.8-2.8,4.4-4,8.2c-0.8,2.9-1.2,5.7-1.2,8.4c0,1.2,0.1,2.4,0.2,3.6
		C108.1,19.7,109.7,23.6,109.7,23.6z M112.6,27.7c-0.5-1-1.3-3-1.5-6.1c0-2.9,1.2-5.5,1.5-5.9c0.2,0.5,1.3,2.7,1.5,5.7
		C114.2,24.3,113.2,26.6,112.6,27.7z M108.7,11.6c0.1-2.5,0.7-5.1,1-6.3c1.2-4,2.7-6.5,2.9-6.9c0.2,0.4,2.1,3.5,2.9,6.8
		c0.8,3.3,1.1,6.4,1.1,8.4c0,1.8-0.2,3.9-0.6,5c0.1-2.1-0.1-4.8-0.6-7.2c-0.5-2.2-1.7-5.9-2.8-7.6c-1,1.6-2.2,4.8-2.8,7.6
		c-0.6,2.8-0.6,6.2-0.6,7.2C109,17.6,108.6,14.6,108.7,11.6z"/>
	<path fill="#435465" d="M112.6,30h-6.5v5.7l0,0c1.9-1.9,5.2-1.9,7.3,0c1.9,1.9,1.9,5.2,0,7.3l0,0l0,0c-2.1,1.9-4.6,3-7.2,3
		s-5.2-1-7.3-3c-3.5-3.5-3.9-9-1.2-12.8c0.4-0.5,0.7-1.1,1.2-1.5c2.1-1.9,4.6-3,7.3-3V12.3v-0.5C96.1,11.8,88,19.9,88,30
		s8.1,18.2,18.2,18.2c5.2,0,9.9-2.2,13.2-5.7V30h-4.8H112.6z"/>
	<path fill="#435465" d="M131.3,30L129,42.6c0,0,0,0,0-0.1l-1.7-9.3c-0.2-1-0.4-2.2-0.6-3.2h-4.7v18.2h3.6c0-1.1,0-11.3,0-11.4
		c0.1,0,0.1,0.5,0.2,0.6l1.3,7.9c0.1,1,0.4,1.9,0.5,2.9h2.9c0.1-1,0.4-1.9,0.5-2.9l1.2-7.2c0-0.2,0.1-1.2,0.2-1.3
		c0.1,0.1,0,10.3,0,11.4h3.6V30L131.3,30z"/>
	<path fill="#435465" d="M143.8,30H141c-2.1,0-2.8,1.1-2.8,3.2v12c0,1.9,0.7,3.2,2.7,3.2h3c1.8,0,2.7-1.1,2.7-3V33
		C146.5,31.1,145.7,30,143.8,30z M142.5,46.1c-0.2,0.1-0.6,0-0.6-0.1c-0.1-0.2-0.1-0.6-0.1-0.8V33.6c0-0.7-0.1-1.3,0.4-1.6
		c0.2-0.1,0.6,0,0.7,0.2c0.1,0.2,0.1,0.6,0.1,0.8v11.5C142.9,45.2,143,46,142.5,46.1z"/>
	<polygon fill="#435465" points="165.8,38.7 167.5,30 164,30 162.7,37.9 162.7,30 158.9,30 158.9,48.2 162.5,48.2 162.7,39.8 
		163.2,42 164.4,48.2 168,48.2 	"/>
	<path fill="#435465" d="M157,33.4c0-4-2.1-3.4-5.5-3.4c-1,0-1.7,0.1-2.2,0.7c-0.5,0.5-0.7,1.2-0.7,2.2c0,1,0,1.9,0,2.9h3.6
		c0-0.8,0-1.8,0-2.7c0-0.5-0.1-0.8,0.2-1.1c0.4-0.2,0.7,0,0.8,0.4c0.1,0.4,0,4.6,0,5.3h-2.9v2.1h2.9c0,0.7,0,5.5,0,5.8
		c-0.1,0.4-0.6,0.7-1,0.4c-0.2-0.2-0.2-0.8-0.2-1.3c0-1,0-1.9,0-2.9h-3.6c0,1.6-0.2,4.4,0.5,5.5c0.4,0.6,1.1,1,2.1,1s1.9,0,2.9,0
		c2.2,0,2.9-0.8,3-2.9c0-1.9,0-4,0-5.9C157,37.4,157,35.3,157,33.4z"/>
</g>
</svg>
