<?xml version="1.0" encoding="utf-8"?>
<!-- Generator: Adobe Illustrator 17.1.0, SVG Export Plug-In . SVG Version: 6.00 Build 0)  -->
<!DOCTYPE svg PUBLIC "-//W3C//DTD SVG 1.1//EN" "http://www.w3.org/Graphics/SVG/1.1/DTD/svg11.dtd">
<svg version="1.1" id="Layer_1" xmlns="http://www.w3.org/2000/svg" xmlns:xlink="http://www.w3.org/1999/xlink" x="0px" y="0px"
	 viewBox="0 0 88 80" enable-background="new 0 0 88 80" xml:space="preserve">
<path fill="#4D5A67" d="M20,80h48L44,48L20,80z M36,72l8-10.7L52,72H36z M76,0H12C5.4,0,0,5.4,0,12v40c0,6.6,5.4,12,12,12h10l6-8H12
	c-2.2,0-4-1.8-4-4V12c0-2.2,1.8-4,4-4h64c2.2,0,4,1.8,4,4v40c0,2.2-1.8,4-4,4H60l6,8h10c6.6,0,12-5.4,12-12V12C88,5.4,82.6,0,76,0z"
	/>
</svg>
