<?xml version="1.0" encoding="utf-8"?>
<!-- Generator: Adobe Illustrator 17.1.0, SVG Export Plug-In . SVG Version: 6.00 Build 0)  -->
<!DOCTYPE svg PUBLIC "-//W3C//DTD SVG 1.1//EN" "http://www.w3.org/Graphics/SVG/1.1/DTD/svg11.dtd">
<svg version="1.1" id="Layer_1" xmlns="http://www.w3.org/2000/svg" xmlns:xlink="http://www.w3.org/1999/xlink" x="0px" y="0px"
	 viewBox="2418 443 82 30" enable-background="new 2418 443 82 30" xml:space="preserve">
<g>
	<polygon fill="#435465" points="2418,458.9 2437.5,458.9 2438.9,455.1 2419.4,455.1 	"/>
	<polygon fill="#435465" points="2420.1,453.2 2439.6,453.2 2441.1,449.3 2421.5,449.3 	"/>
	<polygon fill="#435465" points="2422.2,447.3 2441.8,447.3 2443.2,443.5 2423.6,443.5 	"/>
	<path fill="#435465" d="M2497.7,460c-1.1-0.9-2.6-1.6-5.7-1.6h-3.7v-5.1h9.2l1.3-3.9h-15.1v23.2l7.5,0c3.1,0,4.6-0.3,6.1-1.3
		c1.8-1.3,2.9-3.5,2.7-5.8C2500.1,463.4,2499.3,461.4,2497.7,460z M2494.5,467.6c-0.7,0.8-1.7,1.2-2.7,1h-3.5v-6.5h3.5
		c0.8-0.1,1.6,0.1,2.2,0.6c0.8,0.6,1.3,1.6,1.2,2.6C2495.2,466.2,2495,466.9,2494.5,467.6z"/>
	<polygon fill="#435465" points="2463.6,453.2 2470.3,453.2 2470.3,472.5 2475,472.5 2475,453.2 2480.9,453.2 2482.2,449.3 
		2463.6,449.3 	"/>
	<path fill="#435465" d="M2461.3,461.5c-0.7-0.5-1.4-0.9-2.2-1.2v-0.1l0,0c0.7-0.3,1.3-0.7,1.8-1.2c1-1,1.5-2.4,1.5-3.8
		c0-2.9-1.8-4.8-4.5-5.5c-1.2-0.3-2.3-0.4-3.5-0.3h-7.4v23.2h8.4c1.1,0.1,2.3-0.1,3.4-0.3c2.8-0.7,4.5-3,4.5-6.2
		C2463.4,464.3,2462.6,462.6,2461.3,461.5z M2451.7,453.1h2.5c0.6,0,1.2,0,1.8,0.2c1.2,0.3,1.9,1.4,1.8,2.6c0.1,1.2-0.6,2.3-1.8,2.6
		c-0.5,0.1-1.1,0.2-1.6,0.1h-2.6V453.1z M2457.4,468c-0.7,0.5-1.6,0.8-2.5,0.7h-3.2v-6.1l3.1,0c1.4,0,2.3,0.2,3,1
		c0.4,0.6,0.6,1.3,0.6,2C2458.4,466.5,2458,467.4,2457.4,468z"/>
</g>
</svg>
