<?xml version="1.0" encoding="utf-8"?>
<!-- Generator: Adobe Illustrator 17.1.0, SVG Export Plug-In . SVG Version: 6.00 Build 0)  -->
<!DOCTYPE svg PUBLIC "-//W3C//DTD SVG 1.1//EN" "http://www.w3.org/Graphics/SVG/1.1/DTD/svg11.dtd">
<svg version="1.1" id="Layer_1" xmlns="http://www.w3.org/2000/svg" xmlns:xlink="http://www.w3.org/1999/xlink" x="0px" y="0px"
	 viewBox="124 5.5 44 33" enable-background="new 124 5.5 44 33" xml:space="preserve">
<path fill="#4D5A67" d="M146,5.5c-14.7,0-22,16.6-22,16.6s7.3,16.4,22,16.4S168,22,168,22S160.7,5.5,146,5.5z M146,34.8
	c-9.7,0-15.8-9.1-17.9-12.8c2.1-3.7,8.2-12.9,17.9-12.9c9.7,0,15.8,9.2,17.9,12.8C161.8,25.7,155.7,34.8,146,34.8z M146,14.7
	c-4,0-7.3,3.3-7.3,7.3s3.3,7.3,7.3,7.3s7.3-3.3,7.3-7.3S150,14.7,146,14.7z M146,25.7c-2,0-3.7-1.6-3.7-3.7s1.7-3.7,3.7-3.7
	s3.7,1.6,3.7,3.7S148,25.7,146,25.7z"/>
</svg>
