<svg width="114" height="32" viewBox="0 0 114 32" fill="none" xmlns="http://www.w3.org/2000/svg">
<path d="M54.1776 3.93216C53.4203 2.77962 52.3877 1.89826 50.9421 1.28809C49.5653 0.677925 47.9131 0.406738 46.0544 0.406738H38.5508V21.6271H42.8189V15.5932H46.0544C47.9131 15.5932 49.5653 15.2542 50.9421 14.7118C52.3189 14.1017 53.4203 13.2203 54.1776 12.0678C54.9348 10.9152 55.279 9.55928 55.279 7.99996C55.279 6.44064 54.866 5.0847 54.1776 3.93216ZM50.9421 7.99996C50.9421 9.2881 50.529 10.2372 49.6341 10.983C48.808 11.661 47.5001 12 45.8479 12H42.7501V3.99996H45.8479C47.5001 3.99996 48.808 4.33894 49.6341 5.01691C50.529 5.69487 50.9421 6.71182 50.9421 7.99996Z" fill="#435465"/>
<path d="M61.5435 18.0339V12.6101H70.4239V9.08471H61.5435V3.93216H71.7319V0.406738H57.2754V21.6271H72.145V18.0339H61.5435Z" fill="#435465"/>
<path d="M88.6667 16.8814C87.4276 17.6949 86.0508 18.1695 84.4674 18.1695C83.0218 18.1695 81.7826 17.8305 80.6123 17.2203C79.5109 16.6102 78.616 15.7288 77.9964 14.6441C77.3768 13.5593 77.0326 12.339 77.0326 10.9153C77.0326 9.55932 77.3768 8.27119 77.9964 7.18644C78.616 6.1017 79.5109 5.22034 80.6123 4.61017C81.7138 4 83.0218 3.66102 84.4674 3.66102C85.9131 3.66102 87.2899 4.0678 88.3913 4.74576L90.8696 1.83051C90.3189 1.42373 89.6993 1.15254 89.0797 0.881356C87.6341 0.271187 85.9819 0 84.2609 0C82.1268 0 80.1305 0.474576 78.3406 1.42373C76.6196 2.37288 75.1739 3.66102 74.2102 5.28814C73.1776 6.91525 72.6957 8.81356 72.6957 10.9153C72.6957 13.0169 73.1776 14.8475 74.2102 16.5424C75.1739 18.1695 76.6196 19.5254 78.3406 20.4068C80.0616 21.3559 82.058 21.8305 84.2609 21.8305C85.9819 21.8305 87.6341 21.4915 89.0797 20.9492C89.7681 20.678 90.4566 20.2712 91.0073 19.8644L88.6667 16.8814Z" fill="#435465"/>
<path d="M112.485 5.35601C111.453 3.72889 110.076 2.37296 108.355 1.4916C106.634 0.542447 104.638 0.0678711 102.435 0.0678711C100.232 0.0678711 98.2355 0.542447 96.5144 1.4916C94.7934 2.44075 93.3478 3.72889 92.384 5.4238C91.3514 7.05092 90.8695 8.94923 90.8695 10.9831C90.8695 13.017 91.3514 14.9153 92.384 16.5424C93.4166 18.2374 94.7934 19.5255 96.5144 20.4747C98.2355 21.4238 100.232 21.8984 102.435 21.8984C104.638 21.8984 106.634 21.4238 108.355 20.4747C110.145 19.5255 111.522 18.2374 112.485 16.6102C113.518 14.9831 114 13.0848 114 10.9831C114 8.94923 113.518 7.05092 112.485 5.35601ZM109.732 10.9831C109.732 12.3391 109.388 13.5594 108.768 14.7119C108.148 15.7967 107.254 16.678 106.152 17.2882C105.051 17.8984 103.812 18.2374 102.435 18.2374C101.058 18.2374 99.8188 17.8984 98.7173 17.2882C97.6159 16.678 96.721 15.7967 96.1014 14.7119C95.4818 13.6272 95.1376 12.4069 95.1376 10.9831C95.1376 9.62719 95.4818 8.40686 96.1014 7.25431C96.721 6.16957 97.6159 5.28821 98.7173 4.67804C99.8188 4.06787 101.058 3.72889 102.435 3.72889C103.812 3.72889 105.051 4.06787 106.152 4.67804C107.254 5.28821 108.148 6.16957 108.768 7.25431C109.388 8.40686 109.732 9.62719 109.732 10.9831Z" fill="#435465"/>
<path d="M42.1305 28.2713H39.9276V32.0001H38.5508V27.1865H42.1305V28.2713Z" fill="#435465"/>
<path d="M50.6667 31.0509H48.6015L48.1884 32.0001H46.7428L48.9457 27.1865H50.3225L52.5254 32.0001H51.0798L50.6667 31.0509ZM50.2537 30.034L49.6341 28.4747L49.0145 30.034H50.2537V30.034Z" fill="#435465"/>
<path d="M61.0615 27.3899C61.4057 27.5255 61.6123 27.7289 61.8188 28.0001C62.0253 28.2713 62.0942 28.6103 62.0942 28.9492C62.0942 29.2882 62.0253 29.6272 61.8188 29.8984C61.6123 30.1696 61.4057 30.373 61.0615 30.5086C60.7173 30.6442 60.3731 30.7119 59.8913 30.7119H59.0652V32.0001H57.6884V27.1865H59.9601C60.3043 27.1865 60.7173 27.2543 61.0615 27.3899ZM60.442 29.4916C60.5797 29.356 60.6485 29.2204 60.6485 28.9492C60.6485 28.7458 60.5797 28.5425 60.442 28.4069C60.3043 28.2713 60.0978 28.2035 59.8224 28.2035H59.0652V29.6272H59.8224C60.0978 29.6272 60.3043 29.6272 60.442 29.4916Z" fill="#435465"/>
<path d="M70.837 31.0509H68.7718L68.3587 32.0001H66.9131L69.116 27.1865H70.4928L72.6957 32.0001H71.25L70.837 31.0509ZM70.424 30.034L69.8044 28.4747L69.1848 30.034H70.424Z" fill="#435465"/>
<path d="M83.0217 27.1865V32.0001H81.6449V30.1018H79.7862V32.0001H78.4094V27.1865H79.7862V28.9492H81.6449V27.1865H83.0217Z" fill="#435465"/>
<path d="M93.1413 28.2713H91.6268V32.0001H90.25V28.2713H88.7355V27.1865H93.1413V28.2713Z" fill="#435465"/>
<path d="M98.5797 27.1865H99.8877V30.034L101.953 27.1865H103.261V32.0001H101.884V29.1526L99.8877 32.0001H98.5797V27.1865Z" fill="#435465"/>
<path d="M112.417 27.1865V32.0001H111.04V30.7797H110.283L109.457 32.0001H108.011L108.975 30.5764C108.63 30.4408 108.424 30.2374 108.217 29.9662C108.08 29.695 107.942 29.356 107.942 29.017C107.942 28.6103 108.011 28.3391 108.217 28.0679C108.424 27.7967 108.63 27.5933 108.975 27.4577C109.319 27.3221 109.663 27.2543 110.145 27.2543H112.417V27.1865ZM109.388 28.9492C109.388 29.2204 109.457 29.356 109.594 29.4916C109.732 29.6272 109.938 29.695 110.214 29.695H111.04V28.2035H110.214C109.663 28.2713 109.388 28.4747 109.388 28.9492Z" fill="#435465"/>
<path d="M32.0797 21.6948L31.8732 19.7287C31.4601 15.9999 30.221 13.0168 28.3623 10.7118C26.6413 8.61006 24.4384 7.05073 21.6848 5.96599V0.338867L19.6884 0.542257C15.9022 0.949037 12.8732 2.16938 10.5326 3.99988C8.39855 5.6948 6.81522 7.86429 5.71377 10.5762H0L0.206522 12.5423C0.619565 16.2711 1.8587 19.2541 3.71739 21.5592C5.43841 23.6609 7.6413 25.2202 10.3949 26.305V31.9321L12.3913 31.7287C16.1775 31.3219 19.2065 30.1016 21.5471 28.2711C23.6812 26.5762 25.2645 24.4067 26.3659 21.6948H32.0797V21.6948ZM19.413 25.5592C17.9674 26.7117 16.1775 27.5253 13.9746 27.9999V16.4745H10.3949V22.644C8.81159 21.8304 7.50362 20.8134 6.47101 19.5253C5.30072 18.1016 4.47464 16.3389 3.99275 14.1694H15.7645V10.7118H9.5C10.3261 9.15243 11.3587 7.86429 12.6667 6.84734C14.1123 5.6948 15.9022 4.88124 18.1051 4.40666V16.1355H21.6159V9.83039C23.1993 10.644 24.5072 11.6609 25.5399 12.949C26.7101 14.3728 27.5362 16.1355 28.0181 18.305H16.3841V21.7626H22.5109C21.7536 23.2541 20.721 24.5423 19.413 25.5592Z" fill="#435465"/>
</svg>
