<svg width="98" height="27" viewBox="0 0 98 27" fill="none" xmlns="http://www.w3.org/2000/svg">
<g clip-path="url(#clip0)">
<path d="M24.0506 5.24585C24.6884 6.07499 25.2283 6.97578 25.6595 7.93013L13.4295 16.9955L8.31824 13.7737V9.89775L13.4295 13.1195L24.0506 5.24585Z" fill="#435465"/>
<path d="M3.10177 13.5C3.10177 13.326 3.10599 13.1533 3.11443 12.9815L0.0168698 12.8289C0.00632676 13.0515 3.74325e-06 13.2763 3.74325e-06 13.5031C-0.00131418 15.2755 0.345392 17.0307 1.02024 18.668C1.69509 20.3054 2.68479 21.7926 3.93257 23.0444L6.12975 20.8361C5.16925 19.8742 4.40728 18.7309 3.88764 17.4719C3.36799 16.2129 3.10093 14.863 3.10177 13.5Z" fill="#435465"/>
<path d="M13.4266 3.11805C13.5995 3.11805 13.7713 3.12442 13.9421 3.1329L14.0971 0.0171322C13.875 0.00653079 13.6515 0.00123072 13.4266 0.00123072C11.6631 -0.00093172 9.91661 0.347191 8.28735 1.02561C6.65808 1.70403 5.17814 2.69938 3.9325 3.95451L6.12967 6.16385C7.08633 5.19772 8.22349 4.43126 9.47576 3.90855C10.728 3.38585 12.0706 3.11719 13.4266 3.11805Z" fill="#435465"/>
<path d="M13.4266 23.8821C13.2537 23.8821 13.0818 23.8821 12.91 23.8683L12.755 26.983C12.9778 26.9943 13.2017 27 13.4266 27C15.1893 27.0018 16.9349 26.6535 18.5633 25.9749C20.1917 25.2963 21.6707 24.3008 22.9154 23.0457L20.7224 20.8374C19.7656 21.803 18.6286 22.569 17.3765 23.0916C16.1245 23.6141 14.7822 23.8828 13.4266 23.8821Z" fill="#435465"/>
<path d="M19.2464 4.92969L21.8569 2.99493C19.4709 1.05217 16.4925 -0.00539288 13.4224 2.06807e-05V3.1179C15.5013 3.11531 17.5321 3.74707 19.2464 4.92969Z" fill="#435465"/>
<path d="M26.8523 13.4998C26.8539 12.6887 26.7834 11.879 26.6414 11.0806L23.7516 13.2221C23.7516 13.3143 23.7516 13.4065 23.7516 13.4998C23.7523 14.9504 23.4499 16.385 22.864 17.7105C22.2781 19.036 21.4217 20.2229 20.3503 21.1943L22.4347 23.5108C23.8275 22.2465 24.9405 20.7019 25.7015 18.9774C26.4626 17.2528 26.8546 15.3866 26.8523 13.4998Z" fill="#435465"/>
<path d="M13.4267 23.882C11.984 23.8824 10.5572 23.5783 9.23883 22.9891C7.92048 22.4 6.73986 21.539 5.77343 20.4619L3.47083 22.5568C4.72804 23.9575 6.26401 25.0768 7.97913 25.8423C9.69424 26.6076 11.5502 27.002 13.4267 26.9998V23.882Z" fill="#435465"/>
<path d="M6.50298 5.80519L4.41967 3.48877C3.02647 4.75286 1.91308 6.29729 1.15168 8.0219C0.390299 9.7465 -0.0020758 11.6128 8.25855e-06 13.4997H3.10178C3.10114 12.0492 3.40358 10.6146 3.98949 9.28911C4.57541 7.96363 5.43173 6.77668 6.50298 5.80519Z" fill="#435465"/>
<path d="M77.4803 7.7204L81.3219 4.90674H68.465V21.8144H81.3219V19.0008H72.1336V14.6698H79.9716V11.8562H72.1336V7.7204H77.4803Z" fill="#435465"/>
<path d="M59.814 11.4933H55.3504V7.71919H62.4742L66.3135 4.89697H51.684V21.8047H59.3419C63.6353 21.8047 66.0993 19.8701 66.0993 16.4963C66.0993 13.2687 63.8675 11.4933 59.814 11.4933ZM59.1768 18.9901H55.3504V14.3052H59.1768C61.4989 14.3052 62.5877 15.0903 62.5877 16.6477C62.5877 18.205 61.4292 18.9901 59.1768 18.9901Z" fill="#435465"/>
<path d="M90.7727 4.9043H83.7743V21.8119H87.4424V17.0223H90.7727C95.2379 17.0223 98 14.6865 98 10.9543C98 7.22214 95.2379 4.9043 90.7727 4.9043ZM90.6954 14.2065H87.4424V7.72011H90.6954C93.044 7.72011 94.3402 8.87262 94.3402 10.9646C94.3402 13.0565 93.044 14.2065 90.6954 14.2065Z" fill="#435465"/>
<path d="M46.1792 17.8218C45.2316 18.3319 44.1699 18.596 43.0924 18.5898C39.8674 18.5898 37.5279 16.3009 37.5279 13.149C37.5279 9.99709 39.8674 7.70322 43.0924 7.70322C44.2554 7.68358 45.3943 8.03418 46.3426 8.70385L48.9086 6.82519L48.735 6.70261C47.2382 5.39433 45.2383 4.70142 42.9491 4.70142C40.4661 4.70142 38.2146 5.53191 36.6071 7.04282C35.7943 7.82076 35.1515 8.75692 34.7187 9.79287C34.2859 10.8288 34.0723 11.9423 34.0915 13.0639C34.0743 14.1969 34.2869 15.3218 34.7165 16.3714C35.1461 17.4209 35.784 18.3736 36.5921 19.1726C38.2071 20.7436 40.4535 21.6091 42.9189 21.6091C45.4949 21.6091 47.7464 20.716 49.2709 19.0901L46.9741 17.3891L46.1792 17.8218Z" fill="#435465"/>
</g>
<defs>
<clipPath id="clip0">
<rect width="98" height="27" fill="white"/>
</clipPath>
</defs>
</svg>
