<svg width="57" height="57" viewBox="0 0 57 57" fill="none" xmlns="http://www.w3.org/2000/svg">
<g clip-path="url(#clip0)">
<path d="M56.79 33.4199H0V36.7499H56.79V33.4199Z" fill="#435465"/>
<path d="M0 56.8601H3.48V53.0901H23.37V40.0801H0V56.8601ZM3.46999 43.4101H19.89V49.7701H3.46999V43.4101Z" fill="#435465"/>
<path d="M26.76 53.0901H39.92V56.8601H43.55V53.0901H56.78V40.0801H26.76V53.0901V53.0901ZM43.55 43.4101H53.31V49.7701H43.55V43.4101ZM30.24 43.4101H39.93V49.7701H30.24V43.4101V43.4101Z" fill="#435465"/>
<path d="M30.13 0H16.77V30.14H30.13V0ZM26.65 26.79H20.27V3.34H26.65V26.79Z" fill="#435465"/>
<path d="M37.0401 10.02L43.42 3.34V30.14H46.91V10.02L53.3 3.34V30.14H56.7901V0H51.89L46.91 5.19V0H42.0101L33.55 8.76V30.14H37.0401V10.02Z" fill="#435465"/>
<path d="M9.87 30.14H13.36V26.8V0H8.46L0 8.76V26.8V30.14H3.49H9.87ZM3.49 10.02L9.87 3.33V26.78H3.49V10.02Z" fill="#435465"/>
</g>
<defs>
<clipPath id="clip0">
<rect width="56.79" height="56.86" fill="white"/>
</clipPath>
</defs>
</svg>
