<?xml version="1.0" encoding="utf-8"?>
<!-- Generator: Adobe Illustrator 17.1.0, SVG Export Plug-In . SVG Version: 6.00 Build 0)  -->
<!DOCTYPE svg PUBLIC "-//W3C//DTD SVG 1.1//EN" "http://www.w3.org/Graphics/SVG/1.1/DTD/svg11.dtd">
<svg version="1.1" id="Layer_1" xmlns="http://www.w3.org/2000/svg" xmlns:xlink="http://www.w3.org/1999/xlink" x="0px" y="0px"
	 viewBox="0 0 96 73" enable-background="new 0 0 96 73" xml:space="preserve">
<path fill="#4D5A67" d="M60,0.5c-15.7,0-29,10-33.9,24H24l0,0c-13.3,0-24,10.7-24,24c0,13.3,10.7,24,24,24c0,0,0.1,0,0.1,0H60
	c19.9,0,36-16.1,36-36C96,16.6,79.9,0.5,60,0.5z M60,64.5H24c-8.8,0-16-7.2-16-16s7.2-16,16-16h8.3c1.9-13.6,13.6-24,27.7-24
	c15.5,0,28,12.5,28,28C88,52,75.5,64.5,60,64.5z"/>
</svg>
