<svg width="89" height="74" viewBox="0 0 89 74" fill="none" xmlns="http://www.w3.org/2000/svg">
<g clip-path="url(#clip0)">
<path d="M70.0536 33.4422L70.1739 32.2141L71.5549 32.2997C71.5521 32.2085 71.5373 32.1809 71.5373 32.1809C71.4934 32.1235 71.3396 31.9688 71.0536 31.7678L70.2211 31.1256L70.3419 29.6758L70.5829 29.8486L70.4992 28.6649L71.9674 28.5349L70.3978 27.7605L70.3254 26.6528L74.2436 26.3241L74.325 27.5111L72.8312 27.6412L74.4276 28.415L74.4994 29.5238L70.5881 29.8514L71.3869 30.4243C71.6962 30.6461 71.8734 30.8121 71.9224 30.8605C71.9965 30.748 72.0854 30.6529 72.1873 30.5774C72.3919 30.4255 72.6414 30.3427 72.8881 30.3427C72.9252 30.3427 72.9628 30.345 72.9998 30.3489C73.2613 30.3748 73.4852 30.4547 73.6829 30.5938C73.8829 30.735 74.0151 30.9348 74.0789 31.1898C74.1256 31.3525 74.1359 31.6007 74.1091 32.0115L74.0037 33.7225L70.0536 33.4422ZM72.9514 32.4044L72.9719 32.1641C72.9707 31.9986 72.9804 31.8556 72.9867 31.7543C72.9884 31.725 72.9901 31.6997 72.9913 31.6789C72.981 31.6434 72.9759 31.6384 72.9679 31.6305C72.9559 31.6198 72.9218 31.6035 72.883 31.6035C72.8386 31.6035 72.8038 31.6085 72.7691 31.6204C72.7531 31.6418 72.748 31.6564 72.744 31.6721C72.7343 31.7076 72.7115 31.823 72.6864 32.1646L72.6671 32.3824L72.9514 32.4044ZM16.3617 33.6392C15.9458 33.6392 15.5829 33.4974 15.3123 33.2295C15.0661 33.0077 14.914 32.6712 14.857 32.2091H14.5152L14.4736 30.9973H14.8331C14.8895 30.5212 15.0433 30.1756 15.2992 29.9454C15.5476 29.6747 15.9207 29.5272 16.3891 29.5272C16.4096 29.5255 16.4466 29.5244 16.4837 29.5244C16.8876 29.5244 17.2466 29.655 17.5223 29.9026C17.7838 30.1384 17.9462 30.4863 18.0072 30.9393L18.4259 30.9157V32.1663H18.0191C17.977 32.6323 17.8254 32.9852 17.5662 33.2182C17.2876 33.4923 16.9104 33.6364 16.4546 33.6364C16.4347 33.6381 16.3982 33.6392 16.3617 33.6392ZM16.0108 32.2051C16.029 32.2597 16.0541 32.3025 16.086 32.334C16.1264 32.3734 16.2096 32.4258 16.4768 32.4258C16.6221 32.4258 16.7281 32.3926 16.7908 32.3284C16.8261 32.2924 16.8494 32.2451 16.8654 32.1928L16.0108 32.2051ZM16.3897 30.739C16.1999 30.739 16.0569 30.7846 15.9908 30.9714L16.8369 30.9596C16.8295 30.9422 16.8215 30.9241 16.813 30.9067C16.7816 30.8318 16.7423 30.7919 16.723 30.784C16.6985 30.7739 16.6267 30.739 16.3897 30.739ZM16.5406 29.4501C16.4626 29.4501 16.3822 29.4461 16.3002 29.4394C15.8461 29.3842 15.5573 29.3015 15.3225 29.1614C15.1208 29.0488 14.9527 28.9154 14.816 28.7595C14.6787 28.5709 14.5801 28.3998 14.5072 28.231C14.4206 27.9507 14.395 27.6755 14.42 27.3828C14.4685 26.8262 14.6867 26.3889 15.0861 26.0472C15.4268 25.7776 15.8524 25.6448 16.3583 25.6448C16.4398 25.6448 16.5235 25.6482 16.6096 25.6555C17.2181 25.7028 17.7092 25.924 18.0294 26.2943C18.3741 26.686 18.5182 27.1504 18.4687 27.7132C18.4191 28.2738 18.1923 28.7178 17.7941 29.033C17.4733 29.3071 17.0489 29.4501 16.5406 29.4501ZM16.2934 26.8971C16.0843 26.8971 15.9185 26.9416 15.7857 27.0327C15.6644 27.1279 15.5943 27.2702 15.5789 27.4717C15.5624 27.6665 15.608 27.8168 15.7151 27.9226C15.8473 28.0683 16.0677 28.1511 16.3988 28.1877C16.4244 28.1888 16.4637 28.1899 16.5019 28.1899C16.7469 28.1899 16.9355 28.1415 17.0796 28.0419C17.2203 27.944 17.2933 27.8106 17.3098 27.6215C17.3263 27.4132 17.2819 27.2809 17.1514 27.1521C17.0118 27.0142 16.7754 26.9258 16.5036 26.9095C16.4198 26.901 16.3549 26.8971 16.2934 26.8971ZM70.2793 25.0825L71.7093 24.7353L71.5338 24.0064L70.1192 24.3503L69.7967 23.1576L69.8599 23.1419L69.55 22.2566L70.1642 21.7365L69.8531 20.8467L69.0384 20.8247L68.7654 19.9872C68.7449 19.9788 68.7244 19.9692 68.7045 19.9596C68.5227 19.8685 68.3586 19.7261 68.2287 19.5465C68.1928 19.4846 68.1706 19.4469 68.141 19.3957C68.0664 19.2679 67.949 19.0676 67.8117 18.7952L67.1314 17.5581L70.6148 15.7367L71.384 17.1534C71.5224 17.405 71.5931 17.5896 71.6432 17.7365C71.6917 17.8806 71.731 18.0404 71.6979 18.2402C71.7019 18.4248 71.6056 18.5953 71.5219 18.7186C71.4313 18.8689 71.2991 18.9888 71.127 19.0732C70.9846 19.1554 70.8336 19.197 70.6684 19.197C70.6211 19.197 70.5727 19.1936 70.5225 19.1863C70.5197 19.1863 70.5163 19.1863 70.5134 19.1863C70.4787 19.1863 70.4451 19.1841 70.412 19.179C70.3972 19.2578 70.3744 19.3343 70.3436 19.4064C70.3106 19.4919 70.2644 19.5724 70.2058 19.6462L72.8249 19.7565L73.1952 20.7876L70.6707 22.9432L73.6123 22.2228L73.9331 23.4137L72.6386 23.7385L72.8266 24.4685L74.0932 24.1448L74.4168 25.3381L70.6 26.2999L70.2793 25.0825ZM68.8896 18.4344L69.0007 18.6207C69.0383 18.686 69.0634 18.7321 69.0845 18.7591C69.1164 18.7974 69.1358 18.816 69.1865 18.8284C69.2144 18.8284 69.2469 18.8194 69.2737 18.8064C69.3067 18.7906 69.3272 18.7704 69.3426 18.7377L69.3415 18.7327L69.3631 18.6815C69.3517 18.6257 69.2851 18.485 69.2087 18.3224L69.142 18.1811L69.023 17.9655L68.729 18.1186L68.8896 18.4344ZM70.3266 18.0016C70.3568 18.0348 70.3841 18.0477 70.3921 18.0494C70.408 18.0511 70.4217 18.0517 70.4331 18.0517C70.4473 18.0517 70.4593 18.0505 70.4696 18.0488C70.5066 18.0184 70.5168 18.0027 70.5174 18.0021C70.5134 18.0021 70.5146 17.9774 70.4952 17.9306C70.4809 17.8896 70.4416 17.8001 70.2457 17.4387L70.1989 17.3464L70.02 17.4432L70.0952 17.5896C70.1448 17.6796 70.1909 17.7584 70.2274 17.822C70.2719 17.8974 70.3043 17.9565 70.3266 18.0016ZM14.7562 24.9531L15.0382 23.7587L16.3355 24.0627L16.5235 23.3321L15.2308 23.0282L15.5498 21.8091L18.6778 22.5965L17.9416 22.305L18.0898 21.9532C17.9012 21.772 17.6995 21.6313 17.4653 21.5153C17.1753 21.3628 16.7343 21.141 16.1828 20.9446L15.5852 20.6699L16.67 18.0438L19.2697 19.0794L19.3803 18.7946L21.1231 19.5139L20.6787 20.5214L20.0081 20.2647L19.4315 21.6881L20.1141 21.9493L19.6754 22.9911L19.3427 22.8593L19.0447 23.9642L17.6243 23.5983L17.4368 24.3278L18.8857 24.6964L18.5638 25.8868L14.7562 24.9531ZM17.0922 20.0058C17.7194 20.2602 18.2151 20.5191 18.5724 20.778L18.7991 20.2276L17.2648 19.5983L17.0922 20.0058ZM20.4109 17.9138C20.0588 17.9138 19.6896 17.8057 19.3136 17.5929C18.7723 17.2766 18.4208 16.8827 18.2653 16.4211C18.1268 15.9073 18.1935 15.4412 18.4641 14.9797C18.7427 14.5385 19.0629 14.279 19.4481 14.1783C19.5763 14.14 19.713 14.1203 19.8571 14.1203C19.995 14.1203 20.142 14.1383 20.3072 14.176L20.6007 14.243L20.2343 15.4908L19.9466 15.3844C19.8908 15.3636 19.8418 15.3534 19.7967 15.3534C19.7563 15.3534 19.7181 15.3619 19.6765 15.3793C19.574 15.4227 19.4925 15.4936 19.4401 15.5848C19.3711 15.7227 19.3558 15.8667 19.3996 16.0136C19.4606 16.1611 19.6372 16.33 19.9016 16.4769C20.252 16.6812 20.4531 16.711 20.542 16.711C20.5636 16.711 20.5841 16.7093 20.6035 16.7054C20.7642 16.6767 20.8701 16.5996 20.9619 16.4476C21.0114 16.3615 21.0268 16.2742 21.0114 16.151C20.9869 16.062 20.9015 15.9315 20.7647 15.797L20.5534 15.5887L21.4872 14.7467L21.6792 14.9527C21.9971 15.2932 22.1612 15.6 22.2113 15.9478C22.241 16.3159 22.1527 16.6783 21.9578 17.0138C21.7071 17.4612 21.3163 17.7562 20.8308 17.8625C20.7009 17.8952 20.5568 17.9138 20.4109 17.9138ZM67.7148 16.9018C67.5997 16.9018 67.4846 16.89 67.3724 16.8669C66.9058 16.7943 66.483 16.505 66.1645 16.0339C65.854 15.5234 65.7572 15.0467 65.8603 14.5649C65.964 14.1 66.2956 13.6695 66.7941 13.3492C67.1662 13.1235 67.4715 13.0042 67.7348 12.9806C67.8179 12.9597 67.9308 12.9468 68.0441 12.9468C68.1569 12.9468 68.2703 12.9597 68.3905 12.9856C68.5882 13.0346 68.7637 13.1049 68.9512 13.2096C69.1893 13.3655 69.3699 13.558 69.5545 13.8434C69.8571 14.3178 69.9585 14.8024 69.8554 15.2853C69.7545 15.7621 69.4429 16.1662 68.9033 16.5219C68.4897 16.7757 68.0926 16.9018 67.7148 16.9018ZM68.0909 14.1805C67.9296 14.1805 67.7165 14.2548 67.4898 14.3893C67.2402 14.5666 67.0944 14.736 67.0499 14.9088C67.0004 15.1069 67.0209 15.2566 67.1172 15.3928C67.2294 15.5516 67.361 15.6354 67.5422 15.6653C67.5718 15.6698 67.6009 15.6726 67.6299 15.6726C67.7957 15.6726 67.9866 15.5994 68.2128 15.4497C68.4743 15.2943 68.639 15.1154 68.688 14.9386C68.7318 14.7799 68.6999 14.6201 68.5911 14.4507C68.4378 14.2351 68.2914 14.1985 68.1951 14.1906C68.1433 14.1822 68.1176 14.1805 68.0909 14.1805ZM22.3771 14.9285C21.9225 14.9285 21.4695 14.7546 21.0297 14.4118C20.7169 14.1541 20.5072 13.9126 20.3824 13.6689C20.2662 13.4404 20.2018 13.2383 20.179 13.0323C20.1551 12.8483 20.1716 12.6445 20.2292 12.4149C20.3181 12.1222 20.4559 11.8757 20.6434 11.6675C20.9955 11.2195 21.4416 10.9724 21.9584 10.9459C21.9994 10.9414 22.0558 10.9386 22.1128 10.9386C22.5577 10.9386 23.0124 11.1215 23.4272 11.4671C23.8955 11.8307 24.1753 12.286 24.2271 12.7768C24.304 13.2518 24.1542 13.7404 23.7918 14.1743C23.4015 14.637 22.9862 14.8756 22.4837 14.9246L22.3771 14.9285ZM21.9641 12.1363C21.7943 12.1549 21.6553 12.2337 21.5385 12.3772C21.4171 12.5269 21.3704 12.6834 21.3994 12.8427C21.4211 12.9715 21.4855 13.1652 21.7983 13.4072C22.0518 13.6042 22.2427 13.6959 22.4005 13.6959C22.6198 13.679 22.7731 13.603 22.8985 13.4635C23.0107 13.3239 23.0574 13.1674 23.0284 13.0081C22.9953 12.8111 22.85 12.6096 22.6073 12.4222C22.3851 12.2365 22.1652 12.1402 21.9641 12.1363ZM64.7043 13.7415L65.0176 12.6935L63.9482 12.8466L62.9888 11.7857L62.6475 11.4767L62.9546 10.718L62.2578 10.0758L61.5371 10.4422L60.5554 9.55292L61.8635 8.92874C61.8202 8.93549 61.7763 8.93887 61.7302 8.93887C61.6903 8.93887 61.6499 8.93605 61.6083 8.92986C61.6026 8.92986 61.5969 8.92986 61.5923 8.92986C61.4299 8.92986 61.2664 8.88821 61.1291 8.80548C60.9861 8.73569 60.765 8.58541 60.528 8.39405L60.4078 8.30512L59.6181 9.27995L58.6188 8.52969L61.0539 5.46396L62.133 6.31045C62.46 6.5474 62.664 6.74665 62.762 6.84289L62.7859 6.86597L62.8116 6.90199C62.9603 7.13781 63.0292 7.36351 63.0292 7.61284C63.0292 7.87231 62.9392 8.11545 62.7369 8.4008C62.6674 8.48129 62.6019 8.54883 62.5358 8.6068L64.3755 7.72935L65.1806 8.49198L63.9579 11.5949L65.3692 11.4041L65.9856 9.27207L66.9633 10.3555L66.6779 11.2797L67.6299 11.1153L68.6019 12.2348L66.3429 12.5387L65.7076 14.8497L64.7043 13.7415ZM61.5843 7.71753C61.5963 7.71753 61.6071 7.71697 61.6191 7.71528C61.6613 7.6922 61.6829 7.67306 61.7085 7.63986C61.7393 7.60609 61.7593 7.58583 61.7593 7.52898C61.7593 7.49802 61.7484 7.4772 61.7427 7.4727L61.7034 7.44343L61.6761 7.40291C61.6601 7.38152 61.5912 7.31679 61.3667 7.14457L61.3331 7.12037L61.1001 7.4226L61.1781 7.48733C61.349 7.60496 61.4767 7.67757 61.5496 7.71584C61.561 7.71697 61.5724 7.71753 61.5843 7.71753ZM22.1145 9.87035L23.0398 9.0368L24.9427 11.0461L25.4897 10.5424L23.5833 8.50662L24.5069 7.67306L26.4035 9.697L26.5973 9.50508L27.0701 9.99474L24.8139 7.15582L25.7671 6.41964L26.6947 7.59765L26.4884 5.87032L27.3624 5.18648L29.3759 7.71865L28.8911 4.17451L29.8659 3.64264L32.1996 5.53431L32.1848 5.4921L32.5899 5.35871C32.6121 5.35139 32.6309 5.34351 32.6463 5.33619C32.6417 5.321 32.6354 5.30242 32.6286 5.2816L32.4161 4.75535L31.6355 2.71622L34.3544 1.66935L35.7879 5.31087L34.6199 5.74875L33.6114 3.17267L33.2001 3.32408L33.6046 4.4019C33.7202 4.67825 33.8217 4.96529 33.8957 5.22363C33.9345 5.47071 33.9026 5.67783 33.8108 5.85906C33.694 6.05268 33.5077 6.19395 33.2462 6.29694C33.2462 6.29694 33.0559 6.35604 33.0252 6.36561L31.9415 6.93688L31.3313 6.41964L30.4977 6.87722L30.6288 7.6573L29.7195 8.1526L29.7952 8.24771L28.8415 8.98333L27.927 7.83178L28.1185 9.5349L27.2661 10.2002L27.8923 10.8491L27.0633 11.6247L26.5597 11.103L24.8054 12.7059L22.1145 9.87035ZM56.8839 7.37871L58.2416 4.95685L57.4873 4.54654L57.4628 4.70132L56.1997 4.46043L56.272 4.17282C56.2976 4.07095 56.2868 3.99384 56.2355 3.90435C56.2019 3.83963 56.1512 3.76365 56.0054 3.6916C55.9512 3.67134 55.8783 3.65671 55.8042 3.65671C55.7302 3.65671 55.6578 3.67134 55.5815 3.70173C55.4464 3.7704 55.2909 3.96683 55.1673 4.24543C54.9804 4.65967 54.9827 4.85047 55.0174 4.93771C55.0698 5.12288 55.145 5.21181 55.2955 5.28723C55.3479 5.30467 55.4088 5.31818 55.4613 5.31818C55.4977 5.31818 55.5336 5.31143 55.5729 5.29679C55.7 5.26359 55.806 5.17635 55.9279 5.02045L56.117 4.77899L57.0526 5.62211L56.8748 5.82923C56.5785 6.17425 56.2618 6.387 55.9324 6.46241C55.827 6.48605 55.7176 6.49844 55.6071 6.49844C55.3576 6.49844 55.0961 6.43596 54.8288 6.3127C54.3628 6.11796 54.0397 5.79096 53.8517 5.3165C53.6933 4.84541 53.7395 4.34787 53.9873 3.78278C54.23 3.23121 54.5878 2.84736 55.051 2.64249C55.2852 2.55187 55.5108 2.5091 55.7342 2.5091C55.9985 2.5091 56.2618 2.56932 56.5153 2.68751C56.942 2.86143 57.2617 3.16986 57.4252 3.57285C57.5072 3.75464 57.5425 3.95501 57.5317 4.18633L57.9328 3.51656L60.7696 5.06209L60.205 6.0493L59.3304 5.57371L57.9721 7.97587L56.8839 7.37871ZM34.8489 1.42396L36.0574 1.1054L36.4072 2.4016L37.0066 2.23894C37.2094 2.18603 37.3991 2.15958 37.5723 2.15958C37.8105 2.15958 38.0236 2.20911 38.2036 2.30704C38.5118 2.5181 38.6976 2.77194 38.799 3.09838C38.8628 3.40625 38.8525 3.64489 38.7745 3.87565C38.6941 4.0884 38.566 4.26175 38.3791 4.41428C38.1836 4.54485 37.9489 4.64054 37.676 4.70864L35.8728 5.19211L34.8489 1.42396ZM36.7821 3.78503L37.137 3.68822C37.3535 3.64432 37.4458 3.59029 37.4698 3.57454L37.5108 3.54752L37.5586 3.5357C37.5757 3.50024 37.5814 3.46309 37.5706 3.42032C37.5575 3.37586 37.5376 3.35165 37.5324 3.34771C37.4789 3.33364 37.4527 3.32408 37.3866 3.32408C37.329 3.32408 37.2299 3.33139 37.0846 3.36741L36.7034 3.48111L36.7821 3.78503ZM50.8047 4.85385C50.6469 4.85385 50.4805 4.83471 50.3102 4.79644C49.7512 4.67093 49.3359 4.38614 49.0767 3.94994C48.8106 3.50362 48.7491 2.98863 48.8926 2.41961C48.9564 2.09936 49.0966 1.78924 49.2943 1.53653C49.4139 1.36993 49.5689 1.21628 49.7478 1.0902C49.9489 0.987204 50.129 0.905594 50.3472 0.851562C50.4777 0.835803 50.57 0.830176 50.6651 0.830176C50.8548 0.830176 51.0332 0.851562 51.2092 0.894338C51.7493 1.01535 52.1704 1.29676 52.4524 1.72902C52.7139 2.14157 52.7715 2.67288 52.6216 3.26948C52.4963 3.86383 52.1995 4.31691 51.7659 4.56906C51.4947 4.75479 51.1659 4.85385 50.8047 4.85385ZM50.7859 1.98341C50.6685 1.98341 50.5694 2.01606 50.4822 2.08247C50.3062 2.18941 50.1956 2.3909 50.1261 2.70102C50.0543 3.00326 50.0663 3.21545 50.1637 3.39218C50.2543 3.54245 50.3899 3.64151 50.5734 3.68654C50.6298 3.70061 50.6839 3.70736 50.7352 3.70736C50.8514 3.70736 50.9591 3.6719 51.0645 3.5993C51.2047 3.49011 51.3175 3.27455 51.3864 2.9678C51.4571 2.67288 51.4485 2.44831 51.3619 2.25808C51.2896 2.14269 51.158 2.0532 50.9608 2.00424C50.9027 1.99073 50.8412 1.98341 50.7859 1.98341ZM38.6252 0.51499L39.8712 0.356271L40.0256 1.65753L40.7737 1.57142L40.6199 0.27635L41.8625 0.118196L42.3491 3.99553L41.1025 4.11429L40.9281 2.69145L40.1584 2.77926L40.3333 4.22348L39.1123 4.38445L38.6252 0.51499ZM46.0479 3.96458L46.5344 0.121009L49.353 0.445199L49.2225 1.56917L47.6221 1.37443L47.2939 4.12329L46.0479 3.96458ZM44.1768 4.00229C43.6287 4.00229 43.1553 3.80642 42.8077 3.43664C42.4568 3.06349 42.291 2.57326 42.3155 1.97891C42.3155 1.60519 42.3741 1.29057 42.4944 1.02998C42.6015 0.820045 42.7297 0.642754 42.8812 0.493604C43.0231 0.353459 43.1957 0.241454 43.4088 0.152527C43.6629 0.0517803 43.9421 0 44.2207 0C44.8195 0.0258902 45.2833 0.216127 45.612 0.566207C45.9562 0.906157 46.1259 1.3885 46.1259 2.03351C46.1009 2.66331 45.9163 3.13496 45.5602 3.48673C45.2411 3.82668 44.7734 4.00229 44.1768 4.00229ZM44.1546 1.14423C44.015 1.14423 43.8874 1.20277 43.7638 1.32434C43.6475 1.45435 43.5854 1.67667 43.5854 1.99073C43.5683 2.29128 43.6265 2.51135 43.7638 2.67964C43.868 2.79502 44.0099 2.86143 44.203 2.87888C44.3648 2.87775 44.517 2.81415 44.6554 2.67851C44.7688 2.55131 44.8366 2.33068 44.856 1.99692C44.8554 1.70538 44.7944 1.47236 44.6742 1.31984C44.5682 1.20277 44.4292 1.14705 44.2213 1.14705L44.1546 1.14423Z" fill="#435465"/>
<path d="M16.9481 38.3176L16.0422 38.576L16.3293 37.6929L15.4639 37.2482L16.3293 36.8059L16.0359 35.9059L16.9515 36.1957L17.3965 35.3796L17.8426 36.198L18.7775 35.9115L18.4858 36.8064L19.3507 37.2482L18.4858 37.6929L18.7713 38.5703L17.846 38.3159L17.3965 39.1416L16.9481 38.3176Z" fill="#435465"/>
<path d="M70.5772 38.3244L69.6668 38.6143L69.9568 37.6935L69.0902 37.2483L69.9522 36.8076L69.6611 35.9442L70.5733 36.2026L71.0217 35.3792L71.4706 36.2048L72.4044 35.9499L72.1122 36.811L72.9366 37.2483L72.1082 37.6901L72.3976 38.6081L71.4678 38.3222L71.0217 39.1422L70.5772 38.3244Z" fill="#435465"/>
<path d="M44.3734 50.9194C32.444 50.9194 22.7389 41.3231 22.7389 29.5273C22.7389 17.7186 32.444 8.11108 44.3734 8.11108H44.7243V14.8392H44.3734C36.1872 14.8392 29.5274 21.4282 29.5274 29.5273C29.5274 37.613 36.1872 44.1919 44.3734 44.1919H44.7243V50.8986H44.4885C44.4588 50.9098 44.4201 50.9194 44.3734 50.9194Z" fill="#435465"/>
<path d="M46.4536 44.0573L46.6992 44.023C48.3543 43.7945 49.9428 43.2806 51.4201 42.4955L51.6332 42.3824L55.8095 47.7563L55.5331 47.9178C52.8337 49.5005 49.8846 50.4657 46.7681 50.7888L46.4536 50.822V44.0573V44.0573ZM53.1892 41.4126L53.4199 41.2415C54.4347 40.4907 55.3605 39.6048 56.1718 38.608L56.3148 38.4324L62.4886 41.4227L62.3 41.6918C61.0004 43.5412 59.4108 45.1853 57.5751 46.5788L57.3495 46.7505L53.1892 41.4126ZM57.3569 36.9162L57.5033 36.6578C58.5317 34.8433 59.163 32.781 59.3299 30.6952L59.3504 30.4357H66.1766L66.1601 30.7323C65.9874 33.8667 65.122 36.8689 63.5865 39.6554L63.4555 39.893L57.3569 36.9162ZM59.3482 28.6184L59.3294 28.3566C59.2268 26.9254 58.8872 25.484 58.3198 24.0724L58.2229 23.8304L64.3346 20.8586L64.4525 21.1321C65.4342 23.4071 66.0085 25.8256 66.1606 28.32L66.1789 28.6184H59.3482ZM57.2674 21.9933C56.5028 20.7354 55.5479 19.5922 54.4307 18.596L54.2352 18.4221L58.3659 13.0921L58.5938 13.2835C60.5076 14.8887 62.1131 16.7984 63.3643 18.9607L63.5142 19.2196L57.4025 22.215L57.2674 21.9933ZM52.5613 17.1743C50.7837 16.0459 48.756 15.2973 46.6986 15.0097L46.4536 14.9753V8.21069L46.7681 8.24277C50.2863 8.60355 53.7082 9.83896 56.6635 11.8162L56.9131 11.9833L52.7818 17.3139L52.5613 17.1743Z" fill="#435465"/>
<path d="M44.4395 41.5109C37.7501 41.5109 32.3079 36.1353 32.3079 29.5277C32.3079 22.9077 37.7501 17.522 44.4395 17.522H44.7244L44.7677 17.8034V21.5023H44.4828C39.9721 21.5023 36.3377 25.1022 36.3377 29.5277C36.3377 33.9403 39.9721 37.5306 44.4395 37.5306H44.7244L44.7677 37.812V41.5109H44.4395Z" fill="#435465"/>
<path d="M44.5711 35.5405C41.2267 35.5405 38.5056 32.8428 38.5056 29.5272C38.5056 26.2104 41.2262 23.5122 44.5711 23.5122H44.856L44.8771 23.7936V25.7405H44.5922C42.4699 25.7405 40.7607 27.4391 40.7607 29.5272C40.7607 31.6023 42.4699 33.2903 44.5711 33.2903H44.856L44.8771 33.5717V35.5405H44.5711V35.5405Z" fill="#435465"/>
<path d="M46.4968 17.6792L46.8358 17.7434C52.5396 18.8257 56.6788 23.782 56.6788 29.5279C56.6788 35.262 52.539 40.2082 46.8353 41.2894L46.4968 41.3535V17.6792Z" fill="#435465"/>
<path d="M44.505 31.9708C43.1399 31.9708 42.03 30.875 42.03 29.527C42.03 28.1667 43.1399 27.0596 44.505 27.0596H44.7899L44.8332 27.341V31.9708H44.505Z" fill="#435465"/>
<path d="M43.3792 59.2378L43.4225 57.8814C43.3507 57.8871 43.308 57.9045 43.2778 57.9197C43.2578 57.9383 43.1023 58.088 42.8972 58.3733L42.3041 59.2131L41.5201 59.1703L41.5298 59.2091L40.9481 59.1393L40.8643 59.1343L40.8677 59.1292L40.1977 59.0482L40.0216 58.2641L39.1032 58.1279L38.73 58.8433L37.4225 58.6424L37.4914 58.5202L36.655 58.2777L36.4727 57.1728L36.4516 57.1306L36.1605 58.151L34.9566 57.7931L35.6203 55.5305L34.4073 55.3757L34.4848 55.069C34.5145 54.9524 34.4638 54.8337 34.4404 54.7881C34.3891 54.7155 34.3207 54.6592 34.2222 54.6221C34.1453 54.5911 34.0786 54.5776 34.0131 54.5776C33.9396 54.5776 33.8684 54.5956 33.7943 54.6322C33.7282 54.6688 33.5744 54.7971 33.4023 55.1849C33.2371 55.6031 33.2565 55.813 33.2832 55.9003C33.3396 56.0365 33.4217 56.1192 33.5675 56.171C33.6484 56.2115 33.6878 56.2222 33.7288 56.2222C33.7652 56.2222 33.8028 56.2143 33.8393 56.1986C33.9225 56.1732 34.0268 56.1181 34.1777 55.9064L34.3561 55.656L35.3309 56.4603L35.16 56.6753C34.8871 57.0186 34.5988 57.2274 34.2535 57.3327C34.1105 57.3659 33.9829 57.3799 33.8553 57.3799C33.6228 57.3799 33.3835 57.3327 33.1448 57.2387C32.6554 57.0349 32.3329 56.7141 32.1529 56.256C31.9711 55.8226 31.9928 55.3217 32.2207 54.7723C32.2412 54.7178 32.2634 54.6654 32.2862 54.6142L31.2971 56.2976L30.2527 55.7207L30.9889 54.4684L29.4785 55.2659L28.5264 54.7234L30.3758 51.5327L28.2541 54.4296L27.2918 53.7277L28.1424 52.5683L26.5551 53.2071L25.6469 52.5621L26.4947 51.4145L26.3044 51.5276C25.9893 51.7156 25.6651 51.8107 25.3404 51.8107C25.2988 51.8107 25.2572 51.809 25.2162 51.8062C24.8219 51.746 24.4892 51.5732 24.2037 51.2901C23.8516 50.9682 23.6608 50.5297 23.6608 50.0316C23.6608 49.7238 23.7519 49.4198 23.9331 49.1238L23.8026 49.184C23.5354 49.3073 23.2739 49.3697 23.0244 49.3697C22.9144 49.3697 22.8044 49.3579 22.6985 49.3337C22.3264 49.2482 22.0142 49.0456 21.7703 48.7326C21.4382 48.3533 21.29 47.9109 21.3413 47.4291C21.3943 47.0982 21.5265 46.7982 21.7367 46.5286C21.4889 46.6214 21.2581 46.6659 21.0337 46.6659C20.9186 46.6659 20.8029 46.6541 20.6901 46.6304C20.1938 46.5258 19.8047 46.2443 19.5005 45.7699C19.2088 45.3151 19.1147 44.8305 19.2213 44.3285C19.3273 43.948 19.5421 43.6255 19.864 43.357C19.7403 43.3401 19.6309 43.3064 19.5244 43.2529C19.3603 43.173 19.2503 43.0689 19.1427 42.9602C19.031 42.8055 18.8834 42.5899 18.737 42.2775L18.6783 42.1678L17.5559 42.7334L16.9941 41.6213L20.4565 39.8984L21.0673 41.0776C21.2957 41.5042 21.396 41.735 21.4228 41.8965C21.4763 42.1317 21.4501 42.3664 21.3368 42.618C21.306 42.6732 21.2735 42.7244 21.2388 42.7728C21.2781 42.7706 21.3168 42.7694 21.3556 42.7694C21.4923 42.7694 21.6171 42.7841 21.7379 42.8145C21.9555 42.8358 22.1504 42.9445 22.307 43.0475C22.5264 43.1921 22.707 43.384 22.8927 43.6705C23.1856 44.1045 23.2807 44.5846 23.1725 45.0917C23.1155 45.3067 23.0215 45.502 22.8859 45.6849C23.0933 45.61 23.3013 45.5718 23.5064 45.5718L23.5867 45.574C24.0659 45.5993 24.4937 45.8205 24.8595 46.232C25.166 46.5854 25.3068 46.98 25.28 47.4088C25.2806 47.6351 25.1974 47.8839 25.0333 48.1349C25.2441 48.0398 25.4595 47.9874 25.6822 47.9767C25.717 47.9745 25.7523 47.9739 25.7871 47.9739C26.2537 47.9739 26.6668 48.1473 27.0149 48.4895C27.3784 48.8249 27.5584 49.1964 27.5584 49.6202C27.5721 49.7463 27.559 49.8819 27.5174 50.0283L27.9259 49.4755L28.9264 50.1341L28.0359 51.3363L29.6266 50.6884L30.5433 51.3031L30.4647 51.41L31.1507 51.7905C31.141 51.6137 31.1797 51.4398 31.2663 51.2693L31.4025 51.0003L32.1603 51.4376L32.0383 51.674L32.0588 51.6824L32.1044 51.7595C32.1477 51.7848 32.1791 51.7961 32.2036 51.8017C32.2121 51.795 32.2224 51.7848 32.236 51.7663L32.3887 51.5659L33.1391 52.001L32.9585 52.2509C32.8525 52.3978 32.7112 52.5176 32.5557 52.5948L33.2485 52.9758L32.5477 54.169C32.7346 53.9219 32.9665 53.7328 33.2399 53.6056C33.4582 53.4908 33.706 53.4294 33.9647 53.4294C34.1983 53.4294 34.4375 53.4795 34.6757 53.5786C35.103 53.7435 35.4101 54.0148 35.6084 54.4054C35.7058 54.6221 35.7451 54.8652 35.7309 55.1568L36.0345 54.1217L37.2151 54.4414L36.9706 55.3228C37.2493 54.9783 37.4754 54.7937 37.6851 54.7346C37.7603 54.7138 37.8469 54.7026 37.9426 54.7026C38.1022 54.7026 38.2856 54.7318 38.4885 54.7898C38.5352 54.7932 38.603 54.8027 38.6753 54.8376L38.8987 54.9434L38.5682 55.9678L38.2201 55.7944L38.203 55.7916C38.1574 55.7832 38.1204 55.7753 38.0896 55.7753C38.0577 55.7854 38.0435 55.7899 38.0384 55.7922L38.0059 55.8406L37.9848 55.8462C37.9683 55.862 37.901 55.952 37.8475 56.0246L37.7723 56.1254C37.7136 56.2244 37.611 56.337 37.5068 56.4119C37.5051 56.4136 37.5034 56.4152 37.5016 56.4169C37.5318 56.467 37.5603 56.5227 37.586 56.5824C37.6253 56.6938 37.7051 56.9392 37.758 57.2263L37.868 57.8505L39.4485 55.0448L40.5327 55.2108L41.3349 58.424L41.5514 58.0975C41.7349 57.8465 41.8688 57.6715 41.9588 57.56C41.8522 57.497 41.7594 57.4199 41.683 57.3315C41.4882 57.076 41.413 56.8143 41.4403 56.5171C41.4392 56.2987 41.5161 56.0685 41.6676 55.8597C41.7702 55.6785 41.981 55.5164 42.2152 55.4506C42.3878 55.4078 42.577 55.3875 42.8003 55.3875C42.8846 55.3875 42.9775 55.3909 43.0772 55.3971L44.7335 55.45L44.6047 59.2795L43.3792 59.2378ZM42.7314 56.5227C42.6955 56.5672 42.6881 56.5841 42.6881 56.6089C42.6881 56.677 42.7 56.7017 42.7 56.7017C42.7217 56.7265 42.7411 56.7372 42.7758 56.7456C42.8248 56.7574 42.8994 56.7586 43.0077 56.7648L43.4612 56.7901L43.4681 56.5222H43.2567C43.1114 56.5115 43.0094 56.5064 42.9285 56.5064C42.8316 56.5064 42.8003 56.5143 42.7986 56.5143L42.765 56.5227H42.7314V56.5227ZM30.7564 53.2617L31.8817 52.6465C31.8082 52.6246 31.733 52.5942 31.6555 52.5559C31.5147 52.4704 31.4059 52.3764 31.325 52.2734L30.7564 53.2617ZM26.5277 51.3689L27.0861 50.613L26.0947 50.0328L26.2742 49.7834C26.3306 49.7046 26.3477 49.6315 26.3335 49.5307C26.3203 49.4373 26.2793 49.3624 26.1961 49.2814C26.0976 49.184 25.9996 49.1429 25.8697 49.1429L25.8093 49.1457C25.7255 49.1547 25.5307 49.2133 25.2105 49.5065C24.9849 49.7468 24.8555 49.9601 24.8407 50.1245C24.8418 50.3181 24.9142 50.4098 24.9849 50.4706C25.076 50.5607 25.1581 50.5962 25.2578 50.5962L25.3256 50.8821V50.6007C25.411 50.6007 25.521 50.5584 25.6805 50.4639L25.9329 50.3142L26.5277 51.3689ZM24.0123 49.0011C24.0904 48.8902 24.1804 48.7799 24.2835 48.6718C24.414 48.5429 24.5456 48.4321 24.6783 48.3398L23.7964 47.6767L23.9872 47.451C24.0459 47.3818 24.0744 47.2985 24.0744 47.1983C24.0744 47.1195 24.0351 47.0295 23.9644 46.9445C23.8305 46.7959 23.7263 46.7655 23.593 46.7655C23.5913 46.7655 23.589 46.7655 23.5867 46.7655C23.3941 46.7655 23.2021 46.8674 22.9674 47.065C22.6922 47.2839 22.5463 47.4696 22.515 47.6385C22.5019 47.7781 22.5372 47.9098 22.6238 48.0071C22.7298 48.1124 22.805 48.1422 22.8819 48.1518C22.8927 48.1518 22.903 48.1523 22.9133 48.1523C23.0221 48.1523 23.1389 48.1293 23.3229 48.0471L23.5992 47.9233L24.0123 49.0011ZM21.4245 43.9857C21.2519 43.9857 21.0684 44.0521 20.8616 44.1889C20.6081 44.3487 20.4531 44.517 20.4075 44.678C20.3482 44.857 20.3682 45.0106 20.4662 45.1733C20.5642 45.3095 20.6981 45.399 20.8633 45.4282C20.8946 45.4333 20.9305 45.4367 20.9676 45.4367C21.1396 45.4367 21.3237 45.3703 21.531 45.2341C21.804 45.0725 21.9595 44.9104 22.0051 44.7455C22.0489 44.5891 22.0222 44.4298 21.9264 44.2728C21.8245 44.1146 21.6968 44.024 21.5288 43.9941C21.4969 43.9891 21.461 43.9857 21.4245 43.9857ZM19.7284 41.7237C19.8446 41.9747 19.9067 42.0445 19.934 42.0648C19.9956 42.1227 20.0132 42.1334 20.0594 42.143C20.0457 42.1374 20.0896 42.1261 20.138 42.1025C20.1625 42.0912 20.1859 42.0822 20.2121 42.0434C20.2189 41.9905 20.2166 41.9483 20.2052 41.8909C20.195 41.8526 20.1431 41.7265 20.0383 41.5391L20.0144 41.4952L19.6913 41.6545L19.7284 41.7237ZM48.7958 58.4696C48.7297 58.4735 48.6653 58.4758 48.6043 58.4758C48.2186 58.4758 47.9184 58.3919 47.6848 58.218C47.3628 57.9805 47.1503 57.6366 47.0723 57.2229C46.9902 56.7653 47.0569 56.3758 47.2694 56.0623C47.474 55.7691 47.781 55.5614 48.2032 55.4309L48.1331 55.0825L49.3268 54.8804L49.3963 55.2023C49.4612 55.1984 49.5245 55.1967 49.5849 55.1967C49.9831 55.1967 50.2902 55.2806 50.5238 55.4545C50.6081 55.5164 50.6845 55.5868 50.7523 55.665L50.4047 54.6817L53.2586 53.7232L53.6557 54.7712L51.9619 55.3363L52.0165 55.4928L53.5646 54.9536L53.9605 56.0004L52.3749 56.5458L52.4803 56.8571L54.2312 56.2734L54.2511 56.3325L54.3964 56.2734C54.3804 56.0201 54.3303 55.7815 54.2426 55.5344C54.1343 55.1928 53.9617 54.7673 53.7269 54.2602L53.4483 53.7052L56.0526 52.5148L57.2081 54.9733L57.428 54.8641L56.0937 52.5931L58.6228 51.1246L58.6023 51.0959L59.7087 50.3029C60.1281 49.9995 60.3035 49.8864 60.4289 49.8369C60.5764 49.7868 60.7172 49.7643 60.8608 49.7643C60.9656 49.7643 61.0744 49.7761 61.1855 49.8003C61.4772 49.896 61.7017 50.0699 61.8835 50.3249C61.9569 50.4222 62.0145 50.5179 62.0589 50.613L61.557 49.2352L62.3751 48.5283L65.8079 50.259L63.0902 47.9919L63.8684 47.0627L65.9947 48.8165L66.4585 48.2728L64.3362 46.5224L65.1384 45.5718L67.2704 47.3295L67.447 47.1347L68.8349 48.2885L68.1222 49.1637L67.5718 48.6842L66.0648 50.4751L66.038 50.4526L65.0837 51.2834L64.3801 50.9141L63.6742 51.5051L63.9551 52.2329L62.9717 53.1249L62.1239 50.7954C62.1353 50.8376 62.1438 50.8809 62.1507 50.9243C62.1763 51.1072 62.1575 51.3008 62.0954 51.4849C62.047 51.6278 61.9763 51.759 61.8783 51.8895C61.7387 52.0314 61.5484 52.1822 61.2687 52.382L61.149 52.4709L61.8971 53.4711L60.8858 54.1881L59.1458 51.8338L59.2774 52.0646L57.7419 52.9308L57.8183 53.067L59.2563 52.27L59.8295 53.2274L58.3858 54.0491L58.5527 54.3238L60.1531 53.4137L60.7274 54.3733L58.0428 55.9121L57.6981 55.325L58.2616 56.5053L57.2417 56.9854L56.934 56.3348L55.5461 56.9634L55.8515 57.6084L54.8351 58.0891L54.4864 57.3597L51.6855 58.3075L51.1471 56.7845C51.1505 57.0709 51.0856 57.3434 50.9534 57.5859C50.7608 57.8735 50.4429 58.0868 49.9968 58.2349L50.0657 58.6249L48.8886 58.8647L48.7958 58.4696ZM48.4209 56.543C48.3571 56.5745 48.3308 56.6015 48.32 56.6196C48.2841 56.6713 48.2198 56.7614 48.2665 57.0113C48.3269 57.2758 48.4476 57.3377 48.569 57.3512L48.4209 56.543ZM49.7792 57.1188C49.7871 57.1137 49.794 57.1081 49.8014 57.103C49.9016 57.0237 49.9153 56.9927 49.9176 56.9871C49.9484 56.8982 49.9541 56.8087 49.921 56.6775C49.8732 56.4181 49.7735 56.3342 49.6208 56.3134L49.7792 57.1188ZM55.0186 54.2157C55.2977 54.8365 55.4726 55.3335 55.5541 55.7382L56.0817 55.4978L55.4014 54.0401L55.0186 54.2157ZM60.4847 51.5575L60.5354 51.5192C60.7816 51.3481 60.8664 51.267 60.8972 51.2265C60.8978 51.2147 60.9058 51.1916 60.9058 51.1359C60.9058 51.1156 60.9058 51.1072 60.8733 51.0633C60.8465 51.0216 60.8402 51.0115 60.7855 51.0008C60.7656 50.9969 60.7462 50.9935 60.7269 50.9935C60.7172 50.9935 60.7064 50.9935 60.679 51.0093L60.6545 51.0233L60.6272 51.0329C60.6226 51.0352 60.5508 51.0667 60.3155 51.249L60.279 51.2732L60.4847 51.5575ZM65.1299 45.408L65.8033 44.4517L67.0243 45.2797L66.3161 43.7049L66.9696 42.8088L69.8086 44.7754L69.2657 43.8833C69.1033 43.6086 68.9973 43.4178 68.9438 43.2709C68.8264 43.3508 68.7073 43.4026 68.586 43.4291C68.4931 43.4476 68.4076 43.4566 68.3239 43.4566C68.1347 43.4566 67.9513 43.4116 67.7638 43.3193C67.5467 43.2135 67.369 43.0475 67.2493 42.8404C67.1246 42.6681 67.071 42.4334 67.1052 42.1672C67.1331 41.9516 67.2351 41.6781 67.4003 41.377L68.186 39.9013L71.6165 41.6207L71.0911 42.7373L69.8377 42.1075C69.8092 42.1942 69.8121 42.2297 69.8126 42.2347C69.8217 42.2685 69.8941 42.4582 70.085 42.7711L70.5761 43.6666L69.975 44.8907L70.1499 45.0117L69.4491 45.9916L68.2675 45.1699L68.9386 46.7104L68.3153 47.6171L65.1299 45.408ZM68.5193 41.6961C68.39 41.9308 68.3301 42.0704 68.3142 42.1182C68.3153 42.1959 68.3358 42.2162 68.3683 42.2314C68.4167 42.2499 68.4447 42.2544 68.4555 42.2544C68.4925 42.2454 68.5142 42.2336 68.5176 42.2297C68.5598 42.1796 68.6122 42.1002 68.7478 41.8053L68.8549 41.6123L68.615 41.4974L68.5193 41.6961Z" fill="#435465"/>
<path d="M6.16146 22.9121C6.72665 24.6102 7.67984 26.9639 7.25082 29.0588C6.95968 30.4822 5.38888 31.2397 5.22879 32.4403C4.71088 29.0599 5.35926 25.5 6.16146 22.9121Z" fill="#435465"/>
<path d="M82.5431 22.9121C84.0182 25.0925 83.9697 28.7774 83.9441 32.4403C83.1937 31.3883 82.4918 30.288 81.766 29.2136C81.6674 26.7591 82.2588 24.9867 82.5431 22.9121Z" fill="#435465"/>
<path d="M4.91781 24.6023C4.91154 26.391 4.28596 28.895 4.45118 31.3653C3.56181 29.3554 4.03641 26.2137 4.91781 24.6023Z" fill="#435465"/>
<path d="M83.9441 24.6023C85.1582 26.0105 85.2545 29.1094 84.7212 31.3653C84.4073 29.164 84.4734 26.5896 83.9441 24.6023Z" fill="#435465"/>
<path d="M0.0948237 27.0613C1.63143 29.0785 2.27411 31.9776 3.36176 34.4372C0.534099 33.6965 -0.307988 30.9938 0.0948237 27.0613Z" fill="#435465"/>
<path d="M88.7658 27.0613C89.5213 30.6769 88.4393 33.8062 85.6544 34.4372C86.6629 31.9506 87.4913 29.285 88.7658 27.0613Z" fill="#435465"/>
<path d="M8.33964 29.3667C9.49622 33.0842 7.69468 37.046 5.69543 38.126C5.92789 34.5656 7.14259 31.9737 8.33964 29.3667Z" fill="#435465"/>
<path d="M80.521 29.3667C81.9835 31.7632 83.0136 34.5875 83.3213 38.126C81.2719 36.9548 79.7154 33.3819 80.521 29.3667Z" fill="#435465"/>
<path d="M0.250366 33.5166C1.65935 34.1216 2.96066 34.8348 3.98392 35.8208C3.56573 38.2326 5.55358 38.2675 5.3838 40.431C4.80265 40.5762 4.24886 39.9346 3.82838 39.5091C2.34305 38.0057 1.2668 35.4775 0.250366 33.5166Z" fill="#435465"/>
<path d="M88.6103 33.5166C87.7477 35.9441 85.9097 39.5558 83.6324 40.5858C83.3806 38.2872 85.451 38.2843 85.0323 35.8208C85.9986 34.8314 87.3506 34.219 88.6103 33.5166Z" fill="#435465"/>
<path d="M8.96176 34.1292C10.5833 37.1898 9.12243 40.949 7.71743 43.1958C6.96594 42.7112 7.21264 41.6305 7.25081 40.8904C7.37672 38.4432 8.34985 36.027 8.96176 34.1292Z" fill="#435465"/>
<path d="M79.8982 34.1292C80.9574 36.4356 82.3014 40.0248 81.4536 43.1958C79.7615 41.0914 78.6356 37.4515 79.8982 34.1292Z" fill="#435465"/>
<path d="M0.717529 35.9741C1.76416 37.4499 2.47406 39.2588 3.98446 40.2775C2.28889 40.0558 0.962521 38.1393 0.717529 35.9741Z" fill="#435465"/>
<path d="M88.1437 35.9741C88.2862 38.011 86.8259 39.7935 85.0323 40.4306C86.2835 39.1569 87.4036 37.7532 88.1437 35.9741Z" fill="#435465"/>
<path d="M7.09526 37.665C7.18528 38.7294 6.57793 40.4308 6.78418 42.1215C6.31984 42.1193 6.25488 41.7214 5.85093 41.6611C5.74439 39.8139 6.21044 38.5335 7.09526 37.665Z" fill="#435465"/>
<path d="M81.7659 37.665C82.8541 38.1305 84.1007 41.5829 82.2319 42.1215C82.3111 40.4043 82.094 38.9798 81.7659 37.665Z" fill="#435465"/>
<path d="M10.8289 39.0479C11.2272 40.3384 12.1342 41.3684 12.0738 42.5824C11.9787 44.4938 9.77149 46.3427 9.89569 48.5749C9.01771 45.3696 10.0552 41.6228 10.8289 39.0479Z" fill="#435465"/>
<path d="M78.0318 39.0479C79.1918 41.4297 79.7205 45.105 79.2767 48.5766C79.2579 46.7536 77.09 44.4133 76.943 42.7361C76.8319 41.454 77.87 40.5022 78.0318 39.0479Z" fill="#435465"/>
<path d="M1.1842 40.7388C3.46604 42.7363 5.8117 44.6701 7.40642 47.3464C3.78909 46.6682 2.08668 44.0977 1.1842 40.7388Z" fill="#435465"/>
<path d="M87.677 40.7388C87.232 43.8332 85.1713 46.6631 81.7659 47.3464C82.7914 44.8243 85.7114 42.8438 87.677 40.7388Z" fill="#435465"/>
<path d="M13.007 43.3501C13.7266 44.7915 14.6188 46.0607 14.7179 48.1145C14.326 47.8359 14.2758 47.2196 13.7847 47.0389C12.8537 48.321 13.2657 50.9314 13.1625 53.0313C11.7108 50.5932 12.3278 46.1913 13.007 43.3501Z" fill="#435465"/>
<path d="M75.8548 43.3501C76.9054 45.9543 77.086 50.3765 76.0097 53.0313C75.5853 51.3001 76.1704 48.5692 75.387 47.192C74.9403 46.8622 74.6156 47.6811 74.4532 48.1145C74.0555 46.2841 75.4935 44.9418 75.8548 43.3501Z" fill="#435465"/>
<path d="M12.0733 43.9656C12.0402 46.3452 11.1269 50.9171 12.5399 53.0316C9.12142 52.3219 10.6894 46.2811 12.0733 43.9656Z" fill="#435465"/>
<path d="M76.7869 43.9656C78.3401 46.1443 79.9895 51.9595 76.4764 53.1859C77.6951 50.9317 77.269 46.6959 76.7869 43.9656Z" fill="#435465"/>
<path d="M3.36182 46.5781C6.18777 47.2192 9.80054 48.4141 10.3623 51.8029C7.85713 50.8455 5.55649 48.3544 3.36182 46.5781Z" fill="#435465"/>
<path d="M85.3433 46.4239C85.7404 46.4171 85.533 46.5381 85.4989 46.7317C83.3156 48.571 81.2793 50.5545 78.6533 51.9565C79.1194 48.3684 82.5088 47.6722 85.3433 46.4239Z" fill="#435465"/>
<path d="M3.05066 47.3462C5.02427 48.3672 6.90728 50.8104 9.27345 51.9563C5.78659 52.4291 3.97365 49.9172 3.05066 47.3462Z" fill="#435465"/>
<path d="M85.6544 47.1919C85.9296 48.7177 83.3692 52.6857 79.7433 52.1088C81.7892 50.5447 83.9549 49.0993 85.6544 47.1919Z" fill="#435465"/>
<path d="M14.2513 48.8828C16.3195 50.0856 18.1855 53.8689 17.0517 57.7958C15.4119 55.5225 15.008 52.0279 14.2513 48.8828Z" fill="#435465"/>
<path d="M74.6093 48.729C74.3888 51.7401 73.3974 55.3169 72.1206 57.7956C70.6763 54.0759 72.6499 50.534 74.6093 48.729Z" fill="#435465"/>
<path d="M17.8293 52.7251C19.3477 54.6776 21.0837 55.9732 20.1625 59.6406C19.0247 57.6904 18.2624 55.3698 17.8293 52.7251Z" fill="#435465"/>
<path d="M71.0319 52.7251C71.0951 55.1447 69.7779 57.5311 69.0093 59.6406C67.7199 56.2479 69.7534 54.7502 71.0319 52.7251Z" fill="#435465"/>
<path d="M7.25085 53.8015C9.42159 54.6801 13.2486 55.2514 14.718 57.335C11.6083 57.3851 8.52994 56.072 7.25085 53.8015Z" fill="#435465"/>
<path d="M81.4548 53.646C81.5745 54.2516 80.6275 55.4566 79.9 55.9519C78.4653 56.9273 76.1584 57.1142 74.2993 57.4879C75.5169 55.0553 79.3245 55.1786 81.4548 53.646Z" fill="#435465"/>
<path d="M17.8294 55.7976C18.3251 56.7944 18.6834 57.9251 19.0737 59.0249C18.647 58.6776 18.0829 58.4677 17.5183 58.2566C17.528 57.3454 17.9337 56.8231 17.8294 55.7976Z" fill="#435465"/>
<path d="M71.0318 55.7976C71.2746 56.5321 71.3691 57.4112 71.4985 58.2566C71.0318 58.5127 70.3339 58.5403 70.098 59.0249C69.9169 58.0748 70.9794 57.0291 71.0318 55.7976Z" fill="#435465"/>
<path d="M21.0958 56.105C22.1744 58.985 22.8353 62.2753 24.5183 64.5576C21.3687 64.2942 19.9096 59.7921 21.0958 56.105Z" fill="#435465"/>
<path d="M67.7643 56.105C69.1978 59.5895 67.803 64.0471 64.4979 64.7112C65.9753 62.2258 67.01 59.3047 67.7643 56.105Z" fill="#435465"/>
<path d="M22.0295 56.874C23.7644 59.1563 26.4331 60.5161 26.2297 64.712C24.4043 64.6748 24.0983 62.5614 23.585 61.3316C22.9736 59.8649 22.3469 58.3537 22.0295 56.874Z" fill="#435465"/>
<path d="M66.8316 56.874C66.8305 58.2434 66.051 59.848 65.4311 61.3316C64.9007 62.6025 64.5668 64.7204 62.7869 64.712C62.5249 60.5082 65.3052 59.31 66.8316 56.874Z" fill="#435465"/>
<path d="M10.2067 57.4878C13.7608 57.7681 18.4116 58.296 20.1624 60.8693C17.712 59.4988 13.2787 58.7564 10.2067 57.4878Z" fill="#435465"/>
<path d="M78.8094 57.3347C75.9522 59.0204 71.4785 59.1082 68.8525 61.0235C70.4923 58.1334 74.9756 58.0551 78.8094 57.3347Z" fill="#435465"/>
<path d="M11.7627 58.8706C14.3448 59.3946 18.8988 60.1195 20.0075 62.0979C16.446 61.8255 13.8799 60.5704 11.7627 58.8706Z" fill="#435465"/>
<path d="M76.943 58.7184C77.3407 58.7105 77.1327 58.8321 77.0985 59.0257C75.0178 60.6072 72.5348 61.792 69.1642 62.0993C68.9682 61.1025 71.0358 60.5448 72.4306 60.1013C73.9626 59.6144 75.7249 59.1838 76.943 58.7184Z" fill="#435465"/>
<path d="M26.8518 58.8706C28.7246 60.1961 29.8641 62.2465 30.1188 65.1715C27.3116 65.4377 25.8189 61.9476 26.8518 58.8706Z" fill="#435465"/>
<path d="M62.0093 58.8706C63.2685 61.7112 61.9113 65.2486 58.8979 65.3257C59.0637 62.3151 60.3109 60.3705 62.0093 58.8706Z" fill="#435465"/>
<path d="M15.3401 63.3271C17.5701 63.5326 20.8547 64.0273 23.1183 64.7111C20.1602 66.0524 17.2818 64.9301 15.3401 63.3271Z" fill="#435465"/>
<path d="M73.6756 63.1746C71.8592 65.0381 69.1119 65.8655 65.8979 64.8648C67.953 63.7695 71.2302 63.8826 73.6756 63.1746Z" fill="#435465"/>
<path d="M26.6964 64.2502C27.1955 64.1157 27.0188 64.6487 27.3185 64.7112C27.2137 65.0472 26.5026 64.7157 26.6964 64.2502Z" fill="#435465"/>
<path d="M62.3204 64.2503C62.4275 64.7653 62.0594 64.812 61.6976 64.8649C61.8811 64.6369 61.8321 64.1782 62.3204 64.2503Z" fill="#435465"/>
<path d="M32.9185 67.784C29.3018 67.4643 25.3278 66.1658 21.2512 65.7865C25.5414 64.4481 30.2823 65.7353 32.9185 67.784Z" fill="#435465"/>
<path d="M67.7643 65.6337C63.9174 66.4431 59.9183 67.1033 56.0964 67.9385C58.6079 65.5999 63.1875 64.6623 67.7643 65.6337Z" fill="#435465"/>
<path d="M33.2298 68.5536C29.486 71.2118 23.0797 67.7358 20.3181 66.5561C20.2486 66.5257 19.5615 66.2263 20.0071 66.2482C24.4591 66.466 28.8256 67.8635 33.2298 68.5536Z" fill="#435465"/>
<path d="M69.1648 66.2483C65.9263 68.1597 60.5462 70.6851 55.7871 68.7067C59.9907 67.6357 64.3219 66.6879 69.1648 66.2483Z" fill="#435465"/>
<path d="M1.02869 27.3691C3.19316 27.9663 4.42325 31.5695 4.14008 34.5914C2.94247 32.3423 2.36247 29.4831 1.02869 27.3691Z" fill="#435465"/>
<path d="M87.8325 27.2148C87.1403 29.2979 85.8082 32.0794 85.0322 34.5902C84.3998 31.7693 85.7786 28.3934 87.8325 27.2148Z" fill="#435465"/>
<path d="M7.0953 30.4429C6.56429 32.4798 5.10574 34.9314 5.2288 38.1255C3.3042 35.613 5.94327 32.3227 7.0953 30.4429Z" fill="#435465"/>
<path d="M81.7659 30.5955C83.0609 31.8055 85.5285 35.4853 83.944 38.1256C83.5771 35.2596 82.9595 32.6425 81.7659 30.5955Z" fill="#435465"/>
<path d="M1.33972 40.1233C3.75374 41.0947 8.12656 42.0189 7.4064 46.1157C5.60486 43.901 3.60219 41.8838 1.33972 40.1233Z" fill="#435465"/>
<path d="M87.521 39.9697C86.043 41.8394 83.1721 43.6647 81.7654 46.1158C80.6441 42.1591 85.0813 41.3948 87.521 39.9697Z" fill="#435465"/>
<path d="M9.74005 40.2764C9.55033 42.2879 8.43191 45.8394 9.27343 48.4217C6.79559 47.2572 8.62392 42.056 9.74005 40.2764Z" fill="#435465"/>
<path d="M79.1212 40.4307C80.3057 41.5817 82.2195 46.7282 79.8984 48.5765C80.1975 46.2689 79.9428 42.5717 79.1212 40.4307Z" fill="#435465"/>
<path d="M13.7847 49.4976C14.4787 52.3472 14.8946 55.4698 16.274 57.6428C13.9015 57.1374 13.2919 52.8436 13.7847 49.4976Z" fill="#435465"/>
<path d="M75.0759 49.4976C75.8753 52.6044 75.146 56.6922 72.8989 57.7959C73.6322 55.6527 74.864 52.6702 75.0759 49.4976Z" fill="#435465"/>
<path d="M6.47314 52.4172C8.9185 52.2061 11.3906 53.2969 13.3181 54.1079C13.3312 54.6072 13.3984 55.0541 13.6292 55.3383C11.5638 54.6618 8.36072 53.7804 6.47314 52.4172Z" fill="#435465"/>
<path d="M75.6976 54.1082C77.6894 53.2065 79.8237 52.4472 82.5431 52.2649C80.8857 54.008 77.6746 54.2168 75.5432 55.491C75.2583 55.2986 75.8326 54.6597 75.6976 54.1082Z" fill="#435465"/>
<path d="M28.2517 59.3328C30.9911 59.4802 30.484 62.7688 31.3625 64.7117C32.0747 66.286 34.8995 67.8698 36.496 68.7078C38.6302 69.8256 40.7657 70.5359 43.0304 71.1668C40.2005 71.6779 35.7935 69.4035 33.6962 67.7853C32.4969 66.8595 31.6736 65.646 30.5848 65.0196C30.529 62.4109 29.5912 60.674 28.2517 59.3328Z" fill="#435465"/>
<path d="M60.6088 59.1787C60.3302 60.1766 59.499 60.5779 59.054 61.6377C58.6386 62.626 58.8472 63.9329 58.4318 64.8639C57.874 66.1128 55.2737 67.6431 53.765 68.5532C49.2332 71.2818 44.4616 72.7029 38.0531 73.6243C37.0913 73.7616 35.8014 74.3971 34.9423 73.6243C35.1269 72.2324 37.0805 72.6196 37.8981 72.5487C43.7614 72.0416 48.9267 70.7246 53.2984 68.2453C54.778 67.4067 57.0582 66.0655 57.6547 64.8639C58.662 62.8337 57.7983 59.862 60.6088 59.1787Z" fill="#435465"/>
<path d="M14.407 62.2522C16.7327 61.6972 18.7513 62.7745 21.0958 62.7137C21.1329 63.1887 21.5288 63.3103 21.718 63.635C19.5843 63.4893 16.5532 62.8988 14.407 62.2522Z" fill="#435465"/>
<path d="M74.6094 62.0989C72.715 63.1464 69.7284 63.1165 67.4528 63.7891C67.0648 63.4948 67.9872 63.1998 67.9194 62.7141C70.3278 62.6837 71.9869 61.916 74.6094 62.0989Z" fill="#435465"/>
<path d="M51.7413 72.7034C52.8051 72.8047 54.4465 72.4264 54.0756 73.7795C51.7277 74.1937 48.2613 73.2133 45.8302 72.7034C47.2141 71.7392 49.4749 72.4844 51.7413 72.7034Z" fill="#435465"/>
</g>
<defs>
<clipPath id="clip0">
<rect width="89" height="74" fill="white"/>
</clipPath>
</defs>
</svg>
