<svg width="135" height="34" viewBox="0 0 135 34" fill="none" xmlns="http://www.w3.org/2000/svg">
<path d="M106.481 24.4794L111.177 29.7575H108.127L104.494 25.6891V29.7575H101.966V19.9152H104.494V23.4873L108.066 19.9152H111.056L106.481 24.4794ZM30.8169 22.5747C32.6626 22.5747 33.5057 21.7016 33.5057 20.3919C33.5057 19.0822 32.6626 18.2091 30.8169 18.2091H27.1646V22.5747H30.8169V22.5747ZM30.8974 15.8672C34.0683 15.8672 36.1554 17.474 36.1554 20.3912C36.1554 23.3084 34.0683 24.9159 30.8974 24.9159H27.1646V29.7575H24.5156V15.8672H30.8974ZM42.1341 27.6937C43.6189 27.6937 45.0039 26.6425 45.0039 24.8364C45.0039 23.0303 43.6189 21.979 42.1341 21.979C40.6494 21.979 39.2644 23.031 39.2644 24.8364C39.2644 26.6425 40.6494 27.6937 42.1341 27.6937ZM42.1341 19.6378C44.8636 19.6378 47.5724 21.384 47.5724 24.8371C47.5724 28.2901 44.8636 30.0357 42.1341 30.0357C39.4047 30.0357 36.6959 28.2901 36.6959 24.8371C36.6959 21.384 39.4047 19.6378 42.1341 19.6378ZM54.0284 27.6944C52.5031 27.6944 51.3794 26.603 51.3794 24.8371C51.3794 23.0908 52.543 21.9797 54.0284 21.9797C54.9313 21.9797 55.7139 22.3965 56.3362 23.3288L58.5038 22.0987C57.7811 20.5707 56.2159 19.6385 54.049 19.6385C51.2192 19.6385 48.8116 21.7023 48.8116 24.8371C48.8116 27.9725 51.0995 30.0363 54.049 30.0363C56.176 30.0363 57.6009 29.0837 58.6042 27.3973L56.5171 26.2664C55.9147 27.0987 55.2724 27.6944 54.0284 27.6944ZM80.9513 25.4919C80.8309 27.0001 80.5291 27.3374 80.0078 27.3374C79.6516 27.3374 79.4838 27.2987 79.2396 27.2354L79.252 29.782C79.252 29.782 79.5663 29.8772 80.1481 29.8772C82.295 29.8772 83.0982 28.5077 83.2991 25.5912L83.5397 22.1579H86.3888V29.7378H88.9174V19.9152H81.3722L80.9513 25.4919ZM76.2874 23.5267C76.0467 22.2966 75.1039 21.5425 73.699 21.5425C72.3745 21.5425 71.3711 22.4156 71.0094 23.5267H76.2874ZM73.7787 19.6378C76.6285 19.6378 78.6352 21.6819 78.6352 24.5589V25.4321H70.9688C71.1291 26.9403 72.2129 27.8923 73.6983 27.8923C75.0427 27.8923 75.6045 27.317 76.2269 26.5432L78.2336 27.5353C77.2302 29.2217 75.8452 30.0357 73.6577 30.0357C70.8884 30.0357 68.5406 27.9521 68.5406 24.8364C68.5413 21.7213 70.8891 19.6378 73.7787 19.6378ZM98.0795 23.5267C97.8388 22.2966 96.8953 21.5425 95.491 21.5425C94.1666 21.5425 93.1632 22.4156 92.8015 23.5267H98.0795ZM95.5715 19.6378C98.4213 19.6378 100.428 21.6819 100.428 24.5589V25.4321H92.7616C92.9218 26.9403 94.0056 27.8923 95.491 27.8923C96.8355 27.8923 97.3973 27.317 98.0197 26.5432L100.026 27.5353C99.023 29.2217 97.638 30.0357 95.4505 30.0357C92.6812 30.0357 90.3334 27.9521 90.3334 24.8364C90.3334 21.7213 92.6812 19.6378 95.5715 19.6378ZM59.3903 22.098H62.3604V29.7575H64.889V22.098H67.8591V19.9152H59.3903V22.098ZM116.197 27.6944C117.682 27.6944 119.067 26.6431 119.067 24.8371C119.067 23.031 117.682 21.9797 116.197 21.9797C114.713 21.9797 113.328 23.0317 113.328 24.8371C113.328 26.6425 114.712 27.6944 116.197 27.6944ZM116.197 19.6378C118.927 19.6378 121.635 21.384 121.635 24.8371C121.635 28.2901 118.927 30.0363 116.197 30.0363C113.468 30.0363 110.759 28.2901 110.759 24.8371C110.759 21.384 113.468 19.6378 116.197 19.6378ZM131.696 19.9139L128.952 26.807L126.207 19.9139H122.902V29.7385H125.306V23.5185L127.97 29.7385H129.932L132.597 23.5185V29.7385H135V19.9139H131.696Z" fill="#435465"/>
<path d="M7.51593 24.9057L20.7236 11.9272L8.6293 0L1.782 6.75716C-0.264551 8.77404 0.012587 10.0946 0.012587 12.8037V31.3419C0.012587 32.7746 1.21466 34 2.72895 34H16.7186L16.3245 33.611L7.51593 24.9057ZM2.72964 33.7715C0.7546 33.7715 0.436202 31.8641 1.27724 31.0379L7.34676 25.0709C7.34951 25.0682 16.1602 33.7715 16.1602 33.7715H2.72964Z" fill="#435465"/>
</svg>
