<?xml version="1.0" encoding="utf-8"?>
<!-- Generator: Adobe Illustrator 17.1.0, SVG Export Plug-In . SVG Version: 6.00 Build 0)  -->
<!DOCTYPE svg PUBLIC "-//W3C//DTD SVG 1.1//EN" "http://www.w3.org/Graphics/SVG/1.1/DTD/svg11.dtd">
<svg version="1.1" id="Layer_1" xmlns="http://www.w3.org/2000/svg" xmlns:xlink="http://www.w3.org/1999/xlink" x="0px" y="0px"
	 viewBox="0 0 67 45" enable-background="new 0 0 67 45" xml:space="preserve">
<g>
	<path fill="#435465" d="M18.7,23.8c0.7,1.7,1.8,3.5,2.4,4.4c1-1.3,3.3-5.2,4-10.3c0.4-2.8,0.4-5.3-0.5-9.3c-0.9-4-3.2-7.3-3.5-7.8
		c-0.5,0.7-2.3,3.6-3.3,6.8c-0.7,2.4-1,4.7-1,6.9c0,1,0.1,2,0.2,3C17.4,20.6,18.7,23.8,18.7,23.8z M21.1,27.2
		c-0.4-0.8-1.1-2.5-1.2-5c0-2.4,1-4.5,1.2-4.9c0.2,0.4,1.1,2.2,1.2,4.7C22.4,24.4,21.6,26.3,21.1,27.2z M17.9,13.9
		c0.1-2.1,0.6-4.2,0.8-5.2c1-3.3,2.2-5.4,2.4-5.7c0.2,0.3,1.7,2.9,2.4,5.6c0.7,2.7,0.9,5.3,0.9,6.9c0,1.5-0.2,3.2-0.5,4.1
		c0.1-1.7-0.1-4-0.5-5.9C23,11.9,22,8.8,21.1,7.4c-0.8,1.3-1.8,4-2.3,6.3c-0.5,2.3-0.5,5.1-0.5,5.9C18.1,18.9,17.8,16.4,17.9,13.9z"
		/>
	<path fill="#435465" d="M21.1,29.1h-5.4v4.7c0,0,0,0,0,0c1.6-1.6,4.3-1.6,6,0c1.6,1.6,1.6,4.3,0,6c0,0,0,0,0,0c0,0,0,0,0,0
		c-1.7,1.6-3.8,2.5-5.9,2.5s-4.3-0.8-6-2.5c-2.9-2.9-3.2-7.4-1-10.6c0.3-0.4,0.6-0.9,1-1.2c1.7-1.6,3.8-2.5,6-2.5V14.5v-0.4
		c-8.3,0-15,6.7-15,15c0,8.3,6.7,15,15,15c4.3,0,8.2-1.8,10.9-4.7V29.1h-4H21.1z"/>
	<path fill="#435465" d="M36.5,29.1l-1.9,10.4c0,0,0,0,0-0.1l-1.4-7.7c-0.2-0.8-0.3-1.8-0.5-2.6h-3.9v15h3c0-0.9,0-9.3,0-9.4
		c0.1,0,0.1,0.4,0.2,0.5l1.1,6.5c0.1,0.8,0.3,1.6,0.4,2.4h2.4c0.1-0.8,0.3-1.6,0.4-2.4l1-5.9c0-0.2,0.1-1,0.2-1.1
		c0.1,0.1,0,8.5,0,9.4l3,0l0-15L36.5,29.1z"/>
	<path fill="#435465" d="M46.8,29.1h-2.3c-1.7,0-2.3,0.9-2.3,2.6v9.9c0,1.6,0.6,2.6,2.2,2.6h2.5c1.5,0,2.2-0.9,2.2-2.5V31.6
		C49.1,30,48.4,29.1,46.8,29.1z M45.8,42.4c-0.2,0.1-0.5,0-0.5-0.1c-0.1-0.2-0.1-0.5-0.1-0.7v-9.5c0-0.6-0.1-1.1,0.3-1.3
		c0.2-0.1,0.5,0,0.6,0.2c0.1,0.2,0.1,0.5,0.1,0.7v9.5C46.1,41.6,46.2,42.3,45.8,42.4z"/>
	<polygon fill="#435465" points="65,36.3 66.4,29.1 63.5,29.1 62.4,35.6 62.4,29.1 59.3,29.1 59.3,44.1 62.3,44.1 62.4,37.2 
		62.8,39 63.8,44.1 66.8,44.1 	"/>
	<path fill="#435465" d="M57.7,31.9c0-3.3-1.7-2.8-4.5-2.8c-0.8,0-1.4,0.1-1.8,0.6c-0.4,0.4-0.6,1-0.6,1.8c0,0.8,0,1.6,0,2.4h3
		c0-0.7,0-1.5,0-2.2c0-0.4-0.1-0.7,0.2-0.9c0.3-0.2,0.6,0,0.7,0.3s0,3.8,0,4.4l-2.4,0l0,1.7l2.4,0c0,0.6,0,4.5,0,4.8
		c-0.1,0.3-0.5,0.6-0.8,0.3c-0.2-0.2-0.2-0.7-0.2-1.1c0-0.8,0-1.6,0-2.4l-3,0c0,1.3-0.2,3.6,0.4,4.5c0.3,0.5,0.9,0.8,1.7,0.8
		c0.8,0,1.6,0,2.4,0c1.8,0,2.4-0.7,2.5-2.4c0-1.6,0-3.3,0-4.9C57.7,35.2,57.7,33.5,57.7,31.9z"/>
</g>
</svg>
