<svg width="78" height="86" viewBox="0 0 78 86" fill="none" xmlns="http://www.w3.org/2000/svg">
<path fill-rule="evenodd" clip-rule="evenodd" d="M38.3899 0.54507C38.5146 1.03055 38.4856 1.0538 38.1261 0.757769C37.7618 0.457375 37.7228 0.513335 37.7228 1.33239C37.7228 2.11124 37.7739 2.197 38.0844 1.93803C38.5163 1.57804 38.5406 1.83556 38.1749 2.88984C37.9723 3.47319 37.9742 3.82736 38.1821 4.28546C38.5278 5.04808 38.1129 5.75546 37.58 5.31117C36.7933 4.65514 34.251 5.89088 33.71 7.19226C33.301 8.17509 33.5354 9.28582 34.6127 11.4714C35.6593 13.5948 35.5728 14.2016 34.0454 15.44C32.6288 16.5883 29.8896 18.0321 29.5395 17.8146C29.4098 17.7339 29.5641 17.1278 29.898 16.4069C30.2209 15.7106 30.4858 14.8904 30.4871 14.5841C30.4914 13.5449 28.3959 12.2217 27.5636 12.7384C27.3502 12.8709 27.3116 12.524 27.4102 11.3634C27.4831 10.5097 27.4913 9.67512 27.4286 9.50845C27.282 9.11794 26.2336 9.11503 25.9942 9.50409C25.7562 9.89097 25.7005 10.6592 25.9105 10.6592C26 10.6592 26.08 11.1279 26.0887 11.7008C26.1042 12.727 26.0923 12.7425 25.2846 12.7425C24.2647 12.7425 23.1592 13.5381 23.0628 14.3417C23.0228 14.6752 23.2125 15.5364 23.4845 16.2557C23.7567 16.9749 23.9792 17.6867 23.9792 17.8374C23.9797 18.3856 22.521 19.5251 21.4517 19.8125C20.0566 20.1875 19.3186 21.233 19.4847 22.5996C19.659 24.0359 19.9619 24.2549 21.0223 23.7118C22.0639 23.1783 23.9344 23.1137 24.5813 23.589C25.023 23.9136 25.0225 23.925 24.5671 24.0594C24.3103 24.1352 23.7169 24.2537 23.2484 24.3227C22.7802 24.3918 21.9672 24.6285 21.442 24.8489C20.359 25.3036 18.9372 25.3523 18.2073 24.9599C17.7429 24.7101 17.7309 24.7317 18.0004 25.3262C18.3382 26.0708 19.3413 26.6479 20.2987 26.6479C20.6744 26.6479 21.5713 26.2663 22.2917 25.8C23.0122 25.3337 23.8223 24.956 24.0918 24.9606C24.5574 24.9688 24.5548 24.9846 24.0376 25.2731C23.0968 25.7981 22.7062 26.5527 23.0462 27.1888L23.3396 27.738L23.6465 26.9846C24.0701 25.9441 25.4081 25.324 26.7255 25.5575C27.2706 25.6542 28.0596 25.7496 28.4786 25.7697C29.4163 25.8148 29.9053 26.2453 30.9071 27.9076C32.9097 31.2308 32.074 34.8176 29.3478 34.5999C28.1794 34.5063 28.1316 34.5793 28.8017 35.4351C29.4033 36.2036 29.4047 36.338 28.8101 36.338C28.5497 36.338 28.2204 36.5561 28.0784 36.8225C27.7726 37.3967 27.513 37.4311 27.0433 36.9592C26.785 36.6997 26.6276 36.6813 26.4234 36.8865C25.9424 37.3698 26.1104 38.6767 26.7523 39.4432C27.8847 40.7955 27.3664 41.6676 25.43 41.6676C23.6434 41.6676 22.1953 40.5336 22.1953 39.1344C22.1953 38.5408 22.4296 38.0602 23.0628 37.3562C23.5397 36.8257 24.0055 36.1527 24.0979 35.8605C24.3826 34.9591 23.3078 33.3922 20.2102 30.1935C17.9594 27.8691 17.2183 27.2378 16.9957 27.4553C16.6268 27.8158 14.9622 26.0427 14.1142 24.386C13.6807 23.5393 13.4266 23.2827 13.1182 23.3811C12.8028 23.4816 12.3042 22.9189 11.0292 21.0228C9.43524 18.6526 7.2679 14.9785 6.37218 13.128L5.95747 12.2714L5.34071 12.891C3.4791 14.7617 4.09971 18.366 6.94867 22.2275C7.56326 23.0606 8.06622 23.8026 8.06622 23.8765C8.06622 24.1469 6.99906 23.2464 5.05668 21.3367C2.43364 18.7579 2.03846 18.7749 2.03846 21.4673C2.03846 22.9412 3.04269 25.348 3.53094 25.0449C3.6879 24.9473 3.73371 24.9863 3.64064 25.1374C3.55264 25.2806 3.76747 25.6246 4.11804 25.9017C4.88164 26.5052 4.70056 26.5224 2.78084 26.0282C1.97433 25.8206 1.20615 25.7179 1.07378 25.8002C0.301748 26.2794 1.38144 28.7334 2.92768 30.0138L3.81737 30.7507L2.14431 30.7027C1.22423 30.6763 0.339842 30.7383 0.179022 30.8401C-0.545032 31.2996 1.03786 33.4223 2.94046 34.5424C3.50514 34.8751 3.96735 35.1733 3.96735 35.2055C3.96735 35.2375 3.39784 35.2871 2.70152 35.3157C1.17384 35.3787 0.109583 35.7779 0.109583 36.2879C0.109583 36.8955 2.18024 38.7111 3.23558 39.029C3.7706 39.1901 4.20846 39.3962 4.20846 39.4873C4.20846 39.5784 3.78916 39.779 3.27656 39.9333C2.28657 40.2315 1.07402 41.0654 1.07402 41.4484C1.07402 41.8491 3.31008 43.1211 4.0146 43.1211C4.91322 43.1211 4.86837 43.4557 3.88826 44.0645C3.05089 44.5843 2.52068 45.4552 2.52068 46.3102C2.52068 46.6922 2.40592 46.7813 2.0387 46.6849C1.77372 46.6152 1.50368 46.6445 1.43882 46.7498C1.1736 47.1811 1.90706 48.5081 2.71574 49.0602C3.48488 49.5854 3.62376 49.6111 3.97434 49.2923C4.35939 48.942 4.69068 49.0316 4.69068 49.4861C4.69068 49.6113 4.51876 49.6477 4.30876 49.5665C3.75541 49.3531 4.01147 49.9759 4.58579 50.2397C5.37012 50.6 6.52697 52.3747 7.53891 54.7704C9.51698 59.4534 11.2006 63.7393 11.2006 64.092C11.2006 64.2924 11.355 64.6979 11.5435 64.993C11.7321 65.2881 11.9387 65.8789 12.0028 66.3058C12.067 66.7326 12.4009 67.6796 12.745 68.4105C13.4994 70.0125 13.5035 70.1014 12.8711 71.1298C12.3857 71.9185 12.4045 72.9183 12.9046 72.9183C13.0283 72.9183 13.1295 73.1133 13.1295 73.3515C13.1295 73.766 14.4554 75.0131 15.8244 75.8862C16.1796 76.1127 16.5051 76.5347 16.5478 76.8242C16.6517 77.5272 18.2842 78.8419 18.8041 78.6416C19.1271 78.517 19.1785 78.2498 19.0777 77.2173C19.0095 76.5184 18.8812 75.6095 18.7927 75.1979C18.6377 74.4772 18.6985 74.4072 20.4178 73.3306C23.6313 71.3182 24.2204 71.1315 27.4278 71.1089C30.705 71.0859 31.023 70.9125 30.238 69.5759C29.6113 68.5088 29.6347 68.4025 30.5338 68.2217C31.2813 68.0715 32.1772 67.4548 32.1772 67.0907C32.1772 66.9913 31.7849 66.9211 31.3054 66.9346C30.1683 66.9671 29.6858 66.3554 29.8479 65.0867C30.0007 63.8915 30.5485 63.3016 31.6859 63.1085C33.4303 62.8125 34.8651 63.8689 35.5342 65.9416C35.9048 67.0902 35.6789 67.5204 34.1119 68.6515C32.9423 69.4958 32.395 70.5188 33.3225 70.1271C34.1473 69.7787 34.7752 69.7271 34.9394 69.9943C35.045 70.1656 34.2812 70.6535 32.8581 71.3238C31.6217 71.9059 30.015 72.8343 29.2878 73.3866C27.5817 74.6826 26.9263 74.8546 26.3619 74.1543C26.1259 73.8612 25.993 73.4631 26.0668 73.2698C26.2652 72.7502 25.6031 72.8376 24.9895 73.4123C24.3937 73.9697 24.277 75.2926 24.7556 76.0628C25.0071 76.4673 24.9548 76.6352 24.394 77.2234C23.5402 78.119 23.5209 79.3119 24.3412 80.5263C24.6727 81.0171 24.9439 81.574 24.9439 81.7637C24.9439 82.3403 25.6569 81.8834 25.8409 81.1889C25.9342 80.8371 26.0147 80.4492 26.0198 80.3272C26.0403 79.8303 26.6317 79.9308 26.6317 80.4311C26.6317 81.5888 28.297 83.0949 29.5732 83.0915C29.8782 83.0905 30.4441 82.9241 30.8309 82.7216C31.5183 82.3614 31.5491 82.372 32.23 83.2017C33.1646 84.3411 34.4765 84.741 35.8187 84.296L36.8065 83.9685L37.6463 84.9842C38.1375 85.5785 38.6932 86 38.9855 86C39.2601 86 39.8916 85.5572 40.3892 85.0155C41.2688 84.0581 41.3196 84.038 42.2284 84.2839C43.5236 84.6342 44.8657 84.2221 45.813 83.1831C46.5472 82.3776 46.5865 82.3652 47.2688 82.7226C48.213 83.2172 49.021 83.1857 49.9473 82.6181C50.592 82.2233 51.489 81.0069 51.4709 80.5517C51.4513 80.0573 51.4938 79.9437 51.6978 79.9437C51.8253 79.9437 52.0435 80.3686 52.1826 80.8877C52.4483 81.8793 53.1538 82.4539 53.1538 81.6789C53.1538 81.4425 53.4251 80.8797 53.7566 80.4282C54.5515 79.3455 54.5402 78.2588 53.724 77.2842C53.1748 76.6284 53.1256 76.4433 53.3624 75.9218C53.7684 75.0259 53.6966 74.272 53.1362 73.5567C52.5021 72.7466 51.9483 72.7272 51.9483 73.5155C51.9483 74.3188 51.2266 74.6948 50.3372 74.3551C49.9642 74.2127 49.1049 73.6664 48.4276 73.1414C47.7503 72.6165 46.3938 71.8335 45.4132 71.4011C43.2987 70.4691 43.0272 70.3063 43.0272 69.9694C43.0272 69.7077 44.0078 69.7942 44.7752 70.1242C45.432 70.4061 45.2835 69.8373 44.5402 69.2223C42.6899 67.6919 42.3526 67.2309 42.4502 66.367C42.6983 64.1751 44.8447 62.6448 46.7793 63.2805C47.5673 63.5397 47.7843 63.7575 48.0548 64.5611C48.2993 65.2873 48.3159 65.6962 48.1211 66.1958C47.8906 66.7869 47.7375 66.862 46.762 66.862C45.764 66.862 45.6847 66.9036 45.9029 67.3133C46.2086 67.8872 47.4537 68.4126 48.1035 68.2419C48.7849 68.0628 48.9052 68.5267 48.491 69.7344C48.3008 70.2894 48.2306 70.7964 48.335 70.8613C48.4396 70.9263 49.5118 71.0818 50.7181 71.2073C51.9242 71.3325 53.0241 71.5055 53.1623 71.5912C53.3004 71.677 54.5313 71.9498 55.8972 72.1971C57.7682 72.5363 58.8394 72.89 60.2393 73.6308C62.3037 74.7231 62.5998 74.774 63.8461 74.2507C64.322 74.0508 64.988 73.8873 65.3258 73.8873C66.08 73.8873 68.5849 72.5019 68.5849 72.085C68.5849 71.9183 68.8137 71.5745 69.0936 71.3206C69.3733 71.0668 69.9876 70.2761 70.4588 69.5636L71.3154 68.268L70.8846 67.0199C70.2331 65.132 69.3639 64.0092 67.8796 63.1378C66.5545 62.3599 65.8536 61.3284 66.8231 61.5833C67.1722 61.6748 67.2916 61.5629 67.3289 61.1089C67.3979 60.2727 67.1676 59.9955 66.7151 60.3698C66.3804 60.6467 66.3546 60.6046 66.5 60.0183C66.6529 59.402 66.6107 59.3521 65.9372 59.3521C65.3125 59.3521 65.2093 59.4422 65.2093 59.9873C65.2093 60.5224 65.1527 60.5755 64.8506 60.3236C64.5607 60.0818 64.4641 60.0966 64.3478 60.4008C64.1147 61.0118 64.3493 61.6591 64.778 61.5864C64.9952 61.5496 65.2419 61.6315 65.326 61.7681C65.4102 61.905 65.3576 62.0169 65.2093 62.0169C65.061 62.0169 64.9964 62.1092 65.0659 62.2219C65.1351 62.3345 64.6579 62.678 64.0052 62.9852C62.4503 63.717 61.775 64.4622 60.9125 66.3983L60.2017 67.9938L60.8368 69.137L61.4721 70.2799L60.7956 70.8725C60.3319 71.2785 59.8299 71.4648 59.1989 71.4648C58.2625 71.4648 55.1169 70.5343 53.8788 69.8909C53.0969 69.4846 52.1366 68.3538 52.2593 67.9839C52.3929 67.581 53.7052 67.7258 54.6665 68.2496C54.769 68.3053 54.7844 67.9209 54.7008 67.3947C54.5199 66.2592 54.7869 66.0097 55.6826 66.4765C56.1477 66.719 56.5486 66.7532 57.0924 66.5965C57.5104 66.4761 57.8801 66.3775 57.9141 66.3775C57.9483 66.3775 57.976 66.2139 57.976 66.0141C57.976 65.8142 57.7629 65.6507 57.5022 65.6507C56.7729 65.6507 56.5385 64.9143 56.6854 63.0831C56.8045 61.5976 56.7558 61.3168 56.2475 60.5634C55.5736 59.5643 53.6927 58.5192 52.1503 58.2869C50.8396 58.0895 49.7219 57.2157 50.3063 56.8453C50.6299 56.6403 50.6328 56.4812 50.3311 55.4993C49.9446 54.2413 50.0809 52.4096 50.6417 51.32C51.0374 50.5513 51.3645 50.4776 52.0546 51.0021C52.3121 51.1976 52.7731 51.3577 53.0793 51.3577C53.5895 51.3577 53.6365 51.4641 53.6418 52.6296C53.6491 54.2289 53.9871 55.7261 54.4023 55.9981C55.1577 56.4933 55.8024 56.4807 56.5351 55.9564L57.2845 55.4203L57.117 53.2679C57.0248 52.084 57.0087 51.1155 57.0813 51.1155C57.1541 51.1155 57.4422 51.8515 57.7221 52.7507C58.0018 53.6502 58.3495 54.7675 58.4947 55.2338C59.0453 57.0023 60.4431 57.6588 61.5112 56.6505C62.2859 55.9194 62.1988 55.3205 60.8882 52.3587C60.3358 51.1104 59.9237 49.9684 59.9727 49.8209C60.0645 49.544 60.5487 50.3216 62.3616 53.6592L63.4143 55.5972L64.5376 55.6703C65.477 55.7316 65.7058 55.6597 65.9341 55.2314C66.4696 54.2258 66.2791 53.4176 65.13 51.819C64.5166 50.9658 63.6763 49.7967 63.2626 49.2211C61.788 47.1687 63.1189 47.9839 64.7739 50.1465C67.5324 53.7512 67.3195 53.5683 68.6668 53.4891C69.8249 53.421 69.9081 53.3716 70.1203 52.6245C70.3787 51.7146 69.9744 50.4881 69.511 50.7759C69.3504 50.8757 69.299 50.842 69.3887 50.6959C69.5329 50.4614 69.023 49.8303 68.8038 49.9721C68.7498 50.0069 68.2172 49.5677 67.6204 48.996C66.29 47.721 67.0027 47.9417 68.8928 49.3899C70.0848 50.303 70.4306 50.4471 71.3854 50.4277C72.5545 50.4042 73.166 50.0811 73.166 49.4873C73.166 48.6855 72.3715 47.5309 71.4695 47.0214C70.9439 46.7247 70.5138 46.4504 70.5138 46.4124C70.5138 46.3744 71.3003 46.3867 72.2618 46.4398C75.2419 46.6047 76.0846 45.6287 74.2054 44.1887C73.1267 43.3622 73.1083 43.1211 74.1234 43.1211C74.779 43.1211 77.0237 41.8418 77.0237 41.4682C77.0237 40.9726 76.0528 40.3778 74.0098 39.623C73.612 39.4759 73.7495 39.3604 74.7947 38.9641C76.2787 38.4013 77.7471 37.1082 77.7471 36.3639C77.7471 35.7077 76.921 35.369 75.3203 35.369C73.9508 35.369 73.7916 35.0844 74.9024 34.6219C76.4429 33.9809 78.475 31.4169 77.9004 30.8394C77.8201 30.7589 76.9663 30.7052 76.0029 30.7199L74.251 30.7466L75.2588 29.8481C76.833 28.4444 77.8114 26.1154 76.9634 25.7903C76.7978 25.7268 75.9281 25.8795 75.0312 26.1297C73.2651 26.6224 73.2725 26.6375 74.5767 25.2094C74.8885 24.8681 75.3094 24.2665 75.5124 23.8729C75.9578 23.0095 76.2601 19.9537 75.8765 20.1918C75.7198 20.2892 75.6677 20.1744 75.741 19.8924C76.0009 18.8938 75.2605 19.1906 73.5913 20.7543C72.628 21.6567 71.4632 22.7466 71.0032 23.1762C70.0788 24.0391 69.6759 24.0521 70.4245 23.1948C70.9116 22.6371 71.7523 21.3668 72.6285 19.8648C73.4211 18.5067 73.9626 16.3049 73.7832 15.1709C73.613 14.0953 72.7406 12.6015 72.2813 12.5989C72.1263 12.5979 71.484 13.5512 70.8537 14.7169C69.5696 17.0927 69.2262 17.6613 67.3041 20.5915C65.5204 23.3108 65.3321 23.5308 64.9217 23.3724C64.6859 23.2815 64.3645 23.6221 63.9312 24.4218C63.5785 25.073 62.8628 26.0856 62.3411 26.6719C61.5936 27.5115 61.3284 27.6758 61.0926 27.4454C60.8563 27.2145 60.1607 27.7988 57.8019 30.2105C54.7063 33.3753 53.7371 34.7755 53.977 35.7355C54.0529 36.0396 54.4956 36.7457 54.9605 37.3051C56.7526 39.4602 55.4873 41.6676 52.4597 41.6676C50.5923 41.6676 49.9777 40.7931 51.1008 39.733C51.8157 39.0583 52.1021 37.8063 51.7101 37.0701C51.4352 36.5541 51.4147 36.5517 50.9358 36.9841C50.457 37.4165 50.4348 37.4139 50.0818 36.8831C49.8631 36.5541 49.4742 36.338 49.101 36.338H48.4826L49.1304 35.6585C50.0382 34.7065 49.9637 34.4211 48.8471 34.5715C47.6088 34.7384 46.7822 34.1747 46.2634 32.8094C45.7609 31.4879 45.9299 30.1853 46.837 28.3841C47.744 26.5832 48.564 25.8223 49.6951 25.7314C52.6161 25.4967 53.1017 25.5451 53.7245 26.1329C54.0594 26.4492 54.3666 26.933 54.4069 27.2077C54.4751 27.6743 54.5065 27.6806 54.8804 27.3032C55.4299 26.7482 55.177 25.9718 54.2646 25.4129C53.7272 25.0837 53.6392 24.9536 53.9533 24.9531C54.4966 24.9519 55.2375 25.3356 56.126 26.0784C57.1186 26.9078 58.4633 26.8528 59.4791 25.9412C60.3657 25.1452 60.2953 24.815 59.3188 25.1881C58.6065 25.4601 58.0038 25.3702 56.1677 24.7183C55.5046 24.4829 54.5281 24.2069 53.9977 24.1047L53.0333 23.9194L53.7566 23.5989C54.7917 23.1401 56.0467 23.1849 57.0868 23.7176L57.9876 24.1791L58.3054 23.5359C58.5701 23.0008 58.6422 22.1124 58.4893 21.2674C58.4115 20.8367 57.0629 19.851 56.3738 19.7211C55.5989 19.5751 54.1183 18.3386 54.1183 17.8374C54.1183 17.6867 54.3574 16.8928 54.6499 16.0733C55.0974 14.8196 55.1355 14.4812 54.8905 13.941C54.5701 13.2341 53.1022 12.4908 52.3943 12.6769C51.9883 12.7835 51.9543 12.6415 52.009 11.0603C52.0664 9.3975 52.0454 9.32337 51.4933 9.24512C50.6892 9.13078 50.5072 9.5712 50.6446 11.3004C50.7543 12.681 50.7275 12.79 50.3075 12.6798C49.6001 12.4937 48.1233 13.229 47.8082 13.924C47.5767 14.4344 47.609 14.8036 47.9847 15.9352C48.6448 17.9246 48.6451 17.9268 48.2318 17.9268C47.7763 17.9268 44.768 16.1414 43.6162 15.1874C42.5426 14.298 42.5283 13.4298 43.5514 11.2212C43.9774 10.3011 44.3642 9.01328 44.4237 8.31463C44.516 7.23199 44.4512 6.98054 43.9494 6.47641C43.6297 6.15542 42.8464 5.69223 42.2081 5.44731C41.2488 5.07933 40.9643 5.05486 40.5626 5.30705C39.867 5.74335 39.4778 5.30002 39.8453 4.48968C40.1305 3.86104 39.9931 2.51338 39.6205 2.28203C39.1704 2.00247 39.4216 1.68487 39.8928 1.93803C40.3342 2.17544 40.375 2.12214 40.375 1.31132C40.375 0.544828 40.3253 0.46658 40.0075 0.731606C39.5304 1.12963 39.2507 0.848614 39.6468 0.369194C39.9104 0.0503888 39.8359 0 39.101 0C38.3378 0 38.2645 0.0562028 38.3899 0.54507ZM17.3263 8.45441C16.9294 8.6969 16.4204 9.17826 16.195 9.52396C15.5107 10.5732 14.7611 11.1437 14.067 11.1437C13.7043 11.1437 13.0738 11.4259 12.6659 11.7709C11.6952 12.5914 11.6925 13.4606 12.657 14.5461C13.6713 15.6876 13.5464 16.3521 12.3175 16.3521C11.1679 16.3521 10.6355 16.9875 10.9981 17.9268C11.2151 18.4885 11.2501 18.5002 11.4818 18.0862C11.6788 17.7344 11.9042 17.6724 12.5444 17.793C13.0724 17.8926 13.6089 17.8153 14.0752 17.5731C15.0917 17.045 15.1264 17.0852 14.581 18.1593C13.9708 19.3614 13.9725 19.6441 14.5938 20.4377C15.2966 21.3358 15.7065 21.2626 15.5901 20.2599C15.5257 19.7049 15.6954 19.0661 16.1207 18.2633C16.8889 16.8131 16.8896 16.7414 16.1434 15.262C15.5628 14.111 15.3567 12.4979 15.7251 11.9894C16.0038 11.6047 18.63 10.6027 18.9077 10.775C19.2653 10.9971 19.2156 12.1282 18.7956 13.3239C18.1981 15.0253 18.3134 15.832 19.2745 16.6799C20.0284 17.3451 22.4598 18.3233 22.7168 18.0648C22.773 18.0086 22.4562 17.7778 22.0128 17.552C21.5694 17.3262 21.017 16.9742 20.7848 16.7698C20.2184 16.271 20.244 14.7009 20.8398 13.3818C21.7538 11.3588 21.8341 10.71 21.2494 10.0748C20.9608 9.76112 20.1222 9.16905 19.3859 8.75916C18.0544 8.01762 18.0438 8.01617 17.3263 8.45441ZM58.3748 8.93407C56.3179 10.0649 56.145 10.5104 56.9487 12.6069C57.6775 14.5076 57.867 15.7724 57.5206 16.4229C57.3778 16.691 56.7707 17.1489 56.1718 17.4403C55.5729 17.7315 55.0827 18.0026 55.0827 18.0426C55.0827 18.0823 55.7424 17.9478 56.5489 17.7439C59.2423 17.0622 60.1966 15.559 59.3021 13.4078C59.1032 12.9293 58.9405 12.1153 58.9405 11.5986C58.9405 10.4947 59.2168 10.4201 60.6282 11.1437C61.1481 11.4101 61.7279 11.6282 61.9167 11.6282C62.7302 11.6282 62.75 13.8327 61.9481 15.1408C61.1946 16.3698 61.2011 16.8485 61.9907 18.3146C62.3674 19.0138 62.6118 19.8251 62.586 20.2887C62.5369 21.1676 62.7811 21.2861 63.3352 20.6521C63.9751 19.92 64.0262 19.2848 63.5252 18.2974C62.9576 17.1789 63.0466 16.9902 63.882 17.5404C64.3271 17.8333 64.7425 17.9004 65.3747 17.7812C66.0619 17.6518 66.3182 17.7082 66.562 18.0435C66.8474 18.4357 66.887 18.4154 67.041 17.7979C67.2862 16.817 66.8814 16.3521 65.7824 16.3521C64.5362 16.3521 64.4067 15.6457 65.4367 14.4667C66.7657 12.946 66.2136 11.6764 63.9905 11.1405C63.0034 10.9026 62.6772 10.6633 61.8637 9.58064C61.3352 8.87738 60.6931 8.24679 60.4365 8.17945C60.1655 8.10823 59.3028 8.42388 58.3748 8.93407ZM41.8479 15.8662C42.4302 16.3318 43.6661 17.0006 44.5944 17.3524C47.0405 18.2792 47.0981 18.4948 44.8452 18.2914C43.0284 18.1273 42.945 18.1409 43.2779 18.5464C43.4716 18.7819 44.1182 19.2013 44.715 19.4786L45.8 19.9825L44.6354 20.1053L43.4706 20.2282L44.2255 20.6729C44.8198 21.0232 44.9226 21.1882 44.7077 21.4482C44.2462 22.007 42.437 22.7718 41.5767 22.7718C40.9975 22.7718 40.8355 22.8469 41.0185 23.0308C41.1603 23.1732 41.4805 23.3285 41.7298 23.3758C41.9793 23.423 42.2072 23.4698 42.2361 23.4799C42.2653 23.4904 41.7874 24.4843 41.1747 25.6891C40.5618 26.8938 39.8228 28.8289 39.5325 29.9891L39.0048 32.0986L38.5833 30.1984C38.3422 29.1109 37.6637 27.3 36.997 25.965C36.3564 24.682 35.8843 23.5475 35.948 23.4443C36.0114 23.3409 36.2677 23.2563 36.5172 23.2563C36.7668 23.2563 37.038 23.1473 37.12 23.0141C37.2092 22.8692 36.9085 22.7718 36.3718 22.7718C35.8525 22.7718 35.0462 22.5196 34.4569 22.1727C33.424 21.5644 32.8873 20.8338 33.4734 20.8338C33.6478 20.8338 33.9622 20.6431 34.1724 20.4099C34.5324 20.0106 34.4818 19.9895 33.3056 20.0474L32.0567 20.109L33.2622 19.5416C33.9253 19.2298 34.6293 18.778 34.8266 18.538C35.1692 18.1213 35.0971 18.1094 33.2593 18.2778C31.0404 18.4813 31.0843 18.3112 33.5033 17.3279C34.4316 16.9505 35.67 16.2768 36.2554 15.8308C37.2338 15.0851 37.4595 15.0197 39.0544 15.0197C40.674 15.0197 40.8599 15.0762 41.8479 15.8662ZM39.6538 34.0393C40.2354 34.7433 43.4004 36.5335 44.7367 36.9141C45.4778 37.1254 46.8227 37.403 47.7252 37.5316C48.6277 37.66 49.4735 37.8729 49.6047 38.0047C50.1047 38.5072 50.3642 42.5683 50.0553 45.055C49.3334 50.8655 47.1796 57.4778 44.8705 60.9713C44.4138 61.662 44.0835 62.289 44.1365 62.3643C44.1893 62.4396 44.1684 62.4549 44.0898 62.3982C44.0112 62.3413 43.1523 63.2541 42.1811 64.4264C41.2102 65.5984 40.068 66.8063 39.6432 67.1103L38.8705 67.6631L36.8331 65.5061C32.4183 60.833 30.4629 56.877 28.6582 48.9682C27.6738 44.6539 27.6492 38.3684 28.6141 37.753C28.7836 37.645 29.3562 37.5534 29.8867 37.5495C32.2836 37.5314 35.5398 36.2884 37.7228 34.5582C38.9435 33.5906 39.2215 33.5158 39.6538 34.0393ZM33.6239 40.2003C33.6239 40.3258 33.8537 40.8197 34.1343 41.2977C34.5095 41.9365 34.7607 42.1298 35.0826 42.0271C35.3625 41.938 35.9677 42.2103 36.7591 42.7815C37.8638 43.5787 37.9583 43.7151 37.6336 44.0412C37.3088 44.3675 37.2037 44.3639 36.6607 44.0063C35.7691 43.4193 35.3864 43.5177 36.0017 44.1757L36.5348 44.7459L35.6666 45.4112C34.8357 46.048 34.8162 46.0965 35.2131 46.5369C35.6135 46.9817 35.5955 46.9972 34.671 46.9972C33.8845 46.9972 33.6181 46.8659 33.1713 46.2588C32.7115 45.6343 32.6363 45.2573 32.6828 43.8145C32.7426 41.961 32.5765 41.678 31.423 41.6712C30.441 41.6657 30.164 42.2011 30.3103 43.822C30.5736 46.7399 31.8308 48.1152 33.9856 47.8422C34.6486 47.7581 35.5709 47.6409 36.035 47.5815C36.6221 47.5064 37.0556 47.613 37.4595 47.9316L38.0401 48.3894L36.59 49.4498C35.7924 50.0329 35.1154 50.6048 35.0857 50.7209C35.0561 50.8367 35.6644 51.3536 36.4377 51.8696C37.2107 52.3854 37.8433 52.907 37.8433 53.0286C37.8433 53.1504 37.2598 53.6531 36.5469 54.1458C35.548 54.8363 35.2053 54.9683 35.0532 54.721C34.9445 54.5443 34.8152 54.4513 34.7656 54.5141C34.5772 54.7527 33.6239 56.4778 33.6239 56.58C33.6239 56.7423 35.4585 56.7084 35.9009 56.5379C36.1847 56.4284 36.2199 56.3058 36.0326 56.0788C35.838 55.8433 36.1114 55.5303 37.1716 54.7745C37.9388 54.2277 38.7087 53.7803 38.8825 53.7803C39.4445 53.7803 41.8031 55.5841 41.8125 56.0211C41.8175 56.2542 41.9031 56.4589 42.0025 56.4761C42.1018 56.493 42.4179 56.532 42.7046 56.563C42.9913 56.5938 43.3877 56.6815 43.5851 56.7576C44.1963 56.9933 44.2325 56.6677 43.7105 55.6277C43.0802 54.3716 43.0993 54.39 42.7316 54.6822C42.5117 54.8571 42.0647 54.6929 41.1586 54.1042C40.4625 53.6516 39.8928 53.1776 39.8928 53.0501C39.8928 52.9229 40.598 52.3713 41.46 51.8243C42.3219 51.2773 43.0272 50.7863 43.0272 50.7332C43.0272 50.6802 42.3219 50.1818 41.46 49.6259C40.598 49.0697 39.8928 48.5258 39.8928 48.4173C39.8928 48.3085 40.1669 48.0391 40.502 47.8184C41.025 47.4742 41.3037 47.4563 42.4712 47.6917C44.4801 48.0973 45.0795 48.0345 45.9109 47.3315C46.8379 46.5478 47.2953 45.485 47.5044 43.6284C47.6488 42.3454 47.6148 42.1727 47.1704 41.9336C46.4768 41.5608 45.5511 41.6027 45.2042 42.0225C45.0156 42.251 44.9679 42.7163 45.0704 43.3261C45.4277 45.4511 44.6142 46.9972 43.1383 46.9972C42.2711 46.9972 42.1095 46.8048 42.5797 46.3324C42.7866 46.1246 42.6636 45.8935 42.0871 45.4061C41.3857 44.813 41.3512 44.7207 41.691 44.3438C42.3931 43.5642 41.8609 43.2757 41.0614 44.0024C40.7121 44.32 40.5544 44.3401 40.2699 44.103C39.9885 43.8682 39.9731 43.7122 40.1958 43.3537C40.3506 43.1047 40.5218 42.9457 40.5765 43.0005C40.631 43.0552 41.0368 42.8234 41.4783 42.485C41.9588 42.1167 42.4548 41.9249 42.7145 42.0068C43.0366 42.1085 43.2917 41.891 43.7095 41.1577C44.0184 40.6155 44.2209 40.1215 44.1597 40.0598C44.0982 39.9982 43.4901 40.022 42.808 40.1128C41.7594 40.2526 41.5895 40.3454 41.7059 40.7141C41.8108 41.0455 41.4904 41.3912 40.3687 42.1562L38.8938 43.1626L37.8865 42.5053C36.4509 41.5685 35.811 40.9358 35.9448 40.5855C36.0201 40.3883 35.7392 40.2284 35.1436 40.1295C33.891 39.9214 33.6239 39.9338 33.6239 40.2003ZM39.379 44.6575C39.6951 45.04 39.5014 45.3014 38.9023 45.3014C38.4073 45.3014 38.1093 44.9262 38.3255 44.5746C38.536 44.2326 39.0621 44.274 39.379 44.6575ZM37.8433 45.7784C37.8433 46.2055 36.8237 46.5728 36.6086 46.2229C36.4227 45.9209 37.2056 45.2493 37.5926 45.3789C37.7305 45.4252 37.8433 45.605 37.8433 45.7784ZM40.9647 45.6735C41.6126 46.1658 41.1376 46.6806 40.4008 46.2842C39.8793 46.0039 39.7708 45.7469 40.0536 45.463C40.2814 45.2338 40.4324 45.2687 40.9647 45.6735ZM39.5215 46.5524C40.1013 46.8177 40.1139 46.8603 39.7365 47.2792C39.2529 47.816 38.7306 47.8347 38.0844 47.3378C37.608 46.9715 37.6078 46.963 38.0702 46.6188C38.6361 46.1977 38.7366 46.1931 39.5215 46.5524ZM3.56927 47.3528C3.64402 47.5483 3.60134 47.7729 3.47452 47.8516C3.34769 47.9303 3.24401 47.9427 3.24401 47.8792C3.24401 47.8155 3.17819 47.5912 3.09766 47.3804C3.01713 47.1697 3.05981 46.9972 3.19242 46.9972C3.32503 46.9972 3.49477 47.1573 3.56927 47.3528ZM10.4792 48.8746C9.90227 49.3744 9.23174 49.9255 8.98919 50.0997C8.74687 50.2737 8.54844 50.5799 8.54844 50.7802C8.54844 50.9803 8.45127 51.0838 8.33265 51.0101C8.05127 50.8354 7.82704 51.4437 7.81787 52.4072C7.81136 53.079 7.77761 53.118 7.54759 52.7199C7.40292 52.4699 7.24379 51.843 7.19364 51.327C7.12348 50.6026 7.18785 50.3887 7.4755 50.3887C7.9189 50.3887 10.216 48.9449 10.6876 48.3698C10.8696 48.1476 11.1334 47.9662 11.2735 47.9662C11.4138 47.9662 11.0565 48.3751 10.4792 48.8746ZM15.3719 48.2819C15.2658 48.4553 14.3794 49.7126 13.4025 51.0758C11.8437 53.2505 11.6443 53.647 11.7764 54.3103C11.8591 54.7263 12.0479 55.2132 12.196 55.3925C12.4725 55.7273 13.7612 55.8314 14.4313 55.573C14.6384 55.4933 15.4883 54.1664 16.3197 52.625C18.0991 49.3255 18.4491 49.5198 16.873 52.9322C16.2683 54.2408 15.8317 55.495 15.9025 55.7188C15.9732 55.9429 16.2777 56.3591 16.5791 56.6435C17.0575 57.095 17.2414 57.1292 18.0241 56.9121C19.1366 56.6035 19.457 56.1069 20.1232 53.6592C20.799 51.1761 21.1985 50.7238 20.9789 52.6901C20.8894 53.4896 20.7612 54.3353 20.6934 54.5693C20.5401 55.0998 21.8228 56.4451 22.4817 56.4451C22.7392 56.4451 23.2263 56.2268 23.5638 55.9601C24.1037 55.5335 24.1979 55.2275 24.3481 53.4164C24.4865 51.7449 24.5926 51.3575 24.9121 51.3568C25.1286 51.3563 25.6571 51.1404 26.0868 50.8774L26.8682 50.3987L27.2424 50.9726C27.7714 51.7836 28.0477 53.852 27.8033 55.1674C27.689 55.7818 27.5431 56.3368 27.479 56.4012C27.4151 56.4657 27.5294 56.6408 27.7333 56.7908C28.0576 57.0289 28.0311 57.1319 27.5231 57.6115C27.2034 57.9131 26.5196 58.2205 26.0031 58.2942C23.6914 58.6249 21.3456 60.3441 21.3114 61.7327C21.2214 65.3864 21.2475 65.2592 20.5176 65.6117C19.939 65.8913 19.8809 65.9964 20.156 66.2687C20.6551 66.7631 21.6817 66.8588 22.4106 66.479C23.3032 66.0138 23.5262 66.2316 23.342 67.3886C23.1896 68.3467 23.1988 68.3635 23.7254 68.0803C24.4494 67.691 25.62 67.5582 25.7967 67.8455C26.157 68.4313 25.5419 69.0643 23.809 69.8906C20.8344 71.3093 18.9152 71.1562 18.1027 69.4357C17.6344 68.4444 17.4182 68.3458 16.2018 68.5691C15.2583 68.7426 14.8173 68.4085 14.8173 67.5207C14.8173 67.0526 14.1596 65.7646 13.7429 65.4172C13.5551 65.2607 13.3284 64.7859 13.2388 64.3622C13.1491 63.9382 12.9149 63.4079 12.7182 63.1836C12.3317 62.7432 8.06622 54.1114 8.06622 53.7701C8.06622 53.6565 8.63403 53.5305 9.32795 53.4901L10.5897 53.4169L12.8843 50.7005C14.1463 49.2063 15.2658 47.98 15.3719 47.9752C15.4779 47.9703 15.4779 48.1082 15.3719 48.2819ZM40.2392 49.8243L41.4294 50.7012L40.7417 51.2524C39.3717 52.3498 39.0129 52.4489 38.1322 51.9721C37.6914 51.7337 37.1205 51.3808 36.8637 51.1879C36.4133 50.8495 36.4268 50.8122 37.2405 50.1409C37.7047 49.7581 38.1929 49.3357 38.3255 49.2022C38.7142 48.8109 38.9818 48.8979 40.2392 49.8243ZM38.6872 70.2407C38.6872 70.7509 38.4032 72.1344 38.0562 73.3151C37.2015 76.2234 36.788 78.4318 36.7185 80.4597C36.6556 82.303 36.5167 82.5733 35.9342 81.988C34.9922 81.0416 35.1533 78.6144 36.3709 75.4087C36.8297 74.2006 37.3845 72.4648 37.6039 71.5513C37.8231 70.6375 38.056 69.6978 38.1211 69.4626C38.3193 68.7482 38.6872 69.254 38.6872 70.2407ZM40.7996 72.4338C41.1998 73.8328 41.8103 75.7784 42.1565 76.7571C42.8914 78.8341 42.971 80.6445 42.3723 81.6627C41.676 82.8471 41.4057 82.4849 41.3602 80.307C41.3264 78.6939 40.9679 76.767 40.2585 74.3859C39.5991 72.1719 39.2586 69.7274 39.5451 69.262C39.7761 68.8862 39.8089 68.9693 40.7996 72.4338ZM44.0599 72.6245C46.4179 74.585 47.1666 75.93 46.3545 76.7459C45.8981 77.2045 45.7257 77.1035 45.1417 76.0347C44.1737 74.2628 44.0579 74.0952 43.0971 73.0748C42.1199 72.0368 41.2854 70.5358 41.88 70.8856C42.0468 70.9837 43.0277 71.7662 44.0599 72.6245ZM36.2761 71.0738C36.2761 71.3921 35.5195 72.5259 34.8521 73.2078C34.421 73.6482 33.6878 74.6899 33.2227 75.5225C32.7573 76.3554 32.2995 77.0366 32.2047 77.0366C31.8346 77.0366 31.4539 76.4252 31.4539 75.8309C31.4539 74.9566 31.9412 74.3459 34.0644 72.5574C35.7264 71.1576 36.2761 70.7887 36.2761 71.0738ZM30.7909 78.4763C31.4346 78.8005 31.7179 79.7511 31.256 80.0379C31.0066 80.1927 29.525 79.3027 29.525 78.9979C29.525 78.5958 29.8213 77.9829 29.9766 78.0638C30.0598 78.1069 30.4263 78.2925 30.7909 78.4763ZM48.3287 78.4846C48.5313 78.8649 48.4835 79.0643 48.0961 79.4536C47.4219 80.1309 46.6436 80.1014 46.6443 79.3986C46.6446 78.9587 47.2473 78.3588 48.0218 78.0277C48.0502 78.0156 48.1884 78.2212 48.3287 78.4846Z" fill="#435465"/>
</svg>
