<?xml version="1.0" encoding="utf-8"?>
<!-- Generator: Adobe Illustrator 17.1.0, SVG Export Plug-In . SVG Version: 6.00 Build 0)  -->
<!DOCTYPE svg PUBLIC "-//W3C//DTD SVG 1.1//EN" "http://www.w3.org/Graphics/SVG/1.1/DTD/svg11.dtd">
<svg version="1.1" id="Layer_1" xmlns="http://www.w3.org/2000/svg" xmlns:xlink="http://www.w3.org/1999/xlink" x="0px" y="0px"
	 viewBox="0 0 168 44" enable-background="new 0 0 168 44" xml:space="preserve">
<g id="Page-1">
	<g id="Group" transform="translate(-61.476562, -61.796875)">
		<g id="Clipped">
			<g id="SVGID_79_">
			</g>
			<defs>
				<filter id="Adobe_OpacityMaskFilter" filterUnits="userSpaceOnUse" x="61.6" y="62.8" width="42" height="42">
					<feColorMatrix  type="matrix" values="1 0 0 0 0  0 1 0 0 0  0 0 1 0 0  0 0 0 1 0"/>
				</filter>
			</defs>
			<mask maskUnits="userSpaceOnUse" x="61.6" y="62.8" width="42" height="42" id="mask-2_1_">
				<g filter="url(#Adobe_OpacityMaskFilter)">
					<rect id="path-1_1_" x="40.5" y="41.8" fill="#FFFFFF" width="210.1" height="84"/>
				</g>
			</mask>
			<path id="Shape" mask="url(#mask-2_1_)" fill="#435465" d="M82.6,62.8c-11.6,0-21,9.4-21,21c0,11.6,9.4,21,21,21
				c11.6,0,21-9.4,21-21C103.6,72.2,94.2,62.8,82.6,62.8 M95.8,90c0-0.1-0.1-0.1-0.2-0.1c-1.7-0.4-1.7-2.2-1.7-2.7
				c-1.4,0-2-1.5-2.1-1.9c-0.1-0.3-0.2-0.7-0.3-1.1c0,0.8-1.1,1.4-2.3,0.2c0,1.2-1.5,1-2.2,0.3c-0.1,0.2-0.5,0.9-0.5,0.9
				c0.8,0.2,1.2,0.3,1.6,0.7c0.9,0.8,1,2.2,1,2.9c0,0,1.3,1.3,1.8,1.7c0.1,0.1,0.3,0.3,0.5,0.4c1.3-1.5,1.7-0.9,1.7-0.9
				c1-0.4,1.5,0.3,1.3,0.7c-0.2-0.3-0.6-0.2-0.8,0c1.3,0.2,1,1.2,0.7,1.4c0-0.3-0.1-0.6-0.5-0.6c0,0.4-0.3,0.5-0.5,0.5
				c-0.6,0-1.7,0.1-2.1,0.4c-0.2,0.2-0.1,0.7-0.3,0.9c-0.2,0.2-0.3,0.1-0.4,0.1c0,0.2,0,0.4,0.3,0.7c-0.9,0.1-1.6-0.7-1.2-1.2
				c0.2-0.2,0.9-0.8,0.9-1.1c0-0.3-0.3-0.6-0.5-0.8c-0.5-0.4-0.9-0.8-1.4-1.1c-0.1-0.1-0.3-0.2-0.5-0.3c-0.1-0.1-0.3-0.1-0.5-0.1
				c-0.4,0.1-0.4,0.1-0.5,0c-0.4-0.2-1-0.8-2.3-0.9c0.1,0.1,0.2,0.1,0.2,0.2c0.1,0.1,0.1,0.2,0.2,0.4c0.1,0.2,0.2,0.4,0.2,0.6
				c0.9,2,1.7,4.1,2.6,6.1c0.3,0.7,0,1.3-0.7,1.6c-0.5,0.2-1.1,0.1-1.4-0.4c0.1,0.3,0.1,0.6,0,0.9c-0.1,0.3-0.4,0.5-0.6,0.6
				C85.1,99,84.7,99,84.4,99c-0.3-0.1-0.5-0.3-0.7-0.6c0,0.7-0.5,1.2-1.2,1.2c-0.7,0-1.2-0.5-1.2-1.2c-0.2,0.3-0.4,0.5-0.7,0.6
				c-0.3,0.1-0.6,0-0.9-0.1c-0.3-0.1-0.5-0.3-0.6-0.6c-0.1-0.3-0.1-0.6,0-0.9c-0.3,0.5-0.9,0.6-1.4,0.4c-0.7-0.3-1-0.9-0.7-1.6
				c0.9-2,1.7-4.1,2.6-6.1c0.1-0.2,0.1-0.4,0.2-0.6c0.1-0.2,0.1-0.3,0.2-0.4c0.1-0.1,0.1-0.1,0.2-0.2c-1.3,0.2-2,0.7-2.3,0.9
				c-0.1,0.1-0.1,0.1-0.4,0c-0.2-0.1-0.4,0-0.5,0.1c-0.2,0.1-0.3,0.2-0.5,0.3c-0.5,0.4-1,0.7-1.4,1.1c-0.2,0.2-0.5,0.5-0.5,0.8
				c0,0.3,0.7,0.9,0.9,1.1c0.5,0.4-0.2,1.3-1.2,1.2c0.2-0.3,0.3-0.5,0.3-0.7c-0.1,0-0.3,0-0.4-0.1c-0.2-0.2-0.1-0.7-0.3-0.9
				c-0.3-0.3-1.4-0.4-2.1-0.4c-0.3,0-0.6-0.1-0.5-0.5c-0.4,0-0.5,0.3-0.5,0.6c-0.4-0.2-0.7-1.2,0.7-1.4c-0.2-0.2-0.6-0.3-0.8,0
				c-0.2-0.4,0.3-1,1.3-0.7c0,0,0.4-0.6,1.7,0.9c0.2-0.1,0.3-0.2,0.5-0.4c0.5-0.5,1.8-1.7,1.8-1.7c0-0.7,0.1-2.1,1-2.9
				c0.4-0.3,0.8-0.5,1.6-0.7c0,0-0.4-0.6-0.5-0.9c-0.7,0.7-2.2,0.9-2.2-0.3c-1.2,1.2-2.3,0.6-2.3-0.2c0,0.4-0.1,0.8-0.3,1.1
				c-0.2,0.4-0.7,1.9-2.1,1.9c0,0.5,0,2.3-1.7,2.7c-0.1,0-0.2,0-0.2,0.1c-0.7,0.8-3.5,1.7-3.9,1.5c0.2-0.2,0.6-0.4,0.6-1.4
				c0-0.7,0.1-4.1,0.1-8.9c0-1.7,0.2-7.2,5.6-8c0.8-0.1,1.6-0.1,2.3,0.5c1,0.7,1.4,1.9,0.9,3.3c0,0,0,0.1-0.1,0.1
				c-0.2,0.3-0.1,0.6,0.1,0.9c0.5,0.5,1,0.8,1.6,0.8c0.4,0,0.7-0.1,1-0.4c0.6-0.6,1-1.4,1.2-2.2c0.3-1.6-0.2-2.5-0.2-2.5
				c-0.4-0.9-1.4-1.5-2.5-1.6c-0.5-0.9-1.9-0.6-1.9-0.6c-0.4,0.1-0.5,0.2-0.6,0.4c0,0-0.6-1,0-1.3c0.6-0.4,1.9-0.5,1.9-0.5
				c0-0.6,1-1.1,2.9-0.8c2.3,0.4,2.7-0.5,2.7-0.5c0.1,1.1-0.7,1.6-1,1.8c0.9,0.9,2,2.8,2.3,5.4c0.3-2.6,1.5-4.5,2.3-5.4
				c-0.3-0.2-1.1-0.7-1-1.8c0,0,0.5,0.9,2.7,0.5c1.9-0.3,2.9,0.2,2.9,0.8c0,0,1.3,0.2,1.9,0.5c0.6,0.4,0,1.3,0,1.3
				c-0.1-0.2-0.2-0.3-0.6-0.4c0,0-1.4-0.4-1.9,0.6c-1.1,0.1-2,0.7-2.5,1.6c0,0.1-0.4,0.9-0.2,2.5c0.1,0.9,0.6,1.6,1.2,2.2
				c0.3,0.3,0.6,0.5,1,0.4c0.6-0.1,1.2-0.4,1.6-0.8c0.2-0.2,0.3-0.5,0.1-0.9c0,0,0-0.1-0.1-0.1c-0.6-1.4-0.1-2.6,0.9-3.3
				c0.7-0.5,1.5-0.6,2.3-0.5c5.4,0.8,5.6,6.3,5.6,8c0,4.8,0.1,8.2,0.1,8.9c0.1,1,0.4,1.2,0.6,1.4C99.3,91.7,96.5,90.8,95.8,90"/>
		</g>
		<g id="Clipped_1_">
			<g id="SVGID_1_">
			</g>
			<defs>
				<filter id="Adobe_OpacityMaskFilter_1_" filterUnits="userSpaceOnUse" x="114" y="76.3" width="9.8" height="15.1">
					<feColorMatrix  type="matrix" values="1 0 0 0 0  0 1 0 0 0  0 0 1 0 0  0 0 0 1 0"/>
				</filter>
			</defs>
			<mask maskUnits="userSpaceOnUse" x="114" y="76.3" width="9.8" height="15.1" id="mask-4_1_">
				<g filter="url(#Adobe_OpacityMaskFilter_1_)">
					<rect id="path-3_1_" x="40.5" y="41.8" fill="#FFFFFF" width="210.1" height="84"/>
				</g>
			</mask>
			<path id="Shape_1_" mask="url(#mask-4_1_)" fill="#435465" d="M118,76.5c1.2,0,3.5-0.1,4.9-0.2c0,0.2-0.1,0.6-0.1,0.7
				c0,0.1,0,0.5,0.1,0.7c-1.2-0.2-3.2-0.3-3.8-0.3c-0.4,0-2.1,0-3,0.1v5.2h1.1c2.2,0,6.7,0.4,6.7,4.2c0,3.1-2.6,4.4-5.9,4.4
				c-0.4,0-1.8-0.1-2.7-0.1c-0.4,0-0.9,0-1.2,0.1c0.1-2.3,0.2-5.4,0.2-8.1c0-2.3,0-5.9-0.2-7C115.4,76.3,117.6,76.5,118,76.5z
				 M116.1,90.2c0.5,0,1.2,0,1.8,0c2.5,0,3.9-1.1,3.9-3.3c0-2.3-1.7-3.1-5.6-3.1V90.2z"/>
		</g>
		<g id="Clipped_2_">
			<g id="SVGID_2_">
			</g>
			<defs>
				<filter id="Adobe_OpacityMaskFilter_2_" filterUnits="userSpaceOnUse" x="125.3" y="80.7" width="9.5" height="10.9">
					<feColorMatrix  type="matrix" values="1 0 0 0 0  0 1 0 0 0  0 0 1 0 0  0 0 0 1 0"/>
				</filter>
			</defs>
			<mask maskUnits="userSpaceOnUse" x="125.3" y="80.7" width="9.5" height="10.9" id="mask-6_1_">
				<g filter="url(#Adobe_OpacityMaskFilter_2_)">
					<rect id="path-5_1_" x="40.5" y="41.8" fill="#FFFFFF" width="210.1" height="84"/>
				</g>
			</mask>
			<path id="Shape_2_" mask="url(#mask-6_1_)" fill="#435465" d="M126.2,82.1c0.8-1,2.3-1.4,3.6-1.4c2.2,0,3.7,1.1,3.7,3.7v5.2
				c0,1.1,0.2,1.3,0.7,1.3c0.1,0,0.4,0,0.5-0.1l0.1,0.5c-0.7,0.3-1.3,0.4-1.6,0.4c-0.7,0-1.1-0.3-1.3-0.9l-0.1-0.5
				c-1.1,0.9-2.3,1.4-3.4,1.4c-1.9,0-3.1-1-3.1-2.7c0-1.9,1.4-2.7,3.3-3.1l2.1-0.4c0.7-0.1,1.1-0.3,1.1-0.9c0-2.3-1-2.8-2.5-2.8
				c-1.2,0-2.1,0.4-2.8,1.7h-0.3V82.1z M131.8,86l-1.4,0.2c-1.5,0.2-3.2,0.7-3.2,2.3c0,1.2,0.7,1.8,2,1.8c0.8,0,1.7-0.3,2.5-1.2V86z
				"/>
		</g>
		<g id="Clipped_3_">
			<g id="SVGID_3_">
			</g>
			<defs>
				<filter id="Adobe_OpacityMaskFilter_3_" filterUnits="userSpaceOnUse" x="136.5" y="80.9" width="9.1" height="10.5">
					<feColorMatrix  type="matrix" values="1 0 0 0 0  0 1 0 0 0  0 0 1 0 0  0 0 0 1 0"/>
				</filter>
			</defs>
			<mask maskUnits="userSpaceOnUse" x="136.5" y="80.9" width="9.1" height="10.5" id="mask-8_1_">
				<g filter="url(#Adobe_OpacityMaskFilter_3_)">
					<rect id="path-7_1_" x="40.5" y="41.8" fill="#FFFFFF" width="210.1" height="84"/>
				</g>
			</mask>
			<path id="Path" mask="url(#mask-8_1_)" fill="#435465" d="M137.6,80.9c0.2,0,0.7,0,1-0.1c-0.2,1.6-0.2,4.2-0.2,4.3
				c0.9,0,2.1,0.1,2.8,0.1c0.7,0,2,0,2.6-0.1c0-0.1,0-2.7-0.2-4.3c0.3,0,0.8,0.1,1.1,0.1c0.2,0,0.7,0,1-0.1
				c-0.2,1.6-0.2,4.2-0.2,5.3c0,0.9,0,3.7,0.2,5.3c-0.3,0-0.6-0.1-1-0.1c-0.4,0-0.8,0-1.1,0.1c0.2-1.6,0.2-4.4,0.2-5
				c-0.9-0.1-2.2-0.1-2.6-0.1c-0.6,0-2,0-2.8,0.1c0,0.7,0,3.5,0.2,5.1c-0.3,0-0.6-0.1-1-0.1c-0.4,0-0.8,0-1.1,0.1
				c0.2-1.6,0.2-4.4,0.2-5.3c0-1.1,0-3.7-0.2-5.3C136.9,80.9,137.3,80.9,137.6,80.9"/>
		</g>
		<g id="Clipped_4_">
			<g id="SVGID_4_">
			</g>
			<defs>
				<filter id="Adobe_OpacityMaskFilter_4_" filterUnits="userSpaceOnUse" x="148.5" y="80.9" width="9.2" height="10.5">
					<feColorMatrix  type="matrix" values="1 0 0 0 0  0 1 0 0 0  0 0 1 0 0  0 0 0 1 0"/>
				</filter>
			</defs>
			<mask maskUnits="userSpaceOnUse" x="148.5" y="80.9" width="9.2" height="10.5" id="mask-10_1_">
				<g filter="url(#Adobe_OpacityMaskFilter_4_)">
					<rect id="path-9_1_" x="40.5" y="41.8" fill="#FFFFFF" width="210.1" height="84"/>
				</g>
			</mask>
			<path id="Path_1_" mask="url(#mask-10_1_)" fill="#435465" d="M149.5,80.9c0.2,0,0.7,0,1-0.1c-0.2,1.6-0.2,4.2-0.2,4.6h0.3
				c0.7,0,4.2-4,4.5-4.6c0.3,0,0.8,0.1,1,0.1c0.2,0,0.7,0,1-0.1l-5,4.4c0.6,0.7,3.9,4.5,5.4,6.1c-0.6,0-1-0.1-1.2-0.1
				c-0.4,0-0.9,0-1.4,0.1c-0.8-1.2-3.1-4-4.4-5.4h-0.3c0,0.8,0,3.8,0.2,5.4c-0.3,0-0.6-0.1-1-0.1c-0.3,0-0.8,0-1.1,0.1
				c0.2-1.6,0.2-4.4,0.2-5.3c0-1.1,0-3.7-0.2-5.3C148.8,80.9,149.3,80.9,149.5,80.9"/>
		</g>
		<g id="Clipped_5_">
			<g id="SVGID_5_">
			</g>
			<defs>
				<filter id="Adobe_OpacityMaskFilter_5_" filterUnits="userSpaceOnUse" x="164.8" y="76.3" width="9.6" height="15.1">
					<feColorMatrix  type="matrix" values="1 0 0 0 0  0 1 0 0 0  0 0 1 0 0  0 0 0 1 0"/>
				</filter>
			</defs>
			<mask maskUnits="userSpaceOnUse" x="164.8" y="76.3" width="9.6" height="15.1" id="mask-12_1_">
				<g filter="url(#Adobe_OpacityMaskFilter_5_)">
					<rect id="path-11_1_" x="40.5" y="41.8" fill="#FFFFFF" width="210.1" height="84"/>
				</g>
			</mask>
			<path id="Shape_3_" mask="url(#mask-12_1_)" fill="#435465" d="M166.9,76.3c0.7,0,1.7-0.1,2.2-0.1c3.8,0,5.3,1.2,5.3,3.8
				c0,3.4-2.8,4.5-6.2,4.5c-0.2,0-1,0-1.4-0.1V88c0,1,0,2.3,0.2,3.3c-0.4,0-0.7-0.1-1.1-0.1c-0.4,0-0.8,0-1.1,0.1
				c0.1-2.3,0.2-5.4,0.2-8.1c0-2.3,0-5.9-0.2-7C165.4,76.3,166.4,76.3,166.9,76.3 M167.7,83.4c2.9,0,4.6-1.2,4.6-3.4
				c0-2.1-1.6-2.6-3.6-2.6c-0.4,0-1.6,0-1.9,0.1v5.8C167,83.4,167.5,83.4,167.7,83.4"/>
		</g>
		<g id="Clipped_6_">
			<g id="SVGID_6_">
			</g>
			<defs>
				<filter id="Adobe_OpacityMaskFilter_6_" filterUnits="userSpaceOnUse" x="174.7" y="80.7" width="10.5" height="10.9">
					<feColorMatrix  type="matrix" values="1 0 0 0 0  0 1 0 0 0  0 0 1 0 0  0 0 0 1 0"/>
				</filter>
			</defs>
			<mask maskUnits="userSpaceOnUse" x="174.7" y="80.7" width="10.5" height="10.9" id="mask-14_1_">
				<g filter="url(#Adobe_OpacityMaskFilter_6_)">
					<rect id="path-13_1_" x="40.5" y="41.8" fill="#FFFFFF" width="210.1" height="84"/>
				</g>
			</mask>
			<path id="Shape_4_" mask="url(#mask-14_1_)" fill="#435465" d="M185.2,86.1c0,3.2-2.1,5.5-5.3,5.5c-3.2,0-5.2-2.3-5.2-5.3
				c0-3.4,2.2-5.7,5.4-5.7C183.2,80.7,185.2,83,185.2,86.1 M176.7,86.3c0,2.3,1,4.5,3.2,4.5c2.1,0,3.4-2,3.4-4.8
				c0-2.2-0.9-4.5-3.2-4.5C177.8,81.5,176.7,83.8,176.7,86.3"/>
		</g>
		<g id="Clipped_7_">
			<g id="SVGID_7_">
			</g>
			<defs>
				<filter id="Adobe_OpacityMaskFilter_7_" filterUnits="userSpaceOnUse" x="186.7" y="80.7" width="9.2" height="10.9">
					<feColorMatrix  type="matrix" values="1 0 0 0 0  0 1 0 0 0  0 0 1 0 0  0 0 0 1 0"/>
				</filter>
			</defs>
			<mask maskUnits="userSpaceOnUse" x="186.7" y="80.7" width="9.2" height="10.9" id="mask-16_1_">
				<g filter="url(#Adobe_OpacityMaskFilter_7_)">
					<rect id="path-15_1_" x="40.5" y="41.8" fill="#FFFFFF" width="210.1" height="84"/>
				</g>
			</mask>
			<path id="Path_2_" mask="url(#mask-16_1_)" fill="#435465" d="M195.4,83.1h-0.2c-0.7-1.2-1.7-1.7-2.9-1.7c-2.4,0-3.6,2.3-3.6,4.6
				c0,2.6,1.5,4.7,4,4.7c0.9,0,1.6-0.1,2.8-1.4l0.2,0.2l-0.2,1c-1,0.7-2.1,1-3.4,1c-3.2,0-5.4-2.3-5.4-5.5c0-3.3,2.3-5.5,5.6-5.5
				c1.1,0,2.3,0.2,3.6,0.9L195.4,83.1z"/>
		</g>
		<g id="Clipped_8_">
			<g id="SVGID_8_">
			</g>
			<defs>
				<filter id="Adobe_OpacityMaskFilter_8_" filterUnits="userSpaceOnUse" x="197.2" y="80.7" width="9.2" height="10.9">
					<feColorMatrix  type="matrix" values="1 0 0 0 0  0 1 0 0 0  0 0 1 0 0  0 0 0 1 0"/>
				</filter>
			</defs>
			<mask maskUnits="userSpaceOnUse" x="197.2" y="80.7" width="9.2" height="10.9" id="mask-18_1_">
				<g filter="url(#Adobe_OpacityMaskFilter_8_)">
					<rect id="path-17_1_" x="40.5" y="41.8" fill="#FFFFFF" width="210.1" height="84"/>
				</g>
			</mask>
			<path id="Path_3_" mask="url(#mask-18_1_)" fill="#435465" d="M205.9,83.1h-0.2c-0.7-1.2-1.7-1.7-2.9-1.7c-2.4,0-3.6,2.3-3.6,4.6
				c0,2.6,1.5,4.7,4,4.7c0.8,0,1.6-0.1,2.8-1.4l0.2,0.2l-0.2,1c-1,0.7-2.1,1-3.4,1c-3.2,0-5.4-2.3-5.4-5.5c0-3.3,2.3-5.5,5.6-5.5
				c1.1,0,2.3,0.2,3.6,0.9L205.9,83.1z"/>
		</g>
		<g id="Clipped_9_">
			<g id="SVGID_9_">
			</g>
			<defs>
				<filter id="Adobe_OpacityMaskFilter_9_" filterUnits="userSpaceOnUse" x="208.3" y="80.9" width="9.5" height="10.5">
					<feColorMatrix  type="matrix" values="1 0 0 0 0  0 1 0 0 0  0 0 1 0 0  0 0 0 1 0"/>
				</filter>
			</defs>
			<mask maskUnits="userSpaceOnUse" x="208.3" y="80.9" width="9.5" height="10.5" id="mask-20_1_">
				<g filter="url(#Adobe_OpacityMaskFilter_9_)">
					<rect id="path-19_1_" x="40.5" y="41.8" fill="#FFFFFF" width="210.1" height="84"/>
				</g>
			</mask>
			<path id="Path_4_" mask="url(#mask-20_1_)" fill="#435465" d="M209,91.3c-0.1,0-0.5,0-0.7,0.1c0.2-1.6,0.2-4.4,0.2-5.3
				c0-1.1,0-3.7-0.2-5.3c0.4,0,0.8,0.1,1.1,0.1c0.2,0,0.7,0,1-0.1c-0.2,1.6-0.2,4.2-0.2,5.3c0,0.9,0,2.1,0,2.7
				c1.1-1.4,5.2-6.6,6.2-7.9c0.2,0,0.4,0.1,0.6,0.1c0.1,0,0.6,0,0.8-0.1c-0.2,1.6-0.2,4.2-0.2,5.3c0,0.9,0,3.7,0.2,5.3
				c-0.3,0-0.6-0.1-1-0.1c-0.4,0-0.8,0-1.1,0.1c0.2-1.6,0.2-4.4,0.2-5.3c0-1.1,0-2.4,0-2.8c-1.4,1.4-5.2,6.3-6.3,8.1
				C209.4,91.4,209.2,91.3,209,91.3"/>
		</g>
		<g id="Clipped_10_" transform="translate(0.000000, -0.000000)">
			<g id="SVGID_10_">
			</g>
			<defs>
				<filter id="Adobe_OpacityMaskFilter_10_" filterUnits="userSpaceOnUse" x="220.1" y="80.9" width="9.5" height="10.5">
					<feColorMatrix  type="matrix" values="1 0 0 0 0  0 1 0 0 0  0 0 1 0 0  0 0 0 1 0"/>
				</filter>
			</defs>
			<mask maskUnits="userSpaceOnUse" x="220.1" y="80.9" width="9.5" height="10.5" id="mask-22_1_">
				<g filter="url(#Adobe_OpacityMaskFilter_10_)">
					<rect id="path-21_1_" x="40.5" y="41.8" fill="#FFFFFF" width="210.1" height="84"/>
				</g>
			</mask>
			<path id="Path_5_" mask="url(#mask-22_1_)" fill="#435465" d="M220.7,91.3c-0.1,0-0.5,0-0.7,0.1c0.2-1.6,0.2-4.4,0.2-5.3
				c0-1.1,0-3.7-0.2-5.3c0.4,0,0.8,0.1,1.1,0.1c0.2,0,0.7,0,1-0.1c-0.2,1.6-0.2,4.2-0.2,5.3c0,0.9,0,2.1,0,2.7
				c1.1-1.4,5.2-6.6,6.2-7.9c0.2,0,0.4,0.1,0.6,0.1c0.1,0,0.6,0,0.8-0.1c-0.2,1.6-0.2,4.2-0.2,5.3c0,0.9,0,3.7,0.2,5.3
				c-0.3,0-0.6-0.1-1-0.1c-0.4,0-0.8,0-1.1,0.1c0.2-1.6,0.2-4.4,0.2-5.3c0-1.1,0-2.4,0-2.8c-1.4,1.4-5.2,6.3-6.3,8.1
				C221.1,91.4,221,91.3,220.7,91.3"/>
		</g>
	</g>
</g>
</svg>
