<svg width="188" height="35" viewBox="0 0 188 35" fill="none" xmlns="http://www.w3.org/2000/svg">
<path fill-rule="evenodd" clip-rule="evenodd" d="M131.163 13.5913H123.363L123.322 31.7775H131.122C132.888 31.8144 134.637 31.4257 136.227 30.6437C137.653 29.9417 138.849 28.8318 139.668 27.4495C140.502 26.0078 140.926 24.3581 140.892 22.6849C140.938 21.0153 140.528 19.3655 139.708 17.9193C138.89 16.537 137.694 15.4271 136.267 14.7251C134.677 13.9437 132.928 13.5556 131.163 13.5922V13.5913ZM134.47 28.1467C133.392 28.6763 132.207 28.9401 131.01 28.9167L126.732 28.9794V16.4945H131.061C132.259 16.4665 133.445 16.7305 134.522 17.2645C135.479 17.7424 136.274 18.4989 136.809 19.4382C137.363 20.4404 137.641 21.5763 137.615 22.7263C137.641 23.8763 137.363 25.0123 136.809 26.0145C136.255 26.9463 135.441 27.6886 134.47 28.1467ZM145.284 27.5637H154.166L155.994 31.7775H159.455L151.4 13.5913H148.142L140.108 31.7775H143.528L145.284 27.5637V27.5637ZM149.786 17.025L153.145 24.9737H146.407L149.786 17.025V17.025ZM162.404 16.453H156.492V13.5913H171.633V16.453H165.722V31.7775H162.404V16.4539V16.453ZM173.829 27.5637H182.752L184.539 31.7775H188L179.945 13.5913H176.687L168.663 31.7775H172.073L173.829 27.5637V27.5637ZM178.362 17.025L181.732 24.9737H174.973L178.362 17.025Z" fill="white"/>
<path fill-rule="evenodd" clip-rule="evenodd" d="M0 7.46974C0 2.56974 9.45423 0 18.7964 0C28.1367 0 37.591 2.56974 37.591 7.46053H34.9264C34.9149 7.34801 34.8837 7.23851 34.8342 7.13724C34.7891 7.01457 34.7273 6.89893 34.6508 6.79368C34.5779 6.66461 34.4847 6.54856 34.3751 6.45013C34.2702 6.33485 34.1575 6.22714 34.0379 6.12776C33.8719 5.97952 33.6904 5.85041 33.4965 5.74276C33.4653 5.72327 33.434 5.70393 33.4025 5.68474C33.2919 5.61812 33.1837 5.54746 33.0781 5.47289C32.5452 5.16978 31.9887 4.91223 31.4141 4.70289L29.2494 9.62408L28.9945 10.1951L28.8318 10.5811C28.8164 10.6032 28.7956 10.6529 28.7685 10.7192C28.7082 10.8723 28.6369 11.0207 28.5552 11.1632C28.1982 11.7563 27.4634 12.4434 25.85 11.8705L25.4722 11.7149H25.3701C24.5089 11.3676 23.6111 11.1234 22.6947 10.9872C22.6107 10.972 22.5272 10.9542 22.4443 10.9338C22.2928 10.8924 22.1373 10.8683 21.9806 10.862C20.9238 10.7309 19.8601 10.6648 18.7955 10.6639H18.6418C16.436 10.5966 14.2372 10.9495 12.1585 11.7047L11.7401 11.8816C10.0246 12.495 9.32046 11.6624 9.00412 11.0803L8.77906 10.5921L6.17598 4.71303C5.05671 5.08688 4.02721 5.69663 3.15442 6.50263L3.06313 6.61684C2.93387 6.77245 2.83646 6.95283 2.77662 7.14737C2.56924 7.64694 2.47175 8.18674 2.491 8.72882C2.48373 9.25279 2.56663 9.77401 2.73594 10.2688C2.76758 10.3314 2.79108 10.3978 2.80825 10.4668C2.85344 10.5866 2.92304 10.6971 3.01162 10.7892C3.0423 10.8517 3.08396 10.9079 3.13454 10.955C4.12512 11.8606 5.29978 12.5321 6.57458 12.9214C6.57458 12.9214 7.01385 13.0983 7.8716 13.3378L8.52508 13.5257C10.3093 13.9558 12.1206 14.2625 13.9463 14.4403C15.5646 14.6057 17.1899 14.6893 18.8163 14.6908H20.6032C21.6265 14.6691 22.6483 14.5997 23.6654 14.4826C25.6338 14.326 27.583 13.9775 29.4862 13.4418C29.6398 13.3986 29.7709 13.3589 29.8938 13.3203C30.0068 13.2862 30.1125 13.253 30.2201 13.2236C30.3286 13.1941 30.4144 13.1591 30.484 13.1314C30.5393 13.1041 30.5985 13.0861 30.6594 13.078C31.4035 12.8271 32.1273 12.5173 32.8241 12.1514L31.2107 15.7933C27.182 17.006 22.9967 17.5917 18.7964 17.5304C12.4966 17.5304 6.17689 16.3653 2.70521 14.0976V15.7721C2.70521 17.687 8.98423 20.4962 18.7964 20.4962C22.4905 20.5455 26.1734 20.0728 29.7402 19.0916L28.332 22.2747C25.1955 22.9368 21.9994 23.261 18.7964 23.2418C12.4966 23.2418 6.17689 22.0666 2.70521 19.8192V21.4845C2.70521 23.4095 8.98423 26.1975 18.7964 26.1975C21.5136 26.2086 24.2263 25.9719 26.9021 25.4901L25.5752 28.4863C23.329 28.8023 21.0639 28.9587 18.7964 28.9542C12.4966 28.9542 6.17689 27.7789 2.70521 25.5316V27.1959C2.70521 29.1311 8.98423 31.9089 18.7657 31.9504C20.5667 31.9578 22.3667 31.8572 24.1562 31.6492L22.88 34.5201C21.5223 34.6462 20.1597 34.7089 18.7964 34.708C9.45423 34.708 0 32.1383 0 27.2383V7.46974ZM10.8525 9.86263C13.0228 8.93443 15.35 8.44698 17.7036 8.42763V2.77789C14.5211 2.80269 11.3534 3.22177 8.27019 4.02592L10.8525 9.86263V9.86263ZM19.8882 8.42763C22.2446 8.44828 24.5746 8.93566 26.7484 9.86263L29.3325 4.02592C26.2458 3.22109 23.0744 2.802 19.8882 2.77789V8.42763V8.42763ZM60.5423 26.4471L64.1866 31.7736L67.699 31.815L63.6154 25.8438C64.7576 25.4208 65.7424 24.6463 66.4336 23.6278C67.1196 22.5858 67.4757 21.3547 67.454 20.1001C67.485 18.8821 67.1654 17.6814 66.5348 16.6462C65.91 15.6426 65.0078 14.8497 63.9417 14.3675C62.6499 13.8165 61.2581 13.5506 59.8581 13.5874H52.5171V31.7533H55.836V26.4471H59.8581C60.0859 26.46 60.3146 26.46 60.5423 26.4471V26.4471ZM59.7054 16.4491C60.874 16.3674 62.0347 16.6978 62.9927 17.3849C63.3761 17.7157 63.6775 18.1339 63.8726 18.6057C64.0676 19.0775 64.1508 19.5895 64.1152 20.1001C64.142 20.6053 64.0548 21.1101 63.8602 21.5755C63.6655 22.041 63.3688 22.4547 62.9927 22.785C62.0395 23.4831 60.8761 23.8182 59.7054 23.7318H55.8351V16.4491H59.7054ZM36.5904 27.5597H45.5141L47.3001 31.7736H50.7618L42.7058 13.5874H39.4493L31.4141 31.7736H34.8342L36.5904 27.5597V27.5597ZM41.0518 17.0211L44.4213 24.9697H37.7139L41.0518 17.0211V17.0211ZM83.0038 28.9441V31.7736H69.6188V13.5874H82.6974V16.4178H72.9368V21.152H81.5441V23.9289H72.9368V28.9441H83.0038ZM101.014 31.7736V13.5874H97.7266V25.9055L87.8945 13.5874H85.1685V31.7736H88.4558V19.4554L98.2879 31.7736H101.014ZM116.39 27.5597H107.466L105.71 31.7736H102.3L110.264 13.5874H113.531L121.576 31.7736H118.116L116.39 27.5597ZM115.267 24.9697L111.897 17.0211L108.559 24.9697H115.267V24.9697Z" fill="white"/>
</svg>
